<?xml version="1.0" encoding="UTF-8" standalone="no"?>
<!DOCTYPE svg PUBLIC "-//W3C//DTD SVG 1.1//EN"
 "http://www.w3.org/Graphics/SVG/1.1/DTD/svg11.dtd">
<!-- Generated by graphviz version 12.2.1 (20241206.2353)
 -->
<!-- Title: G Pages: 1 -->
<svg width="1078pt" height="1255pt"
 viewBox="0.00 0.00 1078.02 1255.45" xmlns="http://www.w3.org/2000/svg" xmlns:xlink="http://www.w3.org/1999/xlink">
<g id="graph0" class="graph" transform="scale(1 1) rotate(0) translate(4 1251.45)">
<title>G</title><style>.edge>path:hover{stroke-width:8}</style>
<polygon fill="#fbf8ef" stroke="none" points="-4,4 -4,-1251.45 1074.02,-1251.45 1074.02,4 -4,4"/>
<!-- cvxpy -->
<g id="node1" class="node">
<title>cvxpy</title><style>.edge>path:hover{stroke-width:8}</style>
<polygon fill="#e61919" stroke="black" points="323.11,-1029.45 320.11,-1033.45 299.11,-1033.45 296.11,-1029.45 269.11,-1029.45 269.11,-993.45 323.11,-993.45 323.11,-1029.45"/>
<text text-anchor="middle" x="296.11" y="-1007.58" font-family="Helvetica,sans-Serif" font-size="10.00" fill="#ffffff">cvxpy</text>
</g>
<!-- ff__mean_risk -->
<g id="node5" class="node">
<title>ff__mean_risk</title><style>.edge>path:hover{stroke-width:8}</style>
<ellipse fill="#7a561e" stroke="black" cx="258.11" cy="-514.58" rx="44.53" ry="18"/>
<text text-anchor="middle" x="258.11" y="-510.7" font-family="Helvetica,sans-Serif" font-size="10.00" fill="#ffffff">ff._mean_risk</text>
</g>
<!-- cvxpy&#45;&gt;ff__mean_risk -->
<g id="edge1" class="edge">
<title>cvxpy&#45;&gt;ff__mean_risk</title><style>.edge>path:hover{stroke-width:8}</style>
<path fill="none" stroke="black" d="M293.16,-993C289.2,-965.8 284,-911.91 296.11,-868.45"/>
<path fill="none" stroke="black" d="M296.11,-866.45C307.58,-832.03 304.2,-820.97 300.11,-784.93"/>
<path fill="none" stroke="black" d="M372.11,-607.93C363.33,-572.48 328.62,-547.77 299.79,-532.89"/>
<polygon fill="#e61919" stroke="black" points="301.37,-529.76 290.85,-528.51 298.29,-536.05 301.37,-529.76"/>
<path fill="none" stroke="black" d="M300.11,-782.93C290.74,-700.18 392.14,-690.77 372.11,-609.93"/>
</g>
<!-- skfolio -->
<g id="node26" class="node">
<title>skfolio</title><style>.edge>path:hover{stroke-width:8}</style>
<polygon fill="blue" stroke="black" points="420.11,-801.93 417.11,-805.93 396.11,-805.93 393.11,-801.93 366.11,-801.93 366.11,-765.93 420.11,-765.93 420.11,-801.93"/>
<text text-anchor="middle" x="393.11" y="-780.05" font-family="Helvetica,sans-Serif" font-size="10.00" fill="#fbf8ef">skfolio</text>
</g>
<!-- cvxpy&#45;&gt;skfolio -->
<g id="edge2" class="edge">
<title>cvxpy&#45;&gt;skfolio</title><style>.edge>path:hover{stroke-width:8}</style>
<path fill="none" stroke="black" d="M296.11,-866.45C304.33,-836.97 332.27,-815.46 356.06,-801.95"/>
<polygon fill="#e61919" stroke="black" points="357.44,-805.19 364.6,-797.38 354.13,-799.02 357.44,-805.19"/>
</g>
<!-- ff -->
<g id="node2" class="node">
<title>ff</title><style>.edge>path:hover{stroke-width:8}</style>
<polygon fill="blue" stroke="black" points="774.11,-36 720.11,-36 720.11,0 774.11,0 774.11,-36"/>
<text text-anchor="middle" x="747.11" y="-14.12" font-family="Helvetica,sans-Serif" font-size="10.00" fill="#fbf8ef">ff</text>
</g>
<!-- ff__cluster -->
<g id="node3" class="node">
<title>ff__cluster</title><style>.edge>path:hover{stroke-width:8}</style>
<ellipse fill="#b47e2d" stroke="black" cx="54.11" cy="-867.45" rx="35.21" ry="18"/>
<text text-anchor="middle" x="54.11" y="-863.58" font-family="Helvetica,sans-Serif" font-size="10.00" fill="#000000">ff._cluster</text>
</g>
<!-- ff__cluster&#45;&gt;ff -->
<g id="edge3" class="edge">
<title>ff__cluster&#45;&gt;ff</title><style>.edge>path:hover{stroke-width:8}</style>
<path fill="none" stroke="black" d="M29.11,-782.93C-3.63,-658.47 -8.04,-620.3 15.11,-493.7 24.6,-441.84 22.04,-422.12 57.11,-382.75 96.72,-338.3 138.77,-367.62 176.11,-321.25"/>
<path fill="none" stroke="black" d="M47.9,-849.52C42.15,-833.2 33.81,-807.69 29.11,-784.93"/>
<path fill="none" stroke="black" d="M578.11,-161C610.14,-106.62 670.88,-63.45 710.16,-39.56"/>
<polygon fill="#b47e2d" stroke="black" points="711.79,-42.67 718.59,-34.54 708.21,-36.65 711.79,-42.67"/>
<path fill="none" stroke="black" d="M176.11,-319.25C293.11,-167.4 428.91,-283.34 578.11,-163"/>
</g>
<!-- ff__npo -->
<g id="node7" class="node">
<title>ff__npo</title><style>.edge>path:hover{stroke-width:8}</style>
<polygon fill="blue" stroke="black" points="120.11,-438.23 66.11,-438.23 66.11,-402.23 120.11,-402.23 120.11,-438.23"/>
<text text-anchor="middle" x="93.11" y="-416.35" font-family="Helvetica,sans-Serif" font-size="10.00" fill="#fbf8ef">ff._npo</text>
</g>
<!-- ff__cluster&#45;&gt;ff__npo -->
<g id="edge4" class="edge">
<title>ff__cluster&#45;&gt;ff__npo</title><style>.edge>path:hover{stroke-width:8}</style>
<path fill="none" stroke="black" d="M29.11,-782.93C19.9,-747.89 25.07,-737.41 29.11,-701.41"/>
</g>
<!-- ff__inner -->
<g id="node4" class="node">
<title>ff__inner</title><style>.edge>path:hover{stroke-width:8}</style>
<polygon fill="blue" stroke="black" points="230.11,-438.23 176.11,-438.23 176.11,-402.23 230.11,-402.23 230.11,-438.23"/>
<text text-anchor="middle" x="203.11" y="-416.35" font-family="Helvetica,sans-Serif" font-size="10.00" fill="#fbf8ef">ff._inner</text>
</g>
<!-- ff__inner&#45;&gt;ff -->
<g id="edge5" class="edge">
<title>ff__inner&#45;&gt;ff</title><style>.edge>path:hover{stroke-width:8}</style>
<path fill="none" stroke="black" d="M190.03,-401.87C175.86,-380.78 157.58,-345.06 176.11,-321.25"/>
</g>
<!-- ff__mean_risk&#45;&gt;ff -->
<g id="edge6" class="edge">
<title>ff__mean_risk&#45;&gt;ff</title><style>.edge>path:hover{stroke-width:8}</style>
<path fill="none" stroke="black" d="M259.02,-496.43C259.67,-470.4 258.06,-419.98 239.11,-382.75 221.36,-347.88 152.08,-352.13 176.11,-321.25"/>
</g>
<!-- ff__mean_risk&#45;&gt;ff__inner -->
<g id="edge7" class="edge">
<title>ff__mean_risk&#45;&gt;ff__inner</title><style>.edge>path:hover{stroke-width:8}</style>
<path fill="none" stroke="black" d="M248.03,-496.64C239.99,-483.14 228.58,-463.98 219.27,-448.35"/>
<polygon fill="#7a561e" stroke="black" points="222.41,-446.79 214.29,-439.99 216.4,-450.37 222.41,-446.79"/>
</g>
<!-- ff__naive -->
<g id="node6" class="node">
<title>ff__naive</title><style>.edge>path:hover{stroke-width:8}</style>
<ellipse fill="#8a652e" stroke="black" cx="518.11" cy="-514.58" rx="31.66" ry="18"/>
<text text-anchor="middle" x="518.11" y="-510.7" font-family="Helvetica,sans-Serif" font-size="10.00" fill="#ffffff">ff._naive</text>
</g>
<!-- ff__naive&#45;&gt;ff -->
<g id="edge8" class="edge">
<title>ff__naive&#45;&gt;ff</title><style>.edge>path:hover{stroke-width:8}</style>
<path fill="none" stroke="black" d="M578.11,-235.88C578.11,-203.49 561.68,-190.91 578.11,-163"/>
<path fill="none" stroke="black" d="M521.47,-496.43C528.76,-459.35 546.82,-368.99 564.11,-293.75 569.85,-268.8 578.11,-263.48 578.11,-237.88"/>
</g>
<!-- ff__npo&#45;&gt;ff -->
<g id="edge9" class="edge">
<title>ff__npo&#45;&gt;ff</title><style>.edge>path:hover{stroke-width:8}</style>
<path fill="none" stroke="black" d="M108.56,-401.89C125.57,-382.59 153.52,-350.28 176.11,-321.25"/>
</g>
<!-- ff__outer -->
<g id="node8" class="node">
<title>ff__outer</title><style>.edge>path:hover{stroke-width:8}</style>
<ellipse fill="#ac782b" stroke="black" cx="88.11" cy="-514.58" rx="30.77" ry="18"/>
<text text-anchor="middle" x="88.11" y="-510.7" font-family="Helvetica,sans-Serif" font-size="10.00" fill="#ffffff">ff._outer</text>
</g>
<!-- ff__outer&#45;&gt;ff -->
<g id="edge10" class="edge">
<title>ff__outer&#45;&gt;ff</title><style>.edge>path:hover{stroke-width:8}</style>
<path fill="none" stroke="black" d="M101.31,-498.28C110.1,-487.5 121.41,-472.41 129.11,-457.7 158.87,-400.88 136.28,-371.52 176.11,-321.25"/>
</g>
<!-- ff__outer&#45;&gt;ff__npo -->
<g id="edge11" class="edge">
<title>ff__outer&#45;&gt;ff__npo</title><style>.edge>path:hover{stroke-width:8}</style>
<path fill="none" stroke="black" d="M89.05,-496.21C89.76,-483.18 90.74,-465.06 91.56,-449.89"/>
<polygon fill="#ac782b" stroke="black" points="95.05,-450.21 92.1,-440.03 88.06,-449.83 95.05,-450.21"/>
</g>
<!-- ff__prior -->
<g id="node9" class="node">
<title>ff__prior</title><style>.edge>path:hover{stroke-width:8}</style>
<polygon fill="blue" stroke="black" points="774.11,-108 720.11,-108 720.11,-72 774.11,-72 774.11,-108"/>
<text text-anchor="middle" x="747.11" y="-86.12" font-family="Helvetica,sans-Serif" font-size="10.00" fill="#fbf8ef">ff._prior</text>
</g>
<!-- ff__prior&#45;&gt;ff -->
<g id="edge12" class="edge">
<title>ff__prior&#45;&gt;ff</title><style>.edge>path:hover{stroke-width:8}</style>
<path fill="none" stroke="black" d="M747.11,-71.7C747.11,-64.41 747.11,-55.73 747.11,-47.54"/>
<polygon fill="blue" stroke="black" points="750.61,-47.62 747.11,-37.62 743.61,-47.62 750.61,-47.62"/>
</g>
<!-- ff_distance -->
<g id="node10" class="node">
<title>ff_distance</title><style>.edge>path:hover{stroke-width:8}</style>
<polygon fill="blue" stroke="black" points="911.99,-626.93 850.24,-626.93 850.24,-590.93 911.99,-590.93 911.99,-626.93"/>
<text text-anchor="middle" x="881.11" y="-605.05" font-family="Helvetica,sans-Serif" font-size="10.00" fill="#fbf8ef">ff.distance</text>
</g>
<!-- ff_distance&#45;&gt;ff -->
<g id="edge13" class="edge">
<title>ff_distance&#45;&gt;ff</title><style>.edge>path:hover{stroke-width:8}</style>
<path fill="none" stroke="black" d="M858.1,-590.51C823.88,-563.99 758.53,-510.94 711.11,-457.7 661.97,-402.52 644.58,-389.44 616.11,-321.25"/>
</g>
<!-- ff_moments -->
<g id="node11" class="node">
<title>ff_moments</title><style>.edge>path:hover{stroke-width:8}</style>
<polygon fill="blue" stroke="black" points="779.86,-180 714.36,-180 714.36,-144 779.86,-144 779.86,-180"/>
<text text-anchor="middle" x="747.11" y="-158.12" font-family="Helvetica,sans-Serif" font-size="10.00" fill="#fbf8ef">ff.moments</text>
</g>
<!-- ff_moments&#45;&gt;ff -->
<g id="edge14" class="edge">
<title>ff_moments&#45;&gt;ff</title><style>.edge>path:hover{stroke-width:8}</style>
<path fill="none" stroke="black" d="M969.11,-89C964.18,-51.55 848.06,-31.47 785.78,-23.36"/>
<polygon fill="blue" stroke="black" points="786.31,-19.9 775.95,-22.12 785.44,-26.84 786.31,-19.9"/>
<path fill="none" stroke="black" d="M780.28,-157.57C843.43,-150.13 974.24,-129.96 969.11,-91"/>
</g>
<!-- ff_moments&#45;&gt;ff__prior -->
<g id="edge15" class="edge">
<title>ff_moments&#45;&gt;ff__prior</title><style>.edge>path:hover{stroke-width:8}</style>
<path fill="none" stroke="black" d="M747.11,-143.7C747.11,-136.41 747.11,-127.73 747.11,-119.54"/>
<polygon fill="blue" stroke="black" points="750.61,-119.62 747.11,-109.62 743.61,-119.62 750.61,-119.62"/>
</g>
<!-- ff_moments_covariance -->
<g id="node12" class="node">
<title>ff_moments_covariance</title><style>.edge>path:hover{stroke-width:8}</style>
<polygon fill="blue" stroke="black" points="778.74,-257.75 715.49,-257.75 715.49,-216 778.74,-216 778.74,-257.75"/>
<text text-anchor="middle" x="747.11" y="-244.25" font-family="Helvetica,sans-Serif" font-size="10.00" fill="#fbf8ef">ff.</text>
<text text-anchor="middle" x="747.11" y="-233" font-family="Helvetica,sans-Serif" font-size="10.00" fill="#fbf8ef">moments.</text>
<text text-anchor="middle" x="747.11" y="-221.75" font-family="Helvetica,sans-Serif" font-size="10.00" fill="#fbf8ef">covariance</text>
</g>
<!-- ff_moments_covariance&#45;&gt;ff__prior -->
<g id="edge16" class="edge">
<title>ff_moments_covariance&#45;&gt;ff__prior</title><style>.edge>path:hover{stroke-width:8}</style>
<path fill="none" stroke="black" d="M715.14,-231.67C669.71,-224.14 594.3,-205.04 616.11,-163"/>
</g>
<!-- ff_moments_covariance&#45;&gt;ff_moments -->
<g id="edge17" class="edge">
<title>ff_moments_covariance&#45;&gt;ff_moments</title><style>.edge>path:hover{stroke-width:8}</style>
<path fill="none" stroke="black" d="M747.11,-215.58C747.11,-208.19 747.11,-199.7 747.11,-191.73"/>
<polygon fill="blue" stroke="black" points="750.61,-191.74 747.11,-181.74 743.61,-191.74 750.61,-191.74"/>
</g>
<!-- ff_moments_covariance__base -->
<g id="node13" class="node">
<title>ff_moments_covariance__base</title><style>.edge>path:hover{stroke-width:8}</style>
<ellipse fill="#9c691b" stroke="black" cx="767.11" cy="-420.23" rx="46.85" ry="37.48"/>
<text text-anchor="middle" x="767.11" y="-433.23" font-family="Helvetica,sans-Serif" font-size="10.00" fill="#ffffff">ff.</text>
<text text-anchor="middle" x="767.11" y="-421.98" font-family="Helvetica,sans-Serif" font-size="10.00" fill="#ffffff">moments.</text>
<text text-anchor="middle" x="767.11" y="-410.73" font-family="Helvetica,sans-Serif" font-size="10.00" fill="#ffffff">covariance.</text>
<text text-anchor="middle" x="767.11" y="-399.48" font-family="Helvetica,sans-Serif" font-size="10.00" fill="#ffffff">_base</text>
</g>
<!-- ff_moments_covariance__base&#45;&gt;ff_moments_covariance -->
<g id="edge18" class="edge">
<title>ff_moments_covariance__base&#45;&gt;ff_moments_covariance</title><style>.edge>path:hover{stroke-width:8}</style>
<path fill="none" stroke="black" d="M739.38,-389.48C729.74,-377.2 720.09,-362.23 715.11,-346.75 707.9,-324.33 709.06,-316.51 715.11,-293.75 717.48,-284.86 721.63,-275.92 726.17,-267.87"/>
<polygon fill="#9c691b" stroke="black" points="729.04,-269.88 731.25,-259.52 723.06,-266.25 729.04,-269.88"/>
</g>
<!-- ff_moments_covariance__empirical_covariance -->
<g id="node14" class="node">
<title>ff_moments_covariance__empirical_covariance</title><style>.edge>path:hover{stroke-width:8}</style>
<polygon fill="blue" stroke="black" points="836.49,-346.75 723.74,-346.75 723.74,-293.75 836.49,-293.75 836.49,-346.75"/>
<text text-anchor="middle" x="780.11" y="-333.25" font-family="Helvetica,sans-Serif" font-size="10.00" fill="#fbf8ef">ff.</text>
<text text-anchor="middle" x="780.11" y="-322" font-family="Helvetica,sans-Serif" font-size="10.00" fill="#fbf8ef">moments.</text>
<text text-anchor="middle" x="780.11" y="-310.75" font-family="Helvetica,sans-Serif" font-size="10.00" fill="#fbf8ef">covariance.</text>
<text text-anchor="middle" x="780.11" y="-299.5" font-family="Helvetica,sans-Serif" font-size="10.00" fill="#fbf8ef">_empirical_covariance</text>
</g>
<!-- ff_moments_covariance__base&#45;&gt;ff_moments_covariance__empirical_covariance -->
<g id="edge19" class="edge">
<title>ff_moments_covariance__base&#45;&gt;ff_moments_covariance__empirical_covariance</title><style>.edge>path:hover{stroke-width:8}</style>
<path fill="none" stroke="black" d="M771.99,-382.47C773.04,-374.58 774.14,-366.25 775.19,-358.36"/>
<polygon fill="#9c691b" stroke="black" points="778.62,-359.09 776.47,-348.71 771.69,-358.17 778.62,-359.09"/>
</g>
<!-- ff_moments_covariance__ew_covariance -->
<g id="node15" class="node">
<title>ff_moments_covariance__ew_covariance</title><style>.edge>path:hover{stroke-width:8}</style>
<polygon fill="blue" stroke="black" points="941.36,-346.75 854.86,-346.75 854.86,-293.75 941.36,-293.75 941.36,-346.75"/>
<text text-anchor="middle" x="898.11" y="-333.25" font-family="Helvetica,sans-Serif" font-size="10.00" fill="#fbf8ef">ff.</text>
<text text-anchor="middle" x="898.11" y="-322" font-family="Helvetica,sans-Serif" font-size="10.00" fill="#fbf8ef">moments.</text>
<text text-anchor="middle" x="898.11" y="-310.75" font-family="Helvetica,sans-Serif" font-size="10.00" fill="#fbf8ef">covariance.</text>
<text text-anchor="middle" x="898.11" y="-299.5" font-family="Helvetica,sans-Serif" font-size="10.00" fill="#fbf8ef">_ew_covariance</text>
</g>
<!-- ff_moments_covariance__base&#45;&gt;ff_moments_covariance__ew_covariance -->
<g id="edge20" class="edge">
<title>ff_moments_covariance__base&#45;&gt;ff_moments_covariance__ew_covariance</title><style>.edge>path:hover{stroke-width:8}</style>
<path fill="none" stroke="black" d="M800.85,-394C817.25,-381.73 837.15,-366.85 854.67,-353.74"/>
<polygon fill="#9c691b" stroke="black" points="856.46,-356.78 862.37,-347.98 852.26,-351.17 856.46,-356.78"/>
</g>
<!-- ff_moments_covariance__empirical_covariance&#45;&gt;ff_moments_covariance -->
<g id="edge21" class="edge">
<title>ff_moments_covariance__empirical_covariance&#45;&gt;ff_moments_covariance</title><style>.edge>path:hover{stroke-width:8}</style>
<path fill="none" stroke="black" d="M769.67,-293.5C766.48,-285.63 762.93,-276.89 759.62,-268.71"/>
<polygon fill="blue" stroke="black" points="762.86,-267.4 755.86,-259.45 756.38,-270.03 762.86,-267.4"/>
</g>
<!-- ff_moments_covariance__ew_covariance&#45;&gt;ff_moments_covariance -->
<g id="edge22" class="edge">
<title>ff_moments_covariance__ew_covariance&#45;&gt;ff_moments_covariance</title><style>.edge>path:hover{stroke-width:8}</style>
<path fill="none" stroke="black" d="M854.44,-295.71C833.87,-284.63 809.45,-271.47 789.1,-260.5"/>
<polygon fill="blue" stroke="black" points="790.97,-257.54 780.51,-255.87 787.65,-263.7 790.97,-257.54"/>
</g>
<!-- ff_moments_expected_returns -->
<g id="node16" class="node">
<title>ff_moments_expected_returns</title><style>.edge>path:hover{stroke-width:8}</style>
<polygon fill="blue" stroke="black" points="735.61,-535.45 644.61,-535.45 644.61,-493.7 735.61,-493.7 735.61,-535.45"/>
<text text-anchor="middle" x="690.11" y="-521.95" font-family="Helvetica,sans-Serif" font-size="10.00" fill="#fbf8ef">ff.</text>
<text text-anchor="middle" x="690.11" y="-510.7" font-family="Helvetica,sans-Serif" font-size="10.00" fill="#fbf8ef">moments.</text>
<text text-anchor="middle" x="690.11" y="-499.45" font-family="Helvetica,sans-Serif" font-size="10.00" fill="#fbf8ef">expected_returns</text>
</g>
<!-- ff_moments_expected_returns&#45;&gt;ff_moments -->
<g id="edge23" class="edge">
<title>ff_moments_expected_returns&#45;&gt;ff_moments</title><style>.edge>path:hover{stroke-width:8}</style>
<path fill="none" stroke="black" d="M687.18,-493.25C680.89,-443.88 669.5,-314.44 706.11,-216 709.67,-206.44 715.6,-197.21 721.86,-189.21"/>
<polygon fill="blue" stroke="black" points="724.51,-191.49 728.27,-181.59 719.15,-186.99 724.51,-191.49"/>
</g>
<!-- ff_moments_expected_returns__yield_mu -->
<g id="node17" class="node">
<title>ff_moments_expected_returns__yield_mu</title><style>.edge>path:hover{stroke-width:8}</style>
<ellipse fill="#735426" stroke="black" cx="710.11" cy="-608.93" rx="66.47" ry="37.48"/>
<text text-anchor="middle" x="710.11" y="-621.93" font-family="Helvetica,sans-Serif" font-size="10.00" fill="#ffffff">ff.</text>
<text text-anchor="middle" x="710.11" y="-610.68" font-family="Helvetica,sans-Serif" font-size="10.00" fill="#ffffff">moments.</text>
<text text-anchor="middle" x="710.11" y="-599.43" font-family="Helvetica,sans-Serif" font-size="10.00" fill="#ffffff">expected_returns.</text>
<text text-anchor="middle" x="710.11" y="-588.18" font-family="Helvetica,sans-Serif" font-size="10.00" fill="#ffffff">_yield_mu</text>
</g>
<!-- ff_moments_expected_returns__yield_mu&#45;&gt;ff_moments_expected_returns -->
<g id="edge24" class="edge">
<title>ff_moments_expected_returns__yield_mu&#45;&gt;ff_moments_expected_returns</title><style>.edge>path:hover{stroke-width:8}</style>
<path fill="none" stroke="black" d="M702.21,-571.43C700.45,-563.3 698.6,-554.75 696.89,-546.85"/>
<polygon fill="#735426" stroke="black" points="700.37,-546.39 694.83,-537.35 693.53,-547.87 700.37,-546.39"/>
</g>
<!-- ff_pre_selection -->
<g id="node18" class="node">
<title>ff_pre_selection</title><style>.edge>path:hover{stroke-width:8}</style>
<polygon fill="blue" stroke="black" points="777.99,-718.41 704.24,-718.41 704.24,-682.41 777.99,-682.41 777.99,-718.41"/>
<text text-anchor="middle" x="741.11" y="-702.16" font-family="Helvetica,sans-Serif" font-size="10.00" fill="#fbf8ef">ff.</text>
<text text-anchor="middle" x="741.11" y="-690.91" font-family="Helvetica,sans-Serif" font-size="10.00" fill="#fbf8ef">pre_selection</text>
</g>
<!-- ff_pre_selection&#45;&gt;ff -->
<g id="edge25" class="edge">
<title>ff_pre_selection&#45;&gt;ff</title><style>.edge>path:hover{stroke-width:8}</style>
<path fill="none" stroke="black" d="M616.11,-319.25C601.79,-281.99 580.29,-277.73 578.11,-237.88"/>
<path fill="none" stroke="black" d="M703.75,-690.95C679.89,-683.47 650.63,-669.94 635.11,-646.41 555.45,-525.54 668.07,-456.37 616.11,-321.25"/>
</g>
<!-- ff_pre_selection__high_mu_high_sharpe -->
<g id="node19" class="node">
<title>ff_pre_selection__high_mu_high_sharpe</title><style>.edge>path:hover{stroke-width:8}</style>
<polygon fill="blue" stroke="black" points="869.99,-804.8 754.24,-804.8 754.24,-763.05 869.99,-763.05 869.99,-804.8"/>
<text text-anchor="middle" x="812.11" y="-791.3" font-family="Helvetica,sans-Serif" font-size="10.00" fill="#fbf8ef">ff.</text>
<text text-anchor="middle" x="812.11" y="-780.05" font-family="Helvetica,sans-Serif" font-size="10.00" fill="#fbf8ef">pre_selection.</text>
<text text-anchor="middle" x="812.11" y="-768.8" font-family="Helvetica,sans-Serif" font-size="10.00" fill="#fbf8ef">_high_mu_high_sharpe</text>
</g>
<!-- ff_pre_selection__high_mu_high_sharpe&#45;&gt;ff_pre_selection -->
<g id="edge26" class="edge">
<title>ff_pre_selection__high_mu_high_sharpe&#45;&gt;ff_pre_selection</title><style>.edge>path:hover{stroke-width:8}</style>
<path fill="none" stroke="black" d="M794.56,-762.78C785.2,-752.03 773.59,-738.69 763.58,-727.2"/>
<polygon fill="blue" stroke="black" points="766.5,-725.22 757.29,-719.98 761.22,-729.82 766.5,-725.22"/>
</g>
<!-- ff_pre_selection__maturity -->
<g id="node20" class="node">
<title>ff_pre_selection__maturity</title><style>.edge>path:hover{stroke-width:8}</style>
<ellipse fill="#8a652e" stroke="black" cx="682.11" cy="-783.93" rx="54.27" ry="29.52"/>
<text text-anchor="middle" x="682.11" y="-791.3" font-family="Helvetica,sans-Serif" font-size="10.00" fill="#ffffff">ff.</text>
<text text-anchor="middle" x="682.11" y="-780.05" font-family="Helvetica,sans-Serif" font-size="10.00" fill="#ffffff">pre_selection.</text>
<text text-anchor="middle" x="682.11" y="-768.8" font-family="Helvetica,sans-Serif" font-size="10.00" fill="#ffffff">_maturity</text>
</g>
<!-- ff_pre_selection__maturity&#45;&gt;ff_pre_selection -->
<g id="edge27" class="edge">
<title>ff_pre_selection__maturity&#45;&gt;ff_pre_selection</title><style>.edge>path:hover{stroke-width:8}</style>
<path fill="none" stroke="black" d="M701.43,-756.24C708.12,-747 715.6,-736.66 722.25,-727.48"/>
<polygon fill="#8a652e" stroke="black" points="724.89,-729.79 727.92,-719.64 719.22,-725.69 724.89,-729.79"/>
</g>
<!-- ff_utils -->
<g id="node21" class="node">
<title>ff_utils</title><style>.edge>path:hover{stroke-width:8}</style>
<ellipse fill="#d38817" stroke="black" cx="995.11" cy="-700.41" rx="27" ry="18"/>
<text text-anchor="middle" x="995.11" y="-696.53" font-family="Helvetica,sans-Serif" font-size="10.00" fill="#000000">ff.utils</text>
</g>
<!-- ff_utils&#45;&gt;ff -->
<g id="edge28" class="edge">
<title>ff_utils&#45;&gt;ff</title><style>.edge>path:hover{stroke-width:8}</style>
<path fill="none" stroke="black" d="M969.11,-419.23C935.38,-354.56 978.63,-163.32 969.11,-91"/>
</g>
<!-- ff_utils&#45;&gt;ff_distance -->
<g id="edge29" class="edge">
<title>ff_utils&#45;&gt;ff_distance</title><style>.edge>path:hover{stroke-width:8}</style>
<path fill="none" stroke="black" d="M978.29,-686.2C960.92,-672.57 933.42,-650.98 912.1,-634.25"/>
<polygon fill="#d38817" stroke="black" points="914.31,-631.53 904.28,-628.11 909.99,-637.04 914.31,-631.53"/>
</g>
<!-- ff_utils&#45;&gt;ff_moments_covariance__empirical_covariance -->
<g id="edge30" class="edge">
<title>ff_utils&#45;&gt;ff_moments_covariance__empirical_covariance</title><style>.edge>path:hover{stroke-width:8}</style>
<path fill="none" stroke="black" d="M969.11,-419.23C961.66,-401.31 960.34,-394.78 945.11,-382.75 910.96,-355.76 892.63,-362.05 847.65,-347.08"/>
<polygon fill="#d38817" stroke="black" points="848.99,-343.84 838.4,-343.8 846.65,-350.44 848.99,-343.84"/>
<path fill="none" stroke="black" d="M996.92,-682.28C1000.94,-637.39 1007.48,-513.49 969.11,-421.23"/>
</g>
<!-- ff_utils&#45;&gt;ff_moments_covariance__ew_covariance -->
<g id="edge31" class="edge">
<title>ff_utils&#45;&gt;ff_moments_covariance__ew_covariance</title><style>.edge>path:hover{stroke-width:8}</style>
<path fill="none" stroke="black" d="M969.11,-419.23C959.57,-396.27 943.67,-373.59 929.33,-355.85"/>
<polygon fill="#d38817" stroke="black" points="932.07,-353.67 922.99,-348.21 926.69,-358.14 932.07,-353.67"/>
</g>
<!-- numpy -->
<g id="node22" class="node">
<title>numpy</title><style>.edge>path:hover{stroke-width:8}</style>
<polygon fill="blue" stroke="black" points="715.11,-1247.45 712.11,-1251.45 691.11,-1251.45 688.11,-1247.45 661.11,-1247.45 661.11,-1211.45 715.11,-1211.45 715.11,-1247.45"/>
<text text-anchor="middle" x="688.11" y="-1225.58" font-family="Helvetica,sans-Serif" font-size="10.00" fill="#fbf8ef">numpy</text>
</g>
<!-- numpy&#45;&gt;ff__cluster -->
<g id="edge32" class="edge">
<title>numpy&#45;&gt;ff__cluster</title><style>.edge>path:hover{stroke-width:8}</style>
<path fill="none" stroke="black" d="M117.11,-938.45C100.96,-925.15 85.22,-907.65 73.51,-893.48"/>
<polygon fill="blue" stroke="black" points="76.39,-891.48 67.38,-885.9 70.95,-895.88 76.39,-891.48"/>
</g>
<!-- numpy&#45;&gt;ff__inner -->
<g id="edge33" class="edge">
<title>numpy&#45;&gt;ff__inner</title><style>.edge>path:hover{stroke-width:8}</style>
<path fill="none" stroke="black" d="M258.11,-607.93C248.41,-568.95 216.92,-573.53 204.11,-535.45 194.69,-507.44 195.9,-473.34 198.56,-449.72"/>
<polygon fill="blue" stroke="black" points="202.01,-450.29 199.83,-439.92 195.07,-449.38 202.01,-450.29"/>
<path fill="none" stroke="black" d="M241.11,-1010.45C104.81,-895.7 280.53,-786.68 258.11,-609.93"/>
</g>
<!-- numpy&#45;&gt;ff__mean_risk -->
<g id="edge34" class="edge">
<title>numpy&#45;&gt;ff__mean_risk</title><style>.edge>path:hover{stroke-width:8}</style>
<path fill="none" stroke="black" d="M258.11,-607.93C252.93,-587.1 253.17,-562.8 254.57,-544.35"/>
<polygon fill="blue" stroke="black" points="258.06,-544.69 255.51,-534.41 251.09,-544.04 258.06,-544.69"/>
</g>
<!-- numpy&#45;&gt;ff__naive -->
<g id="edge35" class="edge">
<title>numpy&#45;&gt;ff__naive</title><style>.edge>path:hover{stroke-width:8}</style>
<path fill="none" stroke="black" d="M753.11,-1010.45C749.23,-999.81 742.68,-1000.87 734.11,-993.45 682.31,-948.61 661.38,-942.94 624.11,-885.45 570.81,-803.21 586.09,-767.87 538.11,-682.41 518.71,-647.84 484.99,-649.56 486.11,-609.93"/>
<path fill="none" stroke="black" d="M743.11,-1156.45C767.37,-1118.67 819.6,-1147.33 829.11,-1103.45"/>
<path fill="none" stroke="black" d="M829.11,-1102.45C840.21,-1051.29 771.74,-1061.38 753.11,-1012.45"/>
</g>
<!-- numpy&#45;&gt;ff__npo -->
<g id="edge36" class="edge">
<title>numpy&#45;&gt;ff__npo</title><style>.edge>path:hover{stroke-width:8}</style>
<path fill="none" stroke="black" d="M408.11,-1102.45C393.64,-1067.99 356.48,-1094.79 332.11,-1066.45"/>
<path fill="none" stroke="black" d="M117.11,-938.45C75.73,-905.22 38.1,-930.54 10.11,-885.45 1.68,-871.86 9.69,-865.44 10.11,-849.45 11.23,-807.16 8.57,-796.2 15.11,-754.41 18.89,-730.34 26.4,-725.62 29.11,-701.41"/>
<path fill="none" stroke="black" d="M660.63,-1227.28C598.53,-1222.9 449.54,-1202.11 408.11,-1103.45"/>
<path fill="none" stroke="black" d="M332.11,-1065.45C308.79,-1038.32 289.71,-1049.56 260.11,-1029.45 250.74,-1023.08 250.34,-1019.03 241.11,-1012.45"/>
<path fill="none" stroke="black" d="M241.11,-1010.45C189.58,-973.71 165.57,-981.16 117.11,-940.45"/>
<path fill="none" stroke="black" d="M29.11,-699.41C33.59,-607.7 18.9,-580.74 48.11,-493.7 53.6,-477.37 63.39,-460.91 72.45,-447.82"/>
<polygon fill="blue" stroke="black" points="75.25,-449.91 78.26,-439.75 69.57,-445.82 75.25,-449.91"/>
</g>
<!-- numpy&#45;&gt;ff__outer -->
<g id="edge37" class="edge">
<title>numpy&#45;&gt;ff__outer</title><style>.edge>path:hover{stroke-width:8}</style>
<path fill="none" stroke="black" d="M117.11,-938.45C90.78,-916.76 117.11,-819.04 117.11,-784.93 117.11,-784.93 117.11,-784.93 117.11,-699.41 117.11,-643.67 103.95,-579.58 95.36,-543.7"/>
<polygon fill="blue" stroke="black" points="98.79,-543.02 93.01,-534.14 91.99,-544.69 98.79,-543.02"/>
</g>
<!-- numpy&#45;&gt;ff__prior -->
<g id="edge38" class="edge">
<title>numpy&#45;&gt;ff__prior</title><style>.edge>path:hover{stroke-width:8}</style>
<path fill="none" stroke="black" d="M1050.11,-419.23C1023.17,-359.09 1013.49,-344.22 971.11,-293.75 910.68,-221.79 825.13,-151.25 779.21,-115.38"/>
<polygon fill="blue" stroke="black" points="781.55,-112.77 771.5,-109.4 777.26,-118.3 781.55,-112.77"/>
</g>
<!-- numpy&#45;&gt;ff_distance -->
<g id="edge39" class="edge">
<title>numpy&#45;&gt;ff_distance</title><style>.edge>path:hover{stroke-width:8}</style>
<path fill="none" stroke="black" d="M940.11,-938.45C946.06,-833.27 976.17,-800.4 940.11,-701.41"/>
<path fill="none" stroke="black" d="M940.11,-699.41C934.01,-675.69 918.59,-652.7 905.04,-635.97"/>
<polygon fill="blue" stroke="black" points="907.88,-633.9 898.75,-628.51 902.52,-638.41 907.88,-633.9"/>
</g>
<!-- numpy&#45;&gt;ff_moments_covariance__base -->
<g id="edge40" class="edge">
<title>numpy&#45;&gt;ff_moments_covariance__base</title><style>.edge>path:hover{stroke-width:8}</style>
<path fill="none" stroke="black" d="M940.11,-699.41C919.74,-620.18 963.37,-590.75 931.11,-515.58"/>
<path fill="none" stroke="black" d="M931.11,-513.58C912.8,-470.25 863.22,-446.45 823.33,-433.91"/>
<polygon fill="blue" stroke="black" points="824.4,-430.58 813.82,-431.1 822.42,-437.29 824.4,-430.58"/>
</g>
<!-- numpy&#45;&gt;ff_moments_covariance__empirical_covariance -->
<g id="edge41" class="edge">
<title>numpy&#45;&gt;ff_moments_covariance__empirical_covariance</title><style>.edge>path:hover{stroke-width:8}</style>
<path fill="none" stroke="black" d="M931.11,-513.58C904.46,-450.51 851.44,-390.56 815.87,-354.84"/>
<polygon fill="blue" stroke="black" points="818.76,-352.78 809.19,-348.23 813.84,-357.75 818.76,-352.78"/>
</g>
<!-- numpy&#45;&gt;ff_moments_covariance__ew_covariance -->
<g id="edge42" class="edge">
<title>numpy&#45;&gt;ff_moments_covariance__ew_covariance</title><style>.edge>path:hover{stroke-width:8}</style>
<path fill="none" stroke="black" d="M1050.11,-419.23C1035.73,-376.53 989.71,-350.91 952.04,-336.65"/>
<polygon fill="blue" stroke="black" points="953.69,-333.52 943.09,-333.43 951.32,-340.11 953.69,-333.52"/>
<path fill="none" stroke="black" d="M1050.11,-782.93C1033.67,-623.01 1101.44,-573.57 1050.11,-421.23"/>
</g>
<!-- numpy&#45;&gt;ff_moments_expected_returns__yield_mu -->
<g id="edge43" class="edge">
<title>numpy&#45;&gt;ff_moments_expected_returns__yield_mu</title><style>.edge>path:hover{stroke-width:8}</style>
<path fill="none" stroke="black" d="M940.11,-938.45C942.71,-892.6 856.68,-913.77 864.11,-868.45"/>
<path fill="none" stroke="black" d="M940.11,-1010.45C943.45,-979.52 938.36,-971.51 940.11,-940.45"/>
</g>
<!-- numpy&#45;&gt;ff_pre_selection__high_mu_high_sharpe -->
<g id="edge44" class="edge">
<title>numpy&#45;&gt;ff_pre_selection__high_mu_high_sharpe</title><style>.edge>path:hover{stroke-width:8}</style>
<path fill="none" stroke="black" d="M829.11,-1102.45C835.68,-1039.28 930.14,-1075.17 940.11,-1012.45"/>
<path fill="none" stroke="black" d="M940.11,-1010.45C946.07,-948.75 850.84,-1005.03 811.11,-957.45 785.19,-926.4 767.43,-900.49 792.11,-868.45"/>
</g>
<!-- numpy&#45;&gt;ff_pre_selection__maturity -->
<g id="edge45" class="edge">
<title>numpy&#45;&gt;ff_pre_selection__maturity</title><style>.edge>path:hover{stroke-width:8}</style>
<path fill="none" stroke="black" d="M753.11,-1010.45C741.52,-963.66 722.06,-958.42 691.11,-921.45 669.73,-895.91 629.05,-900.51 638.11,-868.45"/>
</g>
<!-- numpy&#45;&gt;ff_utils -->
<g id="edge46" class="edge">
<title>numpy&#45;&gt;ff_utils</title><style>.edge>path:hover{stroke-width:8}</style>
<path fill="none" stroke="black" d="M1050.11,-782.93C1046.48,-760.24 1031.46,-738.88 1018.04,-723.71"/>
<polygon fill="blue" stroke="black" points="1020.83,-721.57 1011.45,-716.65 1015.71,-726.35 1020.83,-721.57"/>
<path fill="none" stroke="black" d="M940.11,-938.45C943.76,-891.79 1004.11,-923.68 1031.11,-885.45 1057.35,-848.32 1057.31,-829.82 1050.11,-784.93"/>
</g>
<!-- scipy -->
<g id="node25" class="node">
<title>scipy</title><style>.edge>path:hover{stroke-width:8}</style>
<polygon fill="#06efef" stroke="black" points="715.11,-1175.45 712.11,-1179.45 691.11,-1179.45 688.11,-1175.45 661.11,-1175.45 661.11,-1139.45 715.11,-1139.45 715.11,-1175.45"/>
<text text-anchor="middle" x="688.11" y="-1153.58" font-family="Helvetica,sans-Serif" font-size="10.00" fill="#000000">scipy</text>
</g>
<!-- numpy&#45;&gt;scipy -->
<g id="edge47" class="edge">
<title>numpy&#45;&gt;scipy</title><style>.edge>path:hover{stroke-width:8}</style>
<path fill="none" stroke="black" d="M688.11,-1211.15C688.11,-1203.86 688.11,-1195.18 688.11,-1186.99"/>
<polygon fill="blue" stroke="black" points="691.61,-1187.07 688.11,-1177.07 684.61,-1187.07 691.61,-1187.07"/>
</g>
<!-- numpy&#45;&gt;skfolio -->
<g id="edge48" class="edge">
<title>numpy&#45;&gt;skfolio</title><style>.edge>path:hover{stroke-width:8}</style>
<path fill="none" stroke="black" d="M332.11,-1065.45C309.56,-1039.22 390.07,-1047.03 389.11,-1012.45"/>
<path fill="none" stroke="black" d="M389.11,-1010.45C387.15,-939.73 389.95,-856.51 391.77,-813.65"/>
<polygon fill="blue" stroke="black" points="395.26,-813.85 392.21,-803.7 388.27,-813.54 395.26,-813.85"/>
</g>
<!-- sklearn -->
<g id="node27" class="node">
<title>sklearn</title><style>.edge>path:hover{stroke-width:8}</style>
<polygon fill="blue" stroke="black" points="473.11,-1029.45 470.11,-1033.45 449.11,-1033.45 446.11,-1029.45 419.11,-1029.45 419.11,-993.45 473.11,-993.45 473.11,-1029.45"/>
<text text-anchor="middle" x="446.11" y="-1007.58" font-family="Helvetica,sans-Serif" font-size="10.00" fill="#fbf8ef">sklearn</text>
</g>
<!-- numpy&#45;&gt;sklearn -->
<g id="edge49" class="edge">
<title>numpy&#45;&gt;sklearn</title><style>.edge>path:hover{stroke-width:8}</style>
<path fill="none" stroke="black" d="M408.11,-1102.45C399.02,-1080.89 410.76,-1056.43 423.52,-1038.46"/>
<polygon fill="blue" stroke="black" points="426,-1040.99 429.27,-1030.91 420.43,-1036.75 426,-1040.99"/>
</g>
<!-- statsmodels -->
<g id="node28" class="node">
<title>statsmodels</title><style>.edge>path:hover{stroke-width:8}</style>
<polygon fill="#b526d9" stroke="black" points="724.74,-1029.45 721.74,-1033.45 700.74,-1033.45 697.74,-1029.45 655.49,-1029.45 655.49,-993.45 724.74,-993.45 724.74,-1029.45"/>
<text text-anchor="middle" x="690.11" y="-1007.58" font-family="Helvetica,sans-Serif" font-size="10.00" fill="#ffffff">statsmodels</text>
</g>
<!-- numpy&#45;&gt;statsmodels -->
<g id="edge50" class="edge">
<title>numpy&#45;&gt;statsmodels</title><style>.edge>path:hover{stroke-width:8}</style>
<path fill="none" stroke="black" d="M743.11,-1156.45C757.51,-1134.03 706.41,-1128.63 715.11,-1103.45"/>
<path fill="none" stroke="black" d="M703.34,-1211.02C714.97,-1197.26 731.01,-1177.31 743.11,-1158.45"/>
</g>
<!-- pandas -->
<g id="node23" class="node">
<title>pandas</title><style>.edge>path:hover{stroke-width:8}</style>
<polygon fill="#37f906" stroke="black" points="616.11,-1175.45 613.11,-1179.45 592.11,-1179.45 589.11,-1175.45 562.11,-1175.45 562.11,-1139.45 616.11,-1139.45 616.11,-1175.45"/>
<text text-anchor="middle" x="589.11" y="-1153.58" font-family="Helvetica,sans-Serif" font-size="10.00" fill="#000000">pandas</text>
</g>
<!-- pandas&#45;&gt;ff__mean_risk -->
<g id="edge51" class="edge">
<title>pandas&#45;&gt;ff__mean_risk</title><style>.edge>path:hover{stroke-width:8}</style>
<path fill="none" stroke="black" d="M561.71,-1150.03C531.7,-1142.18 482.94,-1126.95 446.11,-1103.45"/>
<path fill="none" stroke="black" d="M446.11,-1102.45C407.96,-1078.1 398.17,-1068.4 375.11,-1029.45 360.64,-1005 297.01,-813.18 300.11,-784.93"/>
</g>
<!-- pandas&#45;&gt;ff_moments_expected_returns__yield_mu -->
<g id="edge52" class="edge">
<title>pandas&#45;&gt;ff_moments_expected_returns__yield_mu</title><style>.edge>path:hover{stroke-width:8}</style>
<path fill="none" stroke="black" d="M446.11,-1065.45C445.98,-1042.82 467.14,-1046.41 482.11,-1029.45 508.94,-999.06 518.09,-992.7 538.11,-957.45 598.47,-851.23 544.04,-779.35 638.11,-701.41"/>
</g>
<!-- pandas&#45;&gt;ff_pre_selection__maturity -->
<g id="edge53" class="edge">
<title>pandas&#45;&gt;ff_pre_selection__maturity</title><style>.edge>path:hover{stroke-width:8}</style>
<path fill="none" stroke="black" d="M591.19,-1139.07C596.76,-1093.97 613.33,-969.69 638.11,-868.45"/>
</g>
<!-- pandas&#45;&gt;skfolio -->
<g id="edge54" class="edge">
<title>pandas&#45;&gt;skfolio</title><style>.edge>path:hover{stroke-width:8}</style>
<path fill="none" stroke="black" d="M446.11,-1065.45C445.9,-1030.86 390.07,-1047.03 389.11,-1012.45"/>
<path fill="none" stroke="black" d="M446.11,-1102.45C432.63,-1093.84 446.21,-1082.45 446.11,-1066.45"/>
</g>
<!-- pandas&#45;&gt;sklearn -->
<g id="edge55" class="edge">
<title>pandas&#45;&gt;sklearn</title><style>.edge>path:hover{stroke-width:8}</style>
<path fill="none" stroke="black" d="M446.11,-1065.45C446.07,-1057.51 446.05,-1048.89 446.05,-1040.97"/>
<polygon fill="#37f906" stroke="black" points="449.55,-1041.15 446.06,-1031.15 442.55,-1041.15 449.55,-1041.15"/>
</g>
<!-- pandas&#45;&gt;statsmodels -->
<g id="edge56" class="edge">
<title>pandas&#45;&gt;statsmodels</title><style>.edge>path:hover{stroke-width:8}</style>
<path fill="none" stroke="black" d="M715.11,-1102.45C722.12,-1081.75 714.82,-1057.89 706.33,-1039.95"/>
<polygon fill="#37f906" stroke="black" points="709.53,-1038.52 701.85,-1031.22 703.31,-1041.72 709.53,-1038.52"/>
<path fill="none" stroke="black" d="M616.42,-1147.36C652.43,-1135.03 711.67,-1113.4 715.11,-1103.45"/>
</g>
<!-- prophet -->
<g id="node24" class="node">
<title>prophet</title><style>.edge>path:hover{stroke-width:8}</style>
<polygon fill="#40c073" stroke="black" points="874.11,-957.45 871.11,-961.45 850.11,-961.45 847.11,-957.45 820.11,-957.45 820.11,-921.45 874.11,-921.45 874.11,-957.45"/>
<text text-anchor="middle" x="847.11" y="-935.58" font-family="Helvetica,sans-Serif" font-size="10.00" fill="#000000">prophet</text>
</g>
<!-- prophet&#45;&gt;ff_moments_expected_returns__yield_mu -->
<g id="edge57" class="edge">
<title>prophet&#45;&gt;ff_moments_expected_returns__yield_mu</title><style>.edge>path:hover{stroke-width:8}</style>
<path fill="none" stroke="black" d="M849.82,-921.02C852.42,-906.57 857.02,-885.68 864.11,-868.45"/>
</g>
<!-- scipy&#45;&gt;ff_distance -->
<g id="edge58" class="edge">
<title>scipy&#45;&gt;ff_distance</title><style>.edge>path:hover{stroke-width:8}</style>
<path fill="none" stroke="black" d="M714.3,-1138.99C758.01,-1108.2 844.81,-1039.66 883.11,-957.45 933.65,-849.01 904.7,-700.07 889.08,-638.42"/>
<polygon fill="#06efef" stroke="black" points="892.47,-637.55 886.54,-628.76 885.7,-639.32 892.47,-637.55"/>
</g>
<!-- scipy&#45;&gt;skfolio -->
<g id="edge59" class="edge">
<title>scipy&#45;&gt;skfolio</title><style>.edge>path:hover{stroke-width:8}</style>
<path fill="none" stroke="black" d="M674.28,-1139.03C626.86,-1079.31 470.67,-882.6 413.94,-811.15"/>
<polygon fill="#06efef" stroke="black" points="416.82,-809.15 407.86,-803.5 411.34,-813.5 416.82,-809.15"/>
</g>
<!-- scipy&#45;&gt;sklearn -->
<g id="edge60" class="edge">
<title>scipy&#45;&gt;sklearn</title><style>.edge>path:hover{stroke-width:8}</style>
<path fill="none" stroke="black" d="M660.82,-1140.21C617.32,-1114.32 532.16,-1063.65 483.18,-1034.51"/>
<polygon fill="#06efef" stroke="black" points="484.99,-1031.51 474.61,-1029.4 481.41,-1037.52 484.99,-1031.51"/>
</g>
<!-- scipy&#45;&gt;statsmodels -->
<g id="edge61" class="edge">
<title>scipy&#45;&gt;statsmodels</title><style>.edge>path:hover{stroke-width:8}</style>
<path fill="none" stroke="black" d="M698.44,-1139.34C704.13,-1129.22 710.88,-1115.97 715.11,-1103.45"/>
</g>
<!-- skfolio&#45;&gt;ff__inner -->
<g id="edge62" class="edge">
<title>skfolio&#45;&gt;ff__inner</title><style>.edge>path:hover{stroke-width:8}</style>
<path fill="none" stroke="black" d="M410.11,-607.93C391.11,-522.22 295.1,-464.23 240.76,-437.71"/>
<polygon fill="blue" stroke="black" points="242.38,-434.61 231.85,-433.48 239.38,-440.93 242.38,-434.61"/>
</g>
<!-- skfolio&#45;&gt;ff__mean_risk -->
<g id="edge63" class="edge">
<title>skfolio&#45;&gt;ff__mean_risk</title><style>.edge>path:hover{stroke-width:8}</style>
<path fill="none" stroke="black" d="M410.11,-699.41C414.1,-659.84 418.72,-648.75 410.11,-609.93"/>
<path fill="none" stroke="black" d="M410.11,-607.93C400,-562.33 348.76,-538.37 308.54,-526.4"/>
<polygon fill="blue" stroke="black" points="309.55,-523.05 298.98,-523.74 307.68,-529.8 309.55,-523.05"/>
</g>
<!-- skfolio&#45;&gt;ff__naive -->
<g id="edge64" class="edge">
<title>skfolio&#45;&gt;ff__naive</title><style>.edge>path:hover{stroke-width:8}</style>
<path fill="none" stroke="black" d="M486.11,-607.93C486.77,-584.89 495.74,-560.31 504.01,-542.3"/>
<polygon fill="blue" stroke="black" points="507.12,-543.9 508.33,-533.37 500.82,-540.85 507.12,-543.9"/>
<path fill="none" stroke="black" d="M410.11,-699.41C415.34,-647.49 484.63,-662.09 486.11,-609.93"/>
</g>
<!-- skfolio&#45;&gt;ff__npo -->
<g id="edge65" class="edge">
<title>skfolio&#45;&gt;ff__npo</title><style>.edge>path:hover{stroke-width:8}</style>
<path fill="none" stroke="black" d="M397.83,-765.6C402.04,-749.21 407.85,-723.85 410.11,-701.41"/>
<path fill="none" stroke="black" d="M410.11,-699.41C413.42,-666.57 378.8,-672.12 358.11,-646.41 333.17,-615.4 340.53,-595.89 309.11,-571.45 270.17,-541.17 245.78,-561.87 204.11,-535.45 166.67,-511.72 132.6,-472.92 112.35,-447.22"/>
<polygon fill="blue" stroke="black" points="115.35,-445.38 106.46,-439.6 109.81,-449.66 115.35,-445.38"/>
</g>
<!-- skfolio&#45;&gt;ff__outer -->
<g id="edge66" class="edge">
<title>skfolio&#45;&gt;ff__outer</title><style>.edge>path:hover{stroke-width:8}</style>
<path fill="none" stroke="black" d="M384.12,-765.55C359.11,-717.46 289.4,-585.23 272.11,-571.45 260.59,-562.26 177.36,-539.15 126.87,-525.71"/>
<polygon fill="blue" stroke="black" points="128.05,-522.4 117.49,-523.22 126.26,-529.17 128.05,-522.4"/>
</g>
<!-- skfolio&#45;&gt;ff__prior -->
<g id="edge67" class="edge">
<title>skfolio&#45;&gt;ff__prior</title><style>.edge>path:hover{stroke-width:8}</style>
<path fill="none" stroke="black" d="M458.11,-513.58C487.37,-482.44 596.43,-200.92 616.11,-163"/>
<path fill="none" stroke="black" d="M410.11,-607.93C398.11,-563.26 425.68,-548.56 458.11,-515.58"/>
<path fill="none" stroke="black" d="M616.11,-161C629.04,-122.82 675.03,-105.16 708.88,-97.21"/>
<polygon fill="blue" stroke="black" points="709.3,-100.69 718.35,-95.18 707.84,-93.85 709.3,-100.69"/>
</g>
<!-- skfolio&#45;&gt;ff_distance -->
<g id="edge68" class="edge">
<title>skfolio&#45;&gt;ff_distance</title><style>.edge>path:hover{stroke-width:8}</style>
<path fill="none" stroke="black" d="M420.23,-780.23C468.98,-774.53 573.64,-758.33 652.11,-718.41 674.33,-707.11 673.66,-695.1 695.11,-682.41 701.64,-678.55 786.21,-646.08 839.04,-625.93"/>
<polygon fill="blue" stroke="black" points="840.28,-629.2 848.38,-622.37 837.79,-622.66 840.28,-629.2"/>
</g>
<!-- skfolio&#45;&gt;ff_moments_covariance__base -->
<g id="edge69" class="edge">
<title>skfolio&#45;&gt;ff_moments_covariance__base</title><style>.edge>path:hover{stroke-width:8}</style>
<path fill="none" stroke="black" d="M458.11,-513.58C466.48,-504.67 466.55,-499.84 477.11,-493.7 550.14,-451.27 647.54,-433.49 708.79,-426.18"/>
<polygon fill="blue" stroke="black" points="709.12,-429.66 718.66,-425.06 708.33,-422.71 709.12,-429.66"/>
</g>
<!-- skfolio&#45;&gt;ff_moments_expected_returns__yield_mu -->
<g id="edge70" class="edge">
<title>skfolio&#45;&gt;ff_moments_expected_returns__yield_mu</title><style>.edge>path:hover{stroke-width:8}</style>
<path fill="none" stroke="black" d="M420.49,-780.3C469.34,-774.33 572.53,-755.75 638.11,-701.41"/>
<path fill="none" stroke="black" d="M638.11,-699.41C653.9,-686.33 668.62,-669.32 680.59,-653.65"/>
<polygon fill="blue" stroke="black" points="683.24,-655.95 686.39,-645.83 677.62,-651.77 683.24,-655.95"/>
</g>
<!-- sklearn&#45;&gt;ff__cluster -->
<g id="edge71" class="edge">
<title>sklearn&#45;&gt;ff__cluster</title><style>.edge>path:hover{stroke-width:8}</style>
<path fill="none" stroke="black" d="M418.86,-1000.58C350.54,-975.83 171.8,-911.08 92.71,-882.43"/>
<polygon fill="blue" stroke="black" points="94.25,-879.27 83.66,-879.15 91.87,-885.85 94.25,-879.27"/>
</g>
<!-- sklearn&#45;&gt;ff__mean_risk -->
<g id="edge72" class="edge">
<title>sklearn&#45;&gt;ff__mean_risk</title><style>.edge>path:hover{stroke-width:8}</style>
<path fill="none" stroke="black" d="M410.11,-866.45C399.08,-835.02 369.86,-844.23 357.11,-813.45 322.41,-729.66 402.35,-695.44 372.11,-609.93"/>
<path fill="none" stroke="black" d="M447.06,-993.17C447.66,-979 448.16,-958.41 447.11,-940.45"/>
<path fill="none" stroke="black" d="M447.11,-938.45C445.07,-903.32 420.84,-901.97 410.11,-868.45"/>
</g>
<!-- sklearn&#45;&gt;ff__naive -->
<g id="edge73" class="edge">
<title>sklearn&#45;&gt;ff__naive</title><style>.edge>path:hover{stroke-width:8}</style>
<path fill="none" stroke="black" d="M524.11,-699.41C528.9,-656.47 484.89,-653.12 486.11,-609.93"/>
<path fill="none" stroke="black" d="M447.11,-938.45C447.88,-883.07 517.97,-756.45 524.11,-701.41"/>
</g>
<!-- sklearn&#45;&gt;ff__npo -->
<g id="edge74" class="edge">
<title>sklearn&#45;&gt;ff__npo</title><style>.edge>path:hover{stroke-width:8}</style>
<path fill="none" stroke="black" d="M410.11,-866.45C402.49,-842.62 424.83,-838.1 429.11,-813.45 439.28,-754.94 448.26,-616.1 424.11,-571.45 364.71,-461.57 284.42,-500.61 167.11,-457.7 154.96,-453.26 142.17,-447.41 130.7,-441.7"/>
<polygon fill="blue" stroke="black" points="132.45,-438.66 121.95,-437.23 129.26,-444.89 132.45,-438.66"/>
</g>
<!-- sklearn&#45;&gt;ff__prior -->
<g id="edge75" class="edge">
<title>sklearn&#45;&gt;ff__prior</title><style>.edge>path:hover{stroke-width:8}</style>
<path fill="none" stroke="black" d="M524.11,-699.41C527.83,-624.99 545.69,-608.74 559.11,-535.45 574.19,-453.09 589.27,-242.31 616.11,-163"/>
</g>
<!-- sklearn&#45;&gt;ff_moments_covariance__base -->
<g id="edge76" class="edge">
<title>sklearn&#45;&gt;ff_moments_covariance__base</title><style>.edge>path:hover{stroke-width:8}</style>
<path fill="none" stroke="black" d="M463.51,-992.95C478.77,-978.08 501.91,-956.64 524.11,-940.45"/>
<path fill="none" stroke="black" d="M524.11,-938.45C557.44,-914.15 536.45,-793.97 548.11,-754.41 573.58,-668.05 567.52,-630.93 635.11,-571.45 673.73,-537.47 711.1,-574.05 745.11,-535.45 760.86,-517.58 766.77,-491.93 768.56,-469.47"/>
<polygon fill="blue" stroke="black" points="772.05,-469.75 769.07,-459.58 765.06,-469.38 772.05,-469.75"/>
</g>
<!-- sklearn&#45;&gt;ff_pre_selection__high_mu_high_sharpe -->
<g id="edge77" class="edge">
<title>sklearn&#45;&gt;ff_pre_selection__high_mu_high_sharpe</title><style>.edge>path:hover{stroke-width:8}</style>
<path fill="none" stroke="black" d="M792.11,-866.45C803.13,-852.14 808.17,-832.59 810.44,-816.21"/>
<polygon fill="blue" stroke="black" points="813.89,-816.79 811.48,-806.48 806.93,-816.05 813.89,-816.79"/>
<path fill="none" stroke="black" d="M524.11,-938.45C623.59,-865.92 716.99,-965.98 792.11,-868.45"/>
</g>
<!-- sklearn&#45;&gt;ff_pre_selection__maturity -->
<g id="edge78" class="edge">
<title>sklearn&#45;&gt;ff_pre_selection__maturity</title><style>.edge>path:hover{stroke-width:8}</style>
<path fill="none" stroke="black" d="M638.11,-866.45C641.92,-850.89 649.43,-835.1 657.18,-821.61"/>
<polygon fill="blue" stroke="black" points="660.16,-823.45 662.32,-813.08 654.16,-819.84 660.16,-823.45"/>
<path fill="none" stroke="black" d="M524.11,-938.45C572.16,-903.42 623.97,-926.2 638.11,-868.45"/>
</g>
<!-- sklearn&#45;&gt;skfolio -->
<g id="edge79" class="edge">
<title>sklearn&#45;&gt;skfolio</title><style>.edge>path:hover{stroke-width:8}</style>
<path fill="none" stroke="black" d="M410.11,-866.45C404.08,-849.28 399.87,-829.28 397.15,-813.38"/>
<polygon fill="blue" stroke="black" points="400.63,-812.96 395.59,-803.64 393.71,-814.07 400.63,-812.96"/>
</g>
<!-- statsmodels&#45;&gt;ff_moments_expected_returns__yield_mu -->
<g id="edge80" class="edge">
<title>statsmodels&#45;&gt;ff_moments_expected_returns__yield_mu</title><style>.edge>path:hover{stroke-width:8}</style>
<path fill="none" stroke="black" d="M713.81,-993.1C759.71,-959.22 856.88,-886.03 864.11,-868.45"/>
<path fill="none" stroke="black" d="M864.11,-866.45C876.21,-817.69 900.14,-800.04 879.11,-754.41 856.33,-704.96 807.35,-666.14 767.96,-641.25"/>
<polygon fill="#b526d9" stroke="black" points="769.81,-638.28 759.46,-636.02 766.14,-644.24 769.81,-638.28"/>
</g>
<!-- tqdm -->
<g id="node29" class="node">
<title>tqdm</title><style>.edge>path:hover{stroke-width:8}</style>
<polygon fill="#b6538e" stroke="black" points="1022.11,-885.45 1019.11,-889.45 998.11,-889.45 995.11,-885.45 968.11,-885.45 968.11,-849.45 1022.11,-849.45 1022.11,-885.45"/>
<text text-anchor="middle" x="995.11" y="-863.58" font-family="Helvetica,sans-Serif" font-size="10.00" fill="#ffffff">tqdm</text>
</g>
<!-- tqdm&#45;&gt;ff_utils -->
<g id="edge81" class="edge">
<title>tqdm&#45;&gt;ff_utils</title><style>.edge>path:hover{stroke-width:8}</style>
<path fill="none" stroke="black" d="M995.11,-849.1C995.11,-820.74 995.11,-764.21 995.11,-729.9"/>
<polygon fill="#b6538e" stroke="black" points="998.61,-730.29 995.11,-720.29 991.61,-730.29 998.61,-730.29"/>
</g>
</g>
</svg>
