<?xml version="1.0" encoding="UTF-8" standalone="no"?>
<!DOCTYPE svg PUBLIC "-//W3C//DTD SVG 1.1//EN"
 "http://www.w3.org/Graphics/SVG/1.1/DTD/svg11.dtd">
<!-- Generated by graphviz version 12.2.1 (20241206.2353)
 -->
<!-- Title: G Pages: 1 -->
<svg width="1148pt" height="1250pt"
 viewBox="0.00 0.00 1147.92 1249.70" xmlns="http://www.w3.org/2000/svg" xmlns:xlink="http://www.w3.org/1999/xlink">
<g id="graph0" class="graph" transform="scale(1 1) rotate(0) translate(4 1245.7)">
<title>G</title><style>.edge>path:hover{stroke-width:8}</style>
<polygon fill="#fbf8ef" stroke="none" points="-4,4 -4,-1245.7 1143.92,-1245.7 1143.92,4 -4,4"/>
<!-- ff -->
<g id="node1" class="node">
<title>ff</title><style>.edge>path:hover{stroke-width:8}</style>
<polygon fill="blue" stroke="black" points="691.79,-36 637.79,-36 637.79,0 691.79,0 691.79,-36"/>
<text text-anchor="middle" x="664.79" y="-14.12" font-family="Helvetica,sans-Serif" font-size="10.00" fill="#fbf8ef">ff</text>
</g>
<!-- ff__cluster -->
<g id="node2" class="node">
<title>ff__cluster</title><style>.edge>path:hover{stroke-width:8}</style>
<ellipse fill="#b42d2d" stroke="black" cx="755.79" cy="-789.7" rx="35.21" ry="18"/>
<text text-anchor="middle" x="755.79" y="-785.83" font-family="Helvetica,sans-Serif" font-size="10.00" fill="#ffffff">ff._cluster</text>
</g>
<!-- ff__cluster&#45;&gt;ff -->
<g id="edge1" class="edge">
<title>ff__cluster&#45;&gt;ff</title><style>.edge>path:hover{stroke-width:8}</style>
<path fill="none" stroke="black" d="M770.43,-772.93C779.23,-762.85 790.15,-749.19 797.79,-735.7 880.39,-589.83 858.63,-534.06 930.79,-382.75 944.42,-354.16 968.26,-352.89 966.79,-321.25"/>
<path fill="none" stroke="black" d="M966.79,-319.25C958.75,-249.86 942.94,-232.52 949.79,-163"/>
</g>
<!-- ff__npo -->
<g id="node5" class="node">
<title>ff__npo</title><style>.edge>path:hover{stroke-width:8}</style>
<polygon fill="blue" stroke="black" points="413.79,-438.23 359.79,-438.23 359.79,-402.23 413.79,-402.23 413.79,-438.23"/>
<text text-anchor="middle" x="386.79" y="-416.35" font-family="Helvetica,sans-Serif" font-size="10.00" fill="#fbf8ef">ff._npo</text>
</g>
<!-- ff__cluster&#45;&gt;ff__npo -->
<g id="edge2" class="edge">
<title>ff__cluster&#45;&gt;ff__npo</title><style>.edge>path:hover{stroke-width:8}</style>
<path fill="none" stroke="black" d="M748.33,-771.77C728.29,-727.57 669.77,-606.37 595.79,-524.23"/>
</g>
<!-- ff__inner -->
<g id="node3" class="node">
<title>ff__inner</title><style>.edge>path:hover{stroke-width:8}</style>
<polygon fill="blue" stroke="black" points="993.79,-438.23 939.79,-438.23 939.79,-402.23 993.79,-402.23 993.79,-438.23"/>
<text text-anchor="middle" x="966.79" y="-416.35" font-family="Helvetica,sans-Serif" font-size="10.00" fill="#fbf8ef">ff._inner</text>
</g>
<!-- ff__inner&#45;&gt;ff -->
<g id="edge3" class="edge">
<title>ff__inner&#45;&gt;ff</title><style>.edge>path:hover{stroke-width:8}</style>
<path fill="none" stroke="black" d="M967.18,-401.87C967.54,-382.29 967.85,-349.47 966.79,-321.25"/>
</g>
<!-- ff__mean_risk -->
<g id="node4" class="node">
<title>ff__mean_risk</title><style>.edge>path:hover{stroke-width:8}</style>
<ellipse fill="#7a1e1e" stroke="black" cx="1094.79" cy="-523.23" rx="44.53" ry="18"/>
<text text-anchor="middle" x="1094.79" y="-519.35" font-family="Helvetica,sans-Serif" font-size="10.00" fill="#ffffff">ff._mean_risk</text>
</g>
<!-- ff__mean_risk&#45;&gt;ff -->
<g id="edge4" class="edge">
<title>ff__mean_risk&#45;&gt;ff</title><style>.edge>path:hover{stroke-width:8}</style>
<path fill="none" stroke="black" d="M1083.9,-505.62C1053,-458.44 966.99,-326.68 966.79,-321.25"/>
</g>
<!-- ff__mean_risk&#45;&gt;ff__inner -->
<g id="edge5" class="edge">
<title>ff__mean_risk&#45;&gt;ff__inner</title><style>.edge>path:hover{stroke-width:8}</style>
<path fill="none" stroke="black" d="M1073.29,-507.1C1055.44,-494.34 1029.53,-475.38 1007.79,-457.7 1003.29,-454.04 998.6,-450.06 994.08,-446.11"/>
<polygon fill="#7a1e1e" stroke="black" points="996.61,-443.68 986.81,-439.66 991.97,-448.91 996.61,-443.68"/>
</g>
<!-- ff__npo&#45;&gt;ff -->
<g id="edge6" class="edge">
<title>ff__npo&#45;&gt;ff</title><style>.edge>path:hover{stroke-width:8}</style>
<path fill="none" stroke="black" d="M385.39,-401.79C384.13,-382.12 383.01,-349.23 386.79,-321.25"/>
</g>
<!-- ff__outer -->
<g id="node6" class="node">
<title>ff__outer</title><style>.edge>path:hover{stroke-width:8}</style>
<ellipse fill="#ac2b2b" stroke="black" cx="422.79" cy="-523.23" rx="30.77" ry="18"/>
<text text-anchor="middle" x="422.79" y="-519.35" font-family="Helvetica,sans-Serif" font-size="10.00" fill="#ffffff">ff._outer</text>
</g>
<!-- ff__outer&#45;&gt;ff -->
<g id="edge7" class="edge">
<title>ff__outer&#45;&gt;ff</title><style>.edge>path:hover{stroke-width:8}</style>
<path fill="none" stroke="black" d="M401.26,-510.02C384.01,-498.89 361.06,-480.69 350.79,-457.7 337.2,-427.29 342.07,-414.9 350.79,-382.75 359.08,-352.18 382.55,-352.64 386.79,-321.25"/>
<path fill="none" stroke="black" d="M386.79,-319.25C393.67,-250.15 349.31,-221.46 386.79,-163"/>
</g>
<!-- ff__outer&#45;&gt;ff__npo -->
<g id="edge8" class="edge">
<title>ff__outer&#45;&gt;ff__npo</title><style>.edge>path:hover{stroke-width:8}</style>
<path fill="none" stroke="black" d="M416.68,-505.09C411.23,-489.78 403.13,-467.07 396.74,-449.14"/>
<polygon fill="#ac2b2b" stroke="black" points="400.09,-448.11 393.44,-439.87 393.5,-450.46 400.09,-448.11"/>
</g>
<!-- ff__prior -->
<g id="node7" class="node">
<title>ff__prior</title><style>.edge>path:hover{stroke-width:8}</style>
<polygon fill="blue" stroke="black" points="691.79,-108 637.79,-108 637.79,-72 691.79,-72 691.79,-108"/>
<text text-anchor="middle" x="664.79" y="-86.12" font-family="Helvetica,sans-Serif" font-size="10.00" fill="#fbf8ef">ff._prior</text>
</g>
<!-- ff__prior&#45;&gt;ff -->
<g id="edge9" class="edge">
<title>ff__prior&#45;&gt;ff</title><style>.edge>path:hover{stroke-width:8}</style>
<path fill="none" stroke="black" d="M664.79,-71.7C664.79,-64.41 664.79,-55.73 664.79,-47.54"/>
<polygon fill="blue" stroke="black" points="668.29,-47.62 664.79,-37.62 661.29,-47.62 668.29,-47.62"/>
</g>
<!-- ff_distance -->
<g id="node8" class="node">
<title>ff_distance</title><style>.edge>path:hover{stroke-width:8}</style>
<polygon fill="blue" stroke="black" points="415.67,-644.22 353.92,-644.22 353.92,-608.22 415.67,-608.22 415.67,-644.22"/>
<text text-anchor="middle" x="384.79" y="-622.35" font-family="Helvetica,sans-Serif" font-size="10.00" fill="#fbf8ef">ff.distance</text>
</g>
<!-- ff_distance&#45;&gt;ff -->
<g id="edge10" class="edge">
<title>ff_distance&#45;&gt;ff</title><style>.edge>path:hover{stroke-width:8}</style>
<path fill="none" stroke="black" d="M363.86,-607.99C356.32,-601.85 347.72,-594.93 339.79,-588.75 318.76,-572.35 312.07,-570.06 291.79,-552.75 159.8,-440.03 -73.68,-347.61 60.79,-237.88"/>
</g>
<!-- ff_moments -->
<g id="node9" class="node">
<title>ff_moments</title><style>.edge>path:hover{stroke-width:8}</style>
<polygon fill="blue" stroke="black" points="809.54,-180 744.04,-180 744.04,-144 809.54,-144 809.54,-180"/>
<text text-anchor="middle" x="776.79" y="-158.12" font-family="Helvetica,sans-Serif" font-size="10.00" fill="#fbf8ef">ff.moments</text>
</g>
<!-- ff_moments&#45;&gt;ff -->
<g id="edge11" class="edge">
<title>ff_moments&#45;&gt;ff</title><style>.edge>path:hover{stroke-width:8}</style>
<path fill="none" stroke="black" d="M949.79,-89C938.77,-40.48 778.69,-25.25 703.4,-20.76"/>
<polygon fill="blue" stroke="black" points="703.77,-17.27 693.59,-20.21 703.38,-24.26 703.77,-17.27"/>
<path fill="none" stroke="black" d="M809.78,-161.38C863.66,-160.31 963.28,-150.4 949.79,-91"/>
</g>
<!-- ff_moments&#45;&gt;ff__prior -->
<g id="edge12" class="edge">
<title>ff_moments&#45;&gt;ff__prior</title><style>.edge>path:hover{stroke-width:8}</style>
<path fill="none" stroke="black" d="M748.82,-143.52C734.57,-134.61 717.07,-123.67 701.73,-114.09"/>
<polygon fill="blue" stroke="black" points="703.64,-111.15 693.3,-108.82 699.93,-117.09 703.64,-111.15"/>
</g>
<!-- ff_moments_covariance -->
<g id="node10" class="node">
<title>ff_moments_covariance</title><style>.edge>path:hover{stroke-width:8}</style>
<polygon fill="blue" stroke="black" points="358.42,-257.75 295.17,-257.75 295.17,-216 358.42,-216 358.42,-257.75"/>
<text text-anchor="middle" x="326.79" y="-244.25" font-family="Helvetica,sans-Serif" font-size="10.00" fill="#fbf8ef">ff.</text>
<text text-anchor="middle" x="326.79" y="-233" font-family="Helvetica,sans-Serif" font-size="10.00" fill="#fbf8ef">moments.</text>
<text text-anchor="middle" x="326.79" y="-221.75" font-family="Helvetica,sans-Serif" font-size="10.00" fill="#fbf8ef">covariance</text>
</g>
<!-- ff_moments_covariance&#45;&gt;ff__prior -->
<g id="edge13" class="edge">
<title>ff_moments_covariance&#45;&gt;ff__prior</title><style>.edge>path:hover{stroke-width:8}</style>
<path fill="none" stroke="black" d="M353.38,-215.69C381.02,-194.77 420.82,-164.86 424.79,-163"/>
</g>
<!-- ff_moments_covariance&#45;&gt;ff_moments -->
<g id="edge14" class="edge">
<title>ff_moments_covariance&#45;&gt;ff_moments</title><style>.edge>path:hover{stroke-width:8}</style>
<path fill="none" stroke="black" d="M358.79,-230.69C437.76,-217.9 642.02,-184.83 732.52,-170.17"/>
<polygon fill="blue" stroke="black" points="732.93,-173.65 742.25,-168.59 731.81,-166.74 732.93,-173.65"/>
</g>
<!-- ff_moments_covariance__base -->
<g id="node11" class="node">
<title>ff_moments_covariance__base</title><style>.edge>path:hover{stroke-width:8}</style>
<ellipse fill="#9c1b1b" stroke="black" cx="249.79" cy="-420.23" rx="46.85" ry="37.48"/>
<text text-anchor="middle" x="249.79" y="-433.23" font-family="Helvetica,sans-Serif" font-size="10.00" fill="#ffffff">ff.</text>
<text text-anchor="middle" x="249.79" y="-421.98" font-family="Helvetica,sans-Serif" font-size="10.00" fill="#ffffff">moments.</text>
<text text-anchor="middle" x="249.79" y="-410.73" font-family="Helvetica,sans-Serif" font-size="10.00" fill="#ffffff">covariance.</text>
<text text-anchor="middle" x="249.79" y="-399.48" font-family="Helvetica,sans-Serif" font-size="10.00" fill="#ffffff">_base</text>
</g>
<!-- ff_moments_covariance__base&#45;&gt;ff_moments_covariance -->
<g id="edge15" class="edge">
<title>ff_moments_covariance__base&#45;&gt;ff_moments_covariance</title><style>.edge>path:hover{stroke-width:8}</style>
<path fill="none" stroke="black" d="M281.36,-392.3C293.9,-379.78 307.13,-363.88 314.79,-346.75 325.71,-322.32 328.25,-291.85 328.33,-269.37"/>
<polygon fill="#9c1b1b" stroke="black" points="331.83,-269.56 328.18,-259.61 324.83,-269.66 331.83,-269.56"/>
</g>
<!-- ff_moments_covariance__empirical_covariance -->
<g id="node12" class="node">
<title>ff_moments_covariance__empirical_covariance</title><style>.edge>path:hover{stroke-width:8}</style>
<polygon fill="blue" stroke="black" points="306.17,-346.75 193.42,-346.75 193.42,-293.75 306.17,-293.75 306.17,-346.75"/>
<text text-anchor="middle" x="249.79" y="-333.25" font-family="Helvetica,sans-Serif" font-size="10.00" fill="#fbf8ef">ff.</text>
<text text-anchor="middle" x="249.79" y="-322" font-family="Helvetica,sans-Serif" font-size="10.00" fill="#fbf8ef">moments.</text>
<text text-anchor="middle" x="249.79" y="-310.75" font-family="Helvetica,sans-Serif" font-size="10.00" fill="#fbf8ef">covariance.</text>
<text text-anchor="middle" x="249.79" y="-299.5" font-family="Helvetica,sans-Serif" font-size="10.00" fill="#fbf8ef">_empirical_covariance</text>
</g>
<!-- ff_moments_covariance__base&#45;&gt;ff_moments_covariance__empirical_covariance -->
<g id="edge16" class="edge">
<title>ff_moments_covariance__base&#45;&gt;ff_moments_covariance__empirical_covariance</title><style>.edge>path:hover{stroke-width:8}</style>
<path fill="none" stroke="black" d="M249.79,-382.47C249.79,-374.68 249.79,-366.45 249.79,-358.64"/>
<polygon fill="#9c1b1b" stroke="black" points="253.29,-358.73 249.79,-348.73 246.29,-358.73 253.29,-358.73"/>
</g>
<!-- ff_moments_covariance__ew_covariance -->
<g id="node13" class="node">
<title>ff_moments_covariance__ew_covariance</title><style>.edge>path:hover{stroke-width:8}</style>
<polygon fill="blue" stroke="black" points="175.04,-346.75 88.54,-346.75 88.54,-293.75 175.04,-293.75 175.04,-346.75"/>
<text text-anchor="middle" x="131.79" y="-333.25" font-family="Helvetica,sans-Serif" font-size="10.00" fill="#fbf8ef">ff.</text>
<text text-anchor="middle" x="131.79" y="-322" font-family="Helvetica,sans-Serif" font-size="10.00" fill="#fbf8ef">moments.</text>
<text text-anchor="middle" x="131.79" y="-310.75" font-family="Helvetica,sans-Serif" font-size="10.00" fill="#fbf8ef">covariance.</text>
<text text-anchor="middle" x="131.79" y="-299.5" font-family="Helvetica,sans-Serif" font-size="10.00" fill="#fbf8ef">_ew_covariance</text>
</g>
<!-- ff_moments_covariance__base&#45;&gt;ff_moments_covariance__ew_covariance -->
<g id="edge17" class="edge">
<title>ff_moments_covariance__base&#45;&gt;ff_moments_covariance__ew_covariance</title><style>.edge>path:hover{stroke-width:8}</style>
<path fill="none" stroke="black" d="M217.55,-392.45C203.29,-380.61 186.38,-366.58 171.36,-354.11"/>
<polygon fill="#9c1b1b" stroke="black" points="173.87,-351.64 163.94,-347.94 169.4,-357.02 173.87,-351.64"/>
</g>
<!-- ff_moments_covariance__empirical_covariance&#45;&gt;ff_moments_covariance -->
<g id="edge18" class="edge">
<title>ff_moments_covariance__empirical_covariance&#45;&gt;ff_moments_covariance</title><style>.edge>path:hover{stroke-width:8}</style>
<path fill="none" stroke="black" d="M274.15,-293.5C282.37,-284.82 291.58,-275.09 299.97,-266.22"/>
<polygon fill="blue" stroke="black" points="302.34,-268.81 306.67,-259.14 297.25,-264 302.34,-268.81"/>
</g>
<!-- ff_moments_covariance__ew_covariance&#45;&gt;ff_moments_covariance -->
<g id="edge19" class="edge">
<title>ff_moments_covariance__ew_covariance&#45;&gt;ff_moments_covariance</title><style>.edge>path:hover{stroke-width:8}</style>
<path fill="none" stroke="black" d="M175.35,-297.98C178.53,-296.52 181.7,-295.1 184.79,-293.75 217.8,-279.34 255.8,-264.48 284.17,-253.7"/>
<polygon fill="blue" stroke="black" points="285.4,-256.98 293.52,-250.18 282.93,-250.44 285.4,-256.98"/>
</g>
<!-- ff_moments_expected_returns -->
<g id="node14" class="node">
<title>ff_moments_expected_returns</title><style>.edge>path:hover{stroke-width:8}</style>
<polygon fill="blue" stroke="black" points="993.29,-544.1 902.29,-544.1 902.29,-502.35 993.29,-502.35 993.29,-544.1"/>
<text text-anchor="middle" x="947.79" y="-530.6" font-family="Helvetica,sans-Serif" font-size="10.00" fill="#fbf8ef">ff.</text>
<text text-anchor="middle" x="947.79" y="-519.35" font-family="Helvetica,sans-Serif" font-size="10.00" fill="#fbf8ef">moments.</text>
<text text-anchor="middle" x="947.79" y="-508.1" font-family="Helvetica,sans-Serif" font-size="10.00" fill="#fbf8ef">expected_returns</text>
</g>
<!-- ff_moments_expected_returns&#45;&gt;ff_moments -->
<g id="edge20" class="edge">
<title>ff_moments_expected_returns&#45;&gt;ff_moments</title><style>.edge>path:hover{stroke-width:8}</style>
<path fill="none" stroke="black" d="M938.11,-501.88C909.07,-440.88 822.7,-259.44 789.75,-190.23"/>
<polygon fill="blue" stroke="black" points="793.05,-189.02 785.59,-181.49 786.73,-192.02 793.05,-189.02"/>
</g>
<!-- ff_moments_expected_returns__yield_mu -->
<g id="node15" class="node">
<title>ff_moments_expected_returns__yield_mu</title><style>.edge>path:hover{stroke-width:8}</style>
<ellipse fill="#732626" stroke="black" cx="1052.79" cy="-626.22" rx="66.47" ry="37.48"/>
<text text-anchor="middle" x="1052.79" y="-639.22" font-family="Helvetica,sans-Serif" font-size="10.00" fill="#ffffff">ff.</text>
<text text-anchor="middle" x="1052.79" y="-627.97" font-family="Helvetica,sans-Serif" font-size="10.00" fill="#ffffff">moments.</text>
<text text-anchor="middle" x="1052.79" y="-616.72" font-family="Helvetica,sans-Serif" font-size="10.00" fill="#ffffff">expected_returns.</text>
<text text-anchor="middle" x="1052.79" y="-605.47" font-family="Helvetica,sans-Serif" font-size="10.00" fill="#ffffff">_yield_mu</text>
</g>
<!-- ff_moments_expected_returns__yield_mu&#45;&gt;ff_moments_expected_returns -->
<g id="edge21" class="edge">
<title>ff_moments_expected_returns__yield_mu&#45;&gt;ff_moments_expected_returns</title><style>.edge>path:hover{stroke-width:8}</style>
<path fill="none" stroke="black" d="M1019.57,-593.27C1005.96,-580.18 990.36,-565.17 977.18,-552.49"/>
<polygon fill="#732626" stroke="black" points="979.64,-550 970,-545.59 974.78,-555.05 979.64,-550"/>
</g>
<!-- ff_pre_selection -->
<g id="node16" class="node">
<title>ff_pre_selection</title><style>.edge>path:hover{stroke-width:8}</style>
<polygon fill="blue" stroke="black" points="809.67,-438.23 735.92,-438.23 735.92,-402.23 809.67,-402.23 809.67,-438.23"/>
<text text-anchor="middle" x="772.79" y="-421.98" font-family="Helvetica,sans-Serif" font-size="10.00" fill="#fbf8ef">ff.</text>
<text text-anchor="middle" x="772.79" y="-410.73" font-family="Helvetica,sans-Serif" font-size="10.00" fill="#fbf8ef">pre_selection</text>
</g>
<!-- ff_pre_selection&#45;&gt;ff -->
<g id="edge22" class="edge">
<title>ff_pre_selection&#45;&gt;ff</title><style>.edge>path:hover{stroke-width:8}</style>
<path fill="none" stroke="black" d="M792.09,-401.76C832.62,-363.45 924.88,-267.11 949.79,-163"/>
<path fill="none" stroke="black" d="M949.79,-161C952.84,-130.04 956.68,-121.34 949.79,-91"/>
</g>
<!-- ff_pre_selection__select_k_extremes -->
<g id="node17" class="node">
<title>ff_pre_selection__select_k_extremes</title><style>.edge>path:hover{stroke-width:8}</style>
<ellipse fill="#732626" stroke="black" cx="772.79" cy="-523.23" rx="73.36" ry="29.52"/>
<text text-anchor="middle" x="772.79" y="-530.6" font-family="Helvetica,sans-Serif" font-size="10.00" fill="#ffffff">ff.</text>
<text text-anchor="middle" x="772.79" y="-519.35" font-family="Helvetica,sans-Serif" font-size="10.00" fill="#ffffff">pre_selection.</text>
<text text-anchor="middle" x="772.79" y="-508.1" font-family="Helvetica,sans-Serif" font-size="10.00" fill="#ffffff">_select_k_extremes</text>
</g>
<!-- ff_pre_selection__select_k_extremes&#45;&gt;ff_pre_selection -->
<g id="edge23" class="edge">
<title>ff_pre_selection__select_k_extremes&#45;&gt;ff_pre_selection</title><style>.edge>path:hover{stroke-width:8}</style>
<path fill="none" stroke="black" d="M772.79,-493.28C772.79,-479.58 772.79,-463.26 772.79,-449.63"/>
<polygon fill="#732626" stroke="black" points="776.29,-449.98 772.79,-439.98 769.29,-449.98 776.29,-449.98"/>
</g>
<!-- ff_utils -->
<g id="node18" class="node">
<title>ff_utils</title><style>.edge>path:hover{stroke-width:8}</style>
<ellipse fill="#d31717" stroke="black" cx="153.79" cy="-717.7" rx="27" ry="18"/>
<text text-anchor="middle" x="153.79" y="-713.83" font-family="Helvetica,sans-Serif" font-size="10.00" fill="#ffffff">ff.utils</text>
</g>
<!-- ff_utils&#45;&gt;ff -->
<g id="edge24" class="edge">
<title>ff_utils&#45;&gt;ff</title><style>.edge>path:hover{stroke-width:8}</style>
<path fill="none" stroke="black" d="M142.49,-701.2C93.05,-631.53 -95,-346.1 60.79,-237.88"/>
<path fill="none" stroke="black" d="M60.79,-235.88C119.59,-190.56 346.35,-225.25 386.79,-163"/>
<path fill="none" stroke="black" d="M386.79,-161C441.82,-76.28 564.1,-39.65 626.52,-26"/>
<polygon fill="#d31717" stroke="black" points="626.9,-29.49 635.97,-24.02 625.46,-22.64 626.9,-29.49"/>
</g>
<!-- ff_utils&#45;&gt;ff_distance -->
<g id="edge25" class="edge">
<title>ff_utils&#45;&gt;ff_distance</title><style>.edge>path:hover{stroke-width:8}</style>
<path fill="none" stroke="black" d="M176.78,-707.79C215.51,-692.79 294.27,-662.29 342.99,-643.41"/>
<polygon fill="#d31717" stroke="black" points="344.03,-646.77 352.09,-639.89 341.5,-640.24 344.03,-646.77"/>
</g>
<!-- ff_utils&#45;&gt;ff_moments_covariance__empirical_covariance -->
<g id="edge26" class="edge">
<title>ff_utils&#45;&gt;ff_moments_covariance__empirical_covariance</title><style>.edge>path:hover{stroke-width:8}</style>
<path fill="none" stroke="black" d="M136.79,-419.23C145.24,-391.74 167.53,-369.7 190.1,-353.54"/>
<polygon fill="#d31717" stroke="black" points="191.86,-356.57 198.16,-348.05 187.92,-350.79 191.86,-356.57"/>
</g>
<!-- ff_utils&#45;&gt;ff_moments_covariance__ew_covariance -->
<g id="edge27" class="edge">
<title>ff_utils&#45;&gt;ff_moments_covariance__ew_covariance</title><style>.edge>path:hover{stroke-width:8}</style>
<path fill="none" stroke="black" d="M136.79,-419.23C141.78,-399.49 141.02,-376.83 138.79,-358.28"/>
<polygon fill="#d31717" stroke="black" points="142.28,-357.94 137.42,-348.53 135.35,-358.92 142.28,-357.94"/>
<path fill="none" stroke="black" d="M149.3,-699.7C137.93,-653.89 110.72,-524.34 136.79,-421.23"/>
</g>
<!-- numpy -->
<g id="node19" class="node">
<title>numpy</title><style>.edge>path:hover{stroke-width:8}</style>
<polygon fill="blue" stroke="black" points="919.79,-1241.7 916.79,-1245.7 895.79,-1245.7 892.79,-1241.7 865.79,-1241.7 865.79,-1205.7 919.79,-1205.7 919.79,-1241.7"/>
<text text-anchor="middle" x="892.79" y="-1219.83" font-family="Helvetica,sans-Serif" font-size="10.00" fill="#fbf8ef">numpy</text>
</g>
<!-- numpy&#45;&gt;ff__cluster -->
<g id="edge28" class="edge">
<title>numpy&#45;&gt;ff__cluster</title><style>.edge>path:hover{stroke-width:8}</style>
<path fill="none" stroke="black" d="M806.79,-1096.7C751.61,-1050.03 833.77,-1005.79 820.79,-934.7"/>
<path fill="none" stroke="black" d="M820.79,-932.7C814.47,-889.4 790.28,-844.26 773.27,-816.81"/>
<polygon fill="blue" stroke="black" points="776.29,-815.03 767.97,-808.47 770.38,-818.79 776.29,-815.03"/>
</g>
<!-- numpy&#45;&gt;ff__inner -->
<g id="edge29" class="edge">
<title>numpy&#45;&gt;ff__inner</title><style>.edge>path:hover{stroke-width:8}</style>
<path fill="none" stroke="black" d="M920.79,-1150.7C912.12,-1111.65 920.79,-1100.7 920.79,-1060.7 920.79,-1060.7 920.79,-1060.7 920.79,-716.7 920.79,-654.44 947.23,-642.99 977.79,-588.75 987.35,-571.77 996.97,-571.34 1002.79,-552.75 1010.63,-527.7 1008.79,-519.25 1002.79,-493.7 999.07,-477.84 991.33,-461.47 983.97,-448.31"/>
<polygon fill="blue" stroke="black" points="987.08,-446.69 979.01,-439.83 981.04,-450.23 987.08,-446.69"/>
</g>
<!-- numpy&#45;&gt;ff__mean_risk -->
<g id="edge30" class="edge">
<title>numpy&#45;&gt;ff__mean_risk</title><style>.edge>path:hover{stroke-width:8}</style>
<path fill="none" stroke="black" d="M1131.79,-788.7C1125.07,-758.32 1129.09,-749.69 1131.79,-718.7"/>
</g>
<!-- numpy&#45;&gt;ff__npo -->
<g id="edge31" class="edge">
<title>numpy&#45;&gt;ff__npo</title><style>.edge>path:hover{stroke-width:8}</style>
<path fill="none" stroke="black" d="M325.79,-625.22C309.26,-561.15 345.67,-486.94 369.07,-448.1"/>
<polygon fill="blue" stroke="black" points="371.89,-450.19 374.19,-439.85 365.94,-446.5 371.89,-450.19"/>
</g>
<!-- numpy&#45;&gt;ff__outer -->
<g id="edge32" class="edge">
<title>numpy&#45;&gt;ff__outer</title><style>.edge>path:hover{stroke-width:8}</style>
<path fill="none" stroke="black" d="M325.79,-625.22C316.01,-587.31 356.93,-557.12 388.63,-539.95"/>
<polygon fill="blue" stroke="black" points="389.9,-543.23 397.18,-535.53 386.69,-537.01 389.9,-543.23"/>
</g>
<!-- numpy&#45;&gt;ff__prior -->
<g id="edge33" class="edge">
<title>numpy&#45;&gt;ff__prior</title><style>.edge>path:hover{stroke-width:8}</style>
<path fill="none" stroke="black" d="M153.79,-788.7C146.61,-749.79 123.15,-749.88 98.79,-718.7"/>
<path fill="none" stroke="black" d="M865.38,-1221.04C767.89,-1214.4 443.79,-1185.7 443.79,-1097.7 443.79,-1097.7 443.79,-1097.7 443.79,-1059.7 443.79,-1004.14 466.24,-985.52 443.79,-934.7"/>
<path fill="none" stroke="black" d="M424.79,-161C491.98,-128.17 577.44,-107.83 626.14,-98.03"/>
<polygon fill="blue" stroke="black" points="626.78,-101.47 635.92,-96.11 625.44,-94.6 626.78,-101.47"/>
<path fill="none" stroke="black" d="M98.79,-716.7C-17.04,-568.41 -35.17,-442.72 79.79,-293.75 172.26,-173.92 265.15,-247.17 400.79,-180 412.5,-174.2 413.05,-168.74 424.79,-163"/>
<path fill="none" stroke="black" d="M443.79,-932.7C389.31,-822.73 260.31,-965.73 172.79,-879.7 143.95,-851.35 161.13,-830.48 153.79,-790.7"/>
</g>
<!-- numpy&#45;&gt;ff_distance -->
<g id="edge34" class="edge">
<title>numpy&#45;&gt;ff_distance</title><style>.edge>path:hover{stroke-width:8}</style>
<path fill="none" stroke="black" d="M384.79,-716.7C377.75,-697.26 378.03,-673.86 379.92,-655.86"/>
<polygon fill="blue" stroke="black" points="383.37,-656.51 381.18,-646.14 376.42,-655.61 383.37,-656.51"/>
</g>
<!-- numpy&#45;&gt;ff_moments_covariance__base -->
<g id="edge35" class="edge">
<title>numpy&#45;&gt;ff_moments_covariance__base</title><style>.edge>path:hover{stroke-width:8}</style>
<path fill="none" stroke="black" d="M249.79,-522.23C241.15,-506.13 239.55,-486.41 240.68,-468.68"/>
<polygon fill="blue" stroke="black" points="244.15,-469.17 241.62,-458.88 237.18,-468.49 244.15,-469.17"/>
</g>
<!-- numpy&#45;&gt;ff_moments_covariance__empirical_covariance -->
<g id="edge36" class="edge">
<title>numpy&#45;&gt;ff_moments_covariance__empirical_covariance</title><style>.edge>path:hover{stroke-width:8}</style>
<path fill="none" stroke="black" d="M443.79,-932.7C406.25,-841.46 418.38,-811.46 384.79,-718.7"/>
<path fill="none" stroke="black" d="M249.79,-522.23C243.11,-509.78 244.44,-504.87 235.79,-493.7 220.73,-474.27 204.06,-480.04 193.79,-457.7 179.87,-427.44 181.77,-413.82 193.79,-382.75 197.58,-372.96 203.73,-363.77 210.6,-355.63"/>
<polygon fill="blue" stroke="black" points="213.09,-358.1 217.24,-348.35 207.92,-353.38 213.09,-358.1"/>
<path fill="none" stroke="black" d="M325.79,-625.22C312.52,-570.64 274.81,-574.53 249.79,-524.23"/>
<path fill="none" stroke="black" d="M384.79,-716.7C376.22,-688.46 360.55,-688.65 344.79,-663.7 335.03,-648.25 330.11,-644.99 325.79,-627.22"/>
</g>
<!-- numpy&#45;&gt;ff_moments_covariance__ew_covariance -->
<g id="edge37" class="edge">
<title>numpy&#45;&gt;ff_moments_covariance__ew_covariance</title><style>.edge>path:hover{stroke-width:8}</style>
<path fill="none" stroke="black" d="M98.79,-716.7C21.69,-605.16 82.65,-431.38 114.95,-357"/>
<polygon fill="blue" stroke="black" points="118.03,-358.7 118.88,-348.14 111.63,-355.87 118.03,-358.7"/>
</g>
<!-- numpy&#45;&gt;ff_moments_expected_returns__yield_mu -->
<g id="edge38" class="edge">
<title>numpy&#45;&gt;ff_moments_expected_returns__yield_mu</title><style>.edge>path:hover{stroke-width:8}</style>
<path fill="none" stroke="black" d="M1081.79,-1096.7C1072.86,-1064.89 1089.96,-1056.22 1095.79,-1023.7 1114.27,-920.56 1151.42,-893.63 1131.79,-790.7"/>
<path fill="none" stroke="black" d="M1131.79,-788.7C1123.13,-749.53 1085.57,-757.35 1074.79,-718.7"/>
</g>
<!-- numpy&#45;&gt;ff_pre_selection__select_k_extremes -->
<g id="edge39" class="edge">
<title>numpy&#45;&gt;ff_pre_selection__select_k_extremes</title><style>.edge>path:hover{stroke-width:8}</style>
<path fill="none" stroke="black" d="M820.79,-932.7C823.32,-796.49 795.42,-636.42 781.04,-563.72"/>
<polygon fill="blue" stroke="black" points="784.55,-563.42 779.15,-554.3 777.69,-564.79 784.55,-563.42"/>
</g>
<!-- numpy&#45;&gt;ff_utils -->
<g id="edge40" class="edge">
<title>numpy&#45;&gt;ff_utils</title><style>.edge>path:hover{stroke-width:8}</style>
<path fill="none" stroke="black" d="M153.79,-788.7C151.32,-775.3 151.01,-760.2 151.45,-747.47"/>
<polygon fill="blue" stroke="black" points="154.94,-747.8 151.97,-737.63 147.95,-747.43 154.94,-747.8"/>
</g>
<!-- scipy -->
<g id="node22" class="node">
<title>scipy</title><style>.edge>path:hover{stroke-width:8}</style>
<polygon fill="#06efa1" stroke="black" points="892.79,-1169.7 889.79,-1173.7 868.79,-1173.7 865.79,-1169.7 838.79,-1169.7 838.79,-1133.7 892.79,-1133.7 892.79,-1169.7"/>
<text text-anchor="middle" x="865.79" y="-1147.83" font-family="Helvetica,sans-Serif" font-size="10.00" fill="#000000">scipy</text>
</g>
<!-- numpy&#45;&gt;scipy -->
<g id="edge41" class="edge">
<title>numpy&#45;&gt;scipy</title><style>.edge>path:hover{stroke-width:8}</style>
<path fill="none" stroke="black" d="M886.12,-1205.4C883.21,-1197.85 879.72,-1188.82 876.47,-1180.38"/>
<polygon fill="blue" stroke="black" points="879.8,-1179.29 872.93,-1171.22 873.27,-1181.81 879.8,-1179.29"/>
</g>
<!-- skfolio -->
<g id="node23" class="node">
<title>skfolio</title><style>.edge>path:hover{stroke-width:8}</style>
<polygon fill="blue" stroke="black" points="660.79,-807.7 657.79,-811.7 636.79,-811.7 633.79,-807.7 606.79,-807.7 606.79,-771.7 660.79,-771.7 660.79,-807.7"/>
<text text-anchor="middle" x="633.79" y="-785.83" font-family="Helvetica,sans-Serif" font-size="10.00" fill="#fbf8ef">skfolio</text>
</g>
<!-- numpy&#45;&gt;skfolio -->
<g id="edge42" class="edge">
<title>numpy&#45;&gt;skfolio</title><style>.edge>path:hover{stroke-width:8}</style>
<path fill="none" stroke="black" d="M519.79,-860.7C537.53,-833.21 570.26,-814.77 596.12,-803.76"/>
<polygon fill="blue" stroke="black" points="597.35,-807.03 605.31,-800.05 594.73,-800.54 597.35,-807.03"/>
<path fill="none" stroke="black" d="M443.79,-932.7C426.32,-890.23 494.9,-901.29 519.79,-862.7"/>
</g>
<!-- sklearn -->
<g id="node24" class="node">
<title>sklearn</title><style>.edge>path:hover{stroke-width:8}</style>
<polygon fill="blue" stroke="black" points="767.79,-1023.7 764.79,-1027.7 743.79,-1027.7 740.79,-1023.7 713.79,-1023.7 713.79,-987.7 767.79,-987.7 767.79,-1023.7"/>
<text text-anchor="middle" x="740.79" y="-1001.83" font-family="Helvetica,sans-Serif" font-size="10.00" fill="#fbf8ef">sklearn</text>
</g>
<!-- numpy&#45;&gt;sklearn -->
<g id="edge43" class="edge">
<title>numpy&#45;&gt;sklearn</title><style>.edge>path:hover{stroke-width:8}</style>
<path fill="none" stroke="black" d="M906.15,-1205.37C915.24,-1191.5 924.93,-1171.36 920.79,-1152.7"/>
<path fill="none" stroke="black" d="M920.79,-1150.7C918.33,-1139.64 911.47,-1139.58 901.79,-1133.7 863.2,-1110.25 843.82,-1123.53 806.79,-1097.7"/>
<path fill="none" stroke="black" d="M806.79,-1096.7C783.73,-1080.62 770.88,-1083.75 754.79,-1060.7 749.55,-1053.19 746.27,-1043.86 744.22,-1035.08"/>
<polygon fill="blue" stroke="black" points="747.71,-1034.73 742.44,-1025.54 740.83,-1036.01 747.71,-1034.73"/>
</g>
<!-- statsmodels -->
<g id="node25" class="node">
<title>statsmodels</title><style>.edge>path:hover{stroke-width:8}</style>
<polygon fill="#9d26d9" stroke="black" points="1065.42,-1023.7 1062.42,-1027.7 1041.42,-1027.7 1038.42,-1023.7 996.17,-1023.7 996.17,-987.7 1065.42,-987.7 1065.42,-1023.7"/>
<text text-anchor="middle" x="1030.79" y="-1001.83" font-family="Helvetica,sans-Serif" font-size="10.00" fill="#ffffff">statsmodels</text>
</g>
<!-- numpy&#45;&gt;statsmodels -->
<g id="edge44" class="edge">
<title>numpy&#45;&gt;statsmodels</title><style>.edge>path:hover{stroke-width:8}</style>
<path fill="none" stroke="black" d="M919.91,-1217.87C979.15,-1205.88 1112.46,-1170.37 1081.79,-1097.7"/>
<path fill="none" stroke="black" d="M1081.79,-1096.7C1071.69,-1060.72 1003.55,-1098.01 1005.79,-1060.7"/>
</g>
<!-- pandas -->
<g id="node20" class="node">
<title>pandas</title><style>.edge>path:hover{stroke-width:8}</style>
<polygon fill="#a8f906" stroke="black" points="1017.79,-1169.7 1014.79,-1173.7 993.79,-1173.7 990.79,-1169.7 963.79,-1169.7 963.79,-1133.7 1017.79,-1133.7 1017.79,-1169.7"/>
<text text-anchor="middle" x="990.79" y="-1147.83" font-family="Helvetica,sans-Serif" font-size="10.00" fill="#000000">pandas</text>
</g>
<!-- pandas&#45;&gt;ff__mean_risk -->
<g id="edge45" class="edge">
<title>pandas&#45;&gt;ff__mean_risk</title><style>.edge>path:hover{stroke-width:8}</style>
<path fill="none" stroke="black" d="M1131.79,-716.7C1143.67,-661.06 1141.98,-643.85 1127.79,-588.75 1124.38,-575.5 1117.91,-561.87 1111.6,-550.57"/>
<polygon fill="#a8f906" stroke="black" points="1114.79,-549.08 1106.71,-542.23 1108.75,-552.62 1114.79,-549.08"/>
<path fill="none" stroke="black" d="M1005.79,-1096.7C1016.44,-1053.34 1054.03,-1063.22 1074.79,-1023.7 1093.6,-987.89 1093.79,-975.15 1093.79,-934.7 1093.79,-934.7 1093.79,-934.7 1093.79,-860.7 1093.79,-795.37 1122.7,-783.4 1131.79,-718.7"/>
</g>
<!-- pandas&#45;&gt;ff_moments_expected_returns__yield_mu -->
<g id="edge46" class="edge">
<title>pandas&#45;&gt;ff_moments_expected_returns__yield_mu</title><style>.edge>path:hover{stroke-width:8}</style>
<path fill="none" stroke="black" d="M997.06,-1133.3C1000.4,-1123.08 1004.15,-1109.83 1005.79,-1097.7"/>
<path fill="none" stroke="black" d="M1005.79,-1096.7C1008.09,-1079.69 996.08,-1077.32 991.79,-1060.7 983.66,-1029.21 975.75,-1018.29 986.79,-987.7 997.19,-958.9 1024.52,-964.67 1030.79,-934.7"/>
<path fill="none" stroke="black" d="M1030.79,-932.7C1035.65,-901.97 1018.78,-891.4 1030.79,-862.7"/>
</g>
<!-- pandas&#45;&gt;skfolio -->
<g id="edge47" class="edge">
<title>pandas&#45;&gt;skfolio</title><style>.edge>path:hover{stroke-width:8}</style>
<path fill="none" stroke="black" d="M768.79,-1059.7C742.13,-1040.87 731.46,-1042.51 704.79,-1023.7 660.25,-992.29 489.43,-907.96 519.79,-862.7"/>
</g>
<!-- pandas&#45;&gt;sklearn -->
<g id="edge48" class="edge">
<title>pandas&#45;&gt;sklearn</title><style>.edge>path:hover{stroke-width:8}</style>
<path fill="none" stroke="black" d="M768.79,-1059.7C760.17,-1053.62 753.99,-1044.05 749.67,-1034.7"/>
<polygon fill="#a8f906" stroke="black" points="752.93,-1033.44 745.97,-1025.46 746.44,-1036.04 752.93,-1033.44"/>
<path fill="none" stroke="black" d="M963.43,-1141.38C911.67,-1123.45 801.66,-1083.9 768.79,-1060.7"/>
</g>
<!-- pandas&#45;&gt;statsmodels -->
<g id="edge49" class="edge">
<title>pandas&#45;&gt;statsmodels</title><style>.edge>path:hover{stroke-width:8}</style>
<path fill="none" stroke="black" d="M1005.79,-1096.7C1007.93,-1080.84 999.33,-1075.34 1005.79,-1060.7"/>
</g>
<!-- prophet -->
<g id="node21" class="node">
<title>prophet</title><style>.edge>path:hover{stroke-width:8}</style>
<polygon fill="#40c040" stroke="black" points="1002.79,-951.7 999.79,-955.7 978.79,-955.7 975.79,-951.7 948.79,-951.7 948.79,-915.7 1002.79,-915.7 1002.79,-951.7"/>
<text text-anchor="middle" x="975.79" y="-929.83" font-family="Helvetica,sans-Serif" font-size="10.00" fill="#000000">prophet</text>
</g>
<!-- prophet&#45;&gt;ff_moments_expected_returns__yield_mu -->
<g id="edge50" class="edge">
<title>prophet&#45;&gt;ff_moments_expected_returns__yield_mu</title><style>.edge>path:hover{stroke-width:8}</style>
<path fill="none" stroke="black" d="M1030.79,-860.7C1048.52,-797.05 1088.39,-783.36 1074.79,-718.7"/>
<path fill="none" stroke="black" d="M993.76,-915.46C1006.32,-902.27 1022.32,-882.95 1030.79,-862.7"/>
<path fill="none" stroke="black" d="M1074.79,-716.7C1071,-703.1 1067.2,-688.24 1063.86,-674.6"/>
<polygon fill="#40c040" stroke="black" points="1067.28,-673.86 1061.52,-664.96 1060.48,-675.51 1067.28,-673.86"/>
</g>
<!-- scipy&#45;&gt;ff_distance -->
<g id="edge51" class="edge">
<title>scipy&#45;&gt;ff_distance</title><style>.edge>path:hover{stroke-width:8}</style>
<path fill="none" stroke="black" d="M838.37,-1148.09C793.34,-1142.06 707.26,-1122.51 692.79,-1060.7"/>
<path fill="none" stroke="black" d="M519.79,-932.7C464.15,-835.12 415.42,-710.3 394.99,-655.34"/>
<polygon fill="#06efa1" stroke="black" points="398.34,-654.3 391.6,-646.13 391.77,-656.72 398.34,-654.3"/>
<path fill="none" stroke="black" d="M692.79,-1059.7C691.59,-1057.39 541.85,-953.29 539.79,-951.7 530.57,-944.55 525.52,-944.86 519.79,-934.7"/>
</g>
<!-- scipy&#45;&gt;skfolio -->
<g id="edge52" class="edge">
<title>scipy&#45;&gt;skfolio</title><style>.edge>path:hover{stroke-width:8}</style>
<path fill="none" stroke="black" d="M519.79,-932.7C504.38,-905.67 502.46,-888.54 519.79,-862.7"/>
</g>
<!-- scipy&#45;&gt;sklearn -->
<g id="edge53" class="edge">
<title>scipy&#45;&gt;sklearn</title><style>.edge>path:hover{stroke-width:8}</style>
<path fill="none" stroke="black" d="M692.79,-1059.7C690.06,-1048.04 696.2,-1037.64 704.92,-1029.21"/>
<polygon fill="#06efa1" stroke="black" points="706.9,-1032.12 712.31,-1023.01 702.4,-1026.76 706.9,-1032.12"/>
</g>
<!-- scipy&#45;&gt;statsmodels -->
<g id="edge54" class="edge">
<title>scipy&#45;&gt;statsmodels</title><style>.edge>path:hover{stroke-width:8}</style>
<path fill="none" stroke="black" d="M893.02,-1137.75C930.71,-1119.13 995.33,-1084.43 1005.79,-1060.7"/>
<path fill="none" stroke="black" d="M1005.79,-1059.7C1006.32,-1050.9 1009.35,-1041.99 1013.14,-1034.05"/>
<polygon fill="#06efa1" stroke="black" points="1016.21,-1035.72 1017.87,-1025.25 1010.05,-1032.4 1016.21,-1035.72"/>
</g>
<!-- skfolio&#45;&gt;ff__inner -->
<g id="edge55" class="edge">
<title>skfolio&#45;&gt;ff__inner</title><style>.edge>path:hover{stroke-width:8}</style>
<path fill="none" stroke="black" d="M633.79,-716.7C617.53,-615.7 618.69,-566.27 690.79,-493.7 695.06,-489.41 853.71,-449.42 928.51,-430.75"/>
<polygon fill="blue" stroke="black" points="929.01,-434.23 937.86,-428.41 927.31,-427.44 929.01,-434.23"/>
</g>
<!-- skfolio&#45;&gt;ff__mean_risk -->
<g id="edge56" class="edge">
<title>skfolio&#45;&gt;ff__mean_risk</title><style>.edge>path:hover{stroke-width:8}</style>
<path fill="none" stroke="black" d="M768.79,-716.7C848.72,-662.26 860.74,-636.58 944.79,-588.75 979.24,-569.14 1020.81,-551.7 1051.44,-539.91"/>
<polygon fill="blue" stroke="black" points="1052.67,-543.19 1060.78,-536.37 1050.19,-536.64 1052.67,-543.19"/>
</g>
<!-- skfolio&#45;&gt;ff__npo -->
<g id="edge57" class="edge">
<title>skfolio&#45;&gt;ff__npo</title><style>.edge>path:hover{stroke-width:8}</style>
<path fill="none" stroke="black" d="M635.67,-771.25C636.76,-756.98 637.31,-736.34 633.79,-718.7"/>
<path fill="none" stroke="black" d="M557.79,-522.23C542.97,-464.83 470.93,-438.97 425.21,-428.18"/>
<polygon fill="blue" stroke="black" points="426.2,-424.81 415.68,-426.08 424.69,-431.65 426.2,-424.81"/>
<path fill="none" stroke="black" d="M633.79,-716.7C627.34,-684.34 596.83,-693.07 581.79,-663.7 553.13,-607.71 573.52,-585.13 557.79,-524.23"/>
</g>
<!-- skfolio&#45;&gt;ff__outer -->
<g id="edge58" class="edge">
<title>skfolio&#45;&gt;ff__outer</title><style>.edge>path:hover{stroke-width:8}</style>
<path fill="none" stroke="black" d="M519.79,-716.7C473.1,-674.12 486.64,-644.97 457.79,-588.75 451.33,-576.16 443.89,-562.36 437.54,-550.76"/>
<polygon fill="blue" stroke="black" points="440.69,-549.22 432.8,-542.15 434.56,-552.6 440.69,-549.22"/>
</g>
<!-- skfolio&#45;&gt;ff__prior -->
<g id="edge59" class="edge">
<title>skfolio&#45;&gt;ff__prior</title><style>.edge>path:hover{stroke-width:8}</style>
<path fill="none" stroke="black" d="M614.79,-419.23C588.5,-353.4 360.59,-193.04 424.79,-163"/>
<path fill="none" stroke="black" d="M557.79,-522.23C541.21,-473.42 632.65,-469.58 614.79,-421.23"/>
</g>
<!-- skfolio&#45;&gt;ff_distance -->
<g id="edge60" class="edge">
<title>skfolio&#45;&gt;ff_distance</title><style>.edge>path:hover{stroke-width:8}</style>
<path fill="none" stroke="black" d="M519.79,-716.7C485.49,-685.42 468.36,-689.54 429.79,-663.7 424.22,-659.97 418.51,-655.71 413.09,-651.45"/>
<polygon fill="blue" stroke="black" points="415.5,-648.9 405.53,-645.33 411.1,-654.34 415.5,-648.9"/>
<path fill="none" stroke="black" d="M606.51,-775.69C582.1,-763.24 546.22,-742.8 519.79,-718.7"/>
</g>
<!-- skfolio&#45;&gt;ff_moments_covariance__base -->
<g id="edge61" class="edge">
<title>skfolio&#45;&gt;ff_moments_covariance__base</title><style>.edge>path:hover{stroke-width:8}</style>
<path fill="none" stroke="black" d="M519.79,-716.7C494.29,-695.75 487.72,-690 467.79,-663.7 444.6,-633.09 452.92,-614.89 424.79,-588.75 397.7,-563.58 378.44,-576.11 349.79,-552.75 319.47,-528.02 293.06,-492.3 275.02,-464.32"/>
<polygon fill="blue" stroke="black" points="278.1,-462.64 269.8,-456.06 272.18,-466.38 278.1,-462.64"/>
</g>
<!-- skfolio&#45;&gt;ff_moments_expected_returns__yield_mu -->
<g id="edge62" class="edge">
<title>skfolio&#45;&gt;ff_moments_expected_returns__yield_mu</title><style>.edge>path:hover{stroke-width:8}</style>
<path fill="none" stroke="black" d="M768.79,-716.7C832.04,-673.62 917.11,-650.45 977.61,-638.56"/>
<polygon fill="blue" stroke="black" points="977.95,-642.06 987.12,-636.75 976.64,-635.18 977.95,-642.06"/>
</g>
<!-- skfolio&#45;&gt;ff_pre_selection__select_k_extremes -->
<g id="edge63" class="edge">
<title>skfolio&#45;&gt;ff_pre_selection__select_k_extremes</title><style>.edge>path:hover{stroke-width:8}</style>
<path fill="none" stroke="black" d="M768.79,-716.7C801.66,-694.32 772.09,-666.85 768.79,-627.22"/>
<path fill="none" stroke="black" d="M768.79,-625.22C767.12,-605.19 767.75,-582.86 768.95,-564.3"/>
<polygon fill="blue" stroke="black" points="772.43,-564.74 769.67,-554.51 765.45,-564.22 772.43,-564.74"/>
<path fill="none" stroke="black" d="M661.25,-776.82C689.32,-764.14 733.66,-742.63 768.79,-718.7"/>
</g>
<!-- sklearn&#45;&gt;ff__cluster -->
<g id="edge64" class="edge">
<title>sklearn&#45;&gt;ff__cluster</title><style>.edge>path:hover{stroke-width:8}</style>
<path fill="none" stroke="black" d="M706.79,-860.7C699.02,-842.98 711.88,-825.15 726.37,-811.92"/>
<polygon fill="blue" stroke="black" points="728.4,-814.79 733.79,-805.67 723.89,-809.44 728.4,-814.79"/>
</g>
<!-- sklearn&#45;&gt;ff__mean_risk -->
<g id="edge65" class="edge">
<title>sklearn&#45;&gt;ff__mean_risk</title><style>.edge>path:hover{stroke-width:8}</style>
<path fill="none" stroke="black" d="M761.79,-932.7C762.96,-887.59 944.99,-619.74 977.79,-588.75 990.25,-576.97 1027.34,-557.28 1056.46,-542.74"/>
<polygon fill="blue" stroke="black" points="1058,-545.88 1065.41,-538.31 1054.89,-539.61 1058,-545.88"/>
</g>
<!-- sklearn&#45;&gt;ff__npo -->
<g id="edge66" class="edge">
<title>sklearn&#45;&gt;ff__npo</title><style>.edge>path:hover{stroke-width:8}</style>
<path fill="none" stroke="black" d="M692.79,-716.7C686.22,-685.3 660.25,-691.23 643.79,-663.7 610.15,-607.43 639.45,-573.13 595.79,-524.23"/>
<path fill="none" stroke="black" d="M692.79,-788.7C688.06,-757.95 696.3,-749.61 692.79,-718.7"/>
<path fill="none" stroke="black" d="M595.79,-522.23C583.85,-510.74 585.25,-503.36 571.79,-493.7 526.51,-461.22 464.7,-440.87 425.26,-430.28"/>
<polygon fill="blue" stroke="black" points="426.3,-426.93 415.74,-427.8 424.54,-433.71 426.3,-426.93"/>
</g>
<!-- sklearn&#45;&gt;ff__prior -->
<g id="edge67" class="edge">
<title>sklearn&#45;&gt;ff__prior</title><style>.edge>path:hover{stroke-width:8}</style>
<path fill="none" stroke="black" d="M692.79,-716.7C677.46,-581.75 661.85,-548.63 614.79,-421.23"/>
</g>
<!-- sklearn&#45;&gt;ff_moments_covariance__base -->
<g id="edge68" class="edge">
<title>sklearn&#45;&gt;ff_moments_covariance__base</title><style>.edge>path:hover{stroke-width:8}</style>
<path fill="none" stroke="black" d="M692.79,-788.7C672.11,-654.16 575.25,-662.42 460.79,-588.75 428.68,-568.08 412.7,-576.48 382.79,-552.75 356.73,-532.07 359.92,-517.61 336.79,-493.7 323.2,-479.67 307.06,-465.6 292.38,-453.65"/>
<polygon fill="blue" stroke="black" points="294.64,-450.98 284.65,-447.45 290.26,-456.44 294.64,-450.98"/>
<path fill="none" stroke="black" d="M706.79,-860.7C694.05,-831.64 691.19,-822.39 692.79,-790.7"/>
</g>
<!-- sklearn&#45;&gt;ff_pre_selection__select_k_extremes -->
<g id="edge69" class="edge">
<title>sklearn&#45;&gt;ff_pre_selection__select_k_extremes</title><style>.edge>path:hover{stroke-width:8}</style>
<path fill="none" stroke="black" d="M692.79,-788.7C688.13,-742.51 758.5,-775.26 782.79,-735.7 794.02,-717.42 770.11,-643.09 768.79,-627.22"/>
</g>
<!-- sklearn&#45;&gt;skfolio -->
<g id="edge70" class="edge">
<title>sklearn&#45;&gt;skfolio</title><style>.edge>path:hover{stroke-width:8}</style>
<path fill="none" stroke="black" d="M761.79,-932.7C762.82,-893.15 722.68,-898.94 706.79,-862.7"/>
<path fill="none" stroke="black" d="M748.82,-987.29C754.55,-973.38 761.31,-953.22 761.79,-934.7"/>
<path fill="none" stroke="black" d="M706.79,-860.7C698.85,-842.59 683.77,-826.87 669.36,-814.93"/>
<polygon fill="blue" stroke="black" points="671.77,-812.37 661.74,-808.94 667.44,-817.87 671.77,-812.37"/>
</g>
<!-- statsmodels&#45;&gt;ff_moments_expected_returns__yield_mu -->
<g id="edge71" class="edge">
<title>statsmodels&#45;&gt;ff_moments_expected_returns__yield_mu</title><style>.edge>path:hover{stroke-width:8}</style>
<path fill="none" stroke="black" d="M1028.82,-987.24C1027.68,-972.95 1027.11,-952.31 1030.79,-934.7"/>
</g>
<!-- tqdm -->
<g id="node26" class="node">
<title>tqdm</title><style>.edge>path:hover{stroke-width:8}</style>
<polygon fill="#b65395" stroke="black" points="235.79,-879.7 232.79,-883.7 211.79,-883.7 208.79,-879.7 181.79,-879.7 181.79,-843.7 235.79,-843.7 235.79,-879.7"/>
<text text-anchor="middle" x="208.79" y="-857.83" font-family="Helvetica,sans-Serif" font-size="10.00" fill="#ffffff">tqdm</text>
</g>
<!-- tqdm&#45;&gt;ff_utils -->
<g id="edge72" class="edge">
<title>tqdm&#45;&gt;ff_utils</title><style>.edge>path:hover{stroke-width:8}</style>
<path fill="none" stroke="black" d="M202.05,-843.29C192.63,-818.97 175.44,-774.59 164.32,-745.89"/>
<polygon fill="#b65395" stroke="black" points="167.67,-744.84 160.79,-736.78 161.14,-747.37 167.67,-744.84"/>
</g>
</g>
</svg>
