<?xml version="1.0" encoding="UTF-8" standalone="no"?>
<!DOCTYPE svg PUBLIC "-//W3C//DTD SVG 1.1//EN"
 "http://www.w3.org/Graphics/SVG/1.1/DTD/svg11.dtd">
<!-- Generated by graphviz version 12.2.1 (20241206.2353)
 -->
<!-- Title: G Pages: 1 -->
<svg width="1153pt" height="448pt"
 viewBox="0.00 0.00 1153.24 448.13" xmlns="http://www.w3.org/2000/svg" xmlns:xlink="http://www.w3.org/1999/xlink">
<g id="graph0" class="graph" transform="scale(1 1) rotate(0) translate(4 444.13)">
<title>G</title><style>.edge>path:hover{stroke-width:8}</style>
<polygon fill="#fbf8ef" stroke="none" points="-4,4 -4,-444.13 1149.24,-444.13 1149.24,4 -4,4"/>
<!-- click -->
<g id="node1" class="node">
<title>click</title><style>.edge>path:hover{stroke-width:8}</style>
<polygon fill="#b65353" stroke="black" points="54,-259.13 51,-263.13 30,-263.13 27,-259.13 0,-259.13 0,-223.13 54,-223.13 54,-259.13"/>
<text text-anchor="middle" x="27" y="-237.26" font-family="Helvetica,sans-Serif" font-size="10.00" fill="#ffffff">click</text>
</g>
<!-- pm_cli -->
<g id="node8" class="node">
<title>pm_cli</title><style>.edge>path:hover{stroke-width:8}</style>
<ellipse fill="#3583a1" stroke="black" cx="144" cy="-90" rx="27" ry="18"/>
<text text-anchor="middle" x="144" y="-86.12" font-family="Helvetica,sans-Serif" font-size="10.00" fill="#ffffff">pm.cli</text>
</g>
<!-- click&#45;&gt;pm_cli -->
<g id="edge1" class="edge">
<title>click&#45;&gt;pm_cli</title><style>.edge>path:hover{stroke-width:8}</style>
<path fill="none" stroke="black" d="M40.65,-222.73C61.43,-196.25 101.07,-145.72 124.76,-115.52"/>
<polygon fill="#b65353" stroke="black" points="127.5,-117.71 130.91,-107.68 121.99,-113.39 127.5,-117.71"/>
</g>
<!-- cvxpy -->
<g id="node2" class="node">
<title>cvxpy</title><style>.edge>path:hover{stroke-width:8}</style>
<polygon fill="#c08540" stroke="black" points="452,-331.13 449,-335.13 428,-335.13 425,-331.13 398,-331.13 398,-295.13 452,-295.13 452,-331.13"/>
<text text-anchor="middle" x="425" y="-309.26" font-family="Helvetica,sans-Serif" font-size="10.00" fill="#000000">cvxpy</text>
</g>
<!-- pm_cvxpylayers -->
<g id="node9" class="node">
<title>pm_cvxpylayers</title><style>.edge>path:hover{stroke-width:8}</style>
<ellipse fill="#3a7288" stroke="black" cx="287" cy="-165.57" rx="50.29" ry="18"/>
<text text-anchor="middle" x="287" y="-161.69" font-family="Helvetica,sans-Serif" font-size="10.00" fill="#ffffff">pm.cvxpylayers</text>
</g>
<!-- cvxpy&#45;&gt;pm_cvxpylayers -->
<g id="edge2" class="edge">
<title>cvxpy&#45;&gt;pm_cvxpylayers</title><style>.edge>path:hover{stroke-width:8}</style>
<path fill="none" stroke="black" d="M425.05,-294.66C424.07,-278.28 419.76,-254.52 404,-242.13"/>
<path fill="none" stroke="black" d="M404,-240.13C378.41,-220.03 347.1,-200.58 323.31,-186.73"/>
<polygon fill="#c08540" stroke="black" points="325.33,-183.86 314.92,-181.91 321.84,-189.93 325.33,-183.86"/>
</g>
<!-- ff -->
<g id="node3" class="node">
<title>ff</title><style>.edge>path:hover{stroke-width:8}</style>
<polygon fill="#b4c040" stroke="black" points="236,-331.13 233,-335.13 212,-335.13 209,-331.13 182,-331.13 182,-295.13 236,-295.13 236,-331.13"/>
<text text-anchor="middle" x="209" y="-309.26" font-family="Helvetica,sans-Serif" font-size="10.00" fill="#000000">ff</text>
</g>
<!-- pm_main -->
<g id="node10" class="node">
<title>pm_main</title><style>.edge>path:hover{stroke-width:8}</style>
<ellipse fill="#265e73" stroke="black" cx="144" cy="-165.57" rx="31.66" ry="18"/>
<text text-anchor="middle" x="144" y="-161.69" font-family="Helvetica,sans-Serif" font-size="10.00" fill="#ffffff">pm.main</text>
</g>
<!-- ff&#45;&gt;pm_main -->
<g id="edge3" class="edge">
<title>ff&#45;&gt;pm_main</title><style>.edge>path:hover{stroke-width:8}</style>
<path fill="none" stroke="black" d="M215.22,-294.7C219.73,-278.6 222.87,-255.24 209,-242.13"/>
</g>
<!-- matplotlib -->
<g id="node4" class="node">
<title>matplotlib</title><style>.edge>path:hover{stroke-width:8}</style>
<polygon fill="blue" stroke="black" points="748,-331.13 745,-335.13 724,-335.13 721,-331.13 690,-331.13 690,-295.13 748,-295.13 748,-331.13"/>
<text text-anchor="middle" x="719" y="-309.26" font-family="Helvetica,sans-Serif" font-size="10.00" fill="#fbf8ef">matplotlib</text>
</g>
<!-- matplotlib&#45;&gt;pm_cvxpylayers -->
<g id="edge4" class="edge">
<title>matplotlib&#45;&gt;pm_cvxpylayers</title><style>.edge>path:hover{stroke-width:8}</style>
<path fill="none" stroke="black" d="M689.78,-303.25C656.51,-293.04 600.62,-275.56 553,-259.13 509.53,-244.14 499.42,-238.29 456,-223.13 407.43,-206.18 394.73,-203.6 346,-187.13 341.61,-185.65 337.04,-184.09 332.47,-182.51"/>
<polygon fill="blue" stroke="black" points="333.93,-179.32 323.33,-179.35 331.64,-185.93 333.93,-179.32"/>
</g>
<!-- pm_pca_risk_parity -->
<g id="node11" class="node">
<title>pm_pca_risk_parity</title><style>.edge>path:hover{stroke-width:8}</style>
<ellipse fill="#407f96" stroke="black" cx="495" cy="-165.57" rx="57.98" ry="21.57"/>
<text text-anchor="middle" x="495" y="-167.32" font-family="Helvetica,sans-Serif" font-size="10.00" fill="#ffffff">pm.</text>
<text text-anchor="middle" x="495" y="-156.07" font-family="Helvetica,sans-Serif" font-size="10.00" fill="#ffffff">pca_risk_parity</text>
</g>
<!-- matplotlib&#45;&gt;pm_pca_risk_parity -->
<g id="edge5" class="edge">
<title>matplotlib&#45;&gt;pm_pca_risk_parity</title><style>.edge>path:hover{stroke-width:8}</style>
<path fill="none" stroke="black" d="M711.88,-294.91C705.23,-280.01 694.33,-258.38 681,-242.13"/>
<path fill="none" stroke="black" d="M681,-240.13C672.06,-229.23 599.57,-202.54 547.78,-184.49"/>
<polygon fill="blue" stroke="black" points="549.1,-181.25 538.51,-181.28 546.81,-187.86 549.1,-181.25"/>
</g>
<!-- pm_risk_parity_walk_forward -->
<g id="node12" class="node">
<title>pm_risk_parity_walk_forward</title><style>.edge>path:hover{stroke-width:8}</style>
<ellipse fill="#407f96" stroke="black" cx="897" cy="-165.57" rx="87.68" ry="21.57"/>
<text text-anchor="middle" x="897" y="-167.32" font-family="Helvetica,sans-Serif" font-size="10.00" fill="#ffffff">pm.</text>
<text text-anchor="middle" x="897" y="-156.07" font-family="Helvetica,sans-Serif" font-size="10.00" fill="#ffffff">risk_parity_walk_forward</text>
</g>
<!-- matplotlib&#45;&gt;pm_risk_parity_walk_forward -->
<g id="edge6" class="edge">
<title>matplotlib&#45;&gt;pm_risk_parity_walk_forward</title><style>.edge>path:hover{stroke-width:8}</style>
<path fill="none" stroke="black" d="M712.07,-294.68C706.42,-277.3 701.88,-251.85 719,-242.13"/>
</g>
<!-- pm_torch -->
<g id="node13" class="node">
<title>pm_torch</title><style>.edge>path:hover{stroke-width:8}</style>
<ellipse fill="#3a7288" stroke="black" cx="387" cy="-165.57" rx="32.1" ry="18"/>
<text text-anchor="middle" x="387" y="-161.69" font-family="Helvetica,sans-Serif" font-size="10.00" fill="#ffffff">pm.torch</text>
</g>
<!-- matplotlib&#45;&gt;pm_torch -->
<g id="edge7" class="edge">
<title>matplotlib&#45;&gt;pm_torch</title><style>.edge>path:hover{stroke-width:8}</style>
<path fill="none" stroke="black" d="M689.8,-296.18C654.5,-277.27 592.97,-245.51 538,-223.13 490.36,-203.74 475.57,-206.72 428,-187.13 425.36,-186.05 422.65,-184.86 419.95,-183.62"/>
<polygon fill="blue" stroke="black" points="421.6,-180.53 411.07,-179.36 418.57,-186.84 421.6,-180.53"/>
</g>
<!-- pm_torch_model_variable_step_size -->
<g id="node14" class="node">
<title>pm_torch_model_variable_step_size</title><style>.edge>path:hover{stroke-width:8}</style>
<ellipse fill="#3d798f" stroke="black" cx="681" cy="-165.57" rx="109.96" ry="21.57"/>
<text text-anchor="middle" x="681" y="-167.32" font-family="Helvetica,sans-Serif" font-size="10.00" fill="#ffffff">pm.</text>
<text text-anchor="middle" x="681" y="-156.07" font-family="Helvetica,sans-Serif" font-size="10.00" fill="#ffffff">torch_model_variable_step_size</text>
</g>
<!-- matplotlib&#45;&gt;pm_torch_model_variable_step_size -->
<g id="edge8" class="edge">
<title>matplotlib&#45;&gt;pm_torch_model_variable_step_size</title><style>.edge>path:hover{stroke-width:8}</style>
<path fill="none" stroke="black" d="M681,-240.13C671.7,-228.79 670.74,-212.82 672.51,-198.66"/>
<polygon fill="blue" stroke="black" points="675.96,-199.27 674.26,-188.82 669.07,-198.05 675.96,-199.27"/>
</g>
<!-- pm_torch_walk_forward -->
<g id="node15" class="node">
<title>pm_torch_walk_forward</title><style>.edge>path:hover{stroke-width:8}</style>
<ellipse fill="#407f96" stroke="black" cx="1074" cy="-165.57" rx="71.24" ry="21.57"/>
<text text-anchor="middle" x="1074" y="-167.32" font-family="Helvetica,sans-Serif" font-size="10.00" fill="#ffffff">pm.</text>
<text text-anchor="middle" x="1074" y="-156.07" font-family="Helvetica,sans-Serif" font-size="10.00" fill="#ffffff">torch_walk_forward</text>
</g>
<!-- matplotlib&#45;&gt;pm_torch_walk_forward -->
<g id="edge9" class="edge">
<title>matplotlib&#45;&gt;pm_torch_walk_forward</title><style>.edge>path:hover{stroke-width:8}</style>
<path fill="none" stroke="black" d="M730.84,-294.86C744.08,-277.35 767.32,-251.55 795,-242.13"/>
</g>
<!-- numpy -->
<g id="node5" class="node">
<title>numpy</title><style>.edge>path:hover{stroke-width:8}</style>
<polygon fill="#06f932" stroke="black" points="689,-440.13 686,-444.13 665,-444.13 662,-440.13 635,-440.13 635,-404.13 689,-404.13 689,-440.13"/>
<text text-anchor="middle" x="662" y="-418.26" font-family="Helvetica,sans-Serif" font-size="10.00" fill="#000000">numpy</text>
</g>
<!-- numpy&#45;&gt;matplotlib -->
<g id="edge10" class="edge">
<title>numpy&#45;&gt;matplotlib</title><style>.edge>path:hover{stroke-width:8}</style>
<path fill="none" stroke="black" d="M662,-367.13C653.03,-353.75 664.79,-341.33 679.9,-331.89"/>
<polygon fill="#06f932" stroke="black" points="681.3,-335.12 688.28,-327.15 677.85,-329.03 681.3,-335.12"/>
</g>
<!-- numpy&#45;&gt;pm_cvxpylayers -->
<g id="edge11" class="edge">
<title>numpy&#45;&gt;pm_cvxpylayers</title><style>.edge>path:hover{stroke-width:8}</style>
<path fill="none" stroke="black" d="M480,-312.13C462.26,-297.55 422.06,-256.32 404,-242.13"/>
<path fill="none" stroke="black" d="M662,-367.13C620.52,-305.62 565.02,-364.97 499,-331.13 488.92,-325.97 488.75,-321.33 480,-314.13"/>
</g>
<!-- numpy&#45;&gt;pm_main -->
<g id="edge12" class="edge">
<title>numpy&#45;&gt;pm_main</title><style>.edge>path:hover{stroke-width:8}</style>
<path fill="none" stroke="black" d="M82,-312.13C57.29,-271.57 94.25,-219.38 120.85,-189.79"/>
<polygon fill="#06f932" stroke="black" points="123.07,-192.53 127.32,-182.82 117.95,-187.77 123.07,-192.53"/>
<path fill="none" stroke="black" d="M666.61,-403.95C668.56,-392.82 669,-378.51 662,-368.13"/>
<path fill="none" stroke="black" d="M662,-367.13C627.08,-315.35 158.6,-355.28 101,-331.13 90.55,-326.75 87.77,-323.88 82,-314.13"/>
</g>
<!-- numpy&#45;&gt;pm_pca_risk_parity -->
<g id="edge13" class="edge">
<title>numpy&#45;&gt;pm_pca_risk_parity</title><style>.edge>path:hover{stroke-width:8}</style>
<path fill="none" stroke="black" d="M662,-367.13C643.58,-339.64 663.06,-321.45 643,-295.13 623.68,-269.79 605.29,-279.76 581,-259.13 573.54,-252.8 572.55,-250.19 567,-242.13"/>
</g>
<!-- numpy&#45;&gt;pm_risk_parity_walk_forward -->
<g id="edge14" class="edge">
<title>numpy&#45;&gt;pm_risk_parity_walk_forward</title><style>.edge>path:hover{stroke-width:8}</style>
<path fill="none" stroke="black" d="M985,-240.13C996.11,-219.1 977.7,-201.68 954.89,-189.08"/>
<polygon fill="#06f932" stroke="black" points="956.77,-186.11 946.27,-184.67 953.58,-192.34 956.77,-186.11"/>
<path fill="none" stroke="black" d="M881,-312.13C912.57,-266.22 958.98,-291.4 985,-242.13"/>
</g>
<!-- numpy&#45;&gt;pm_torch -->
<g id="edge15" class="edge">
<title>numpy&#45;&gt;pm_torch</title><style>.edge>path:hover{stroke-width:8}</style>
<path fill="none" stroke="black" d="M480,-312.13C455.97,-292.38 495.96,-268.84 480,-242.13"/>
</g>
<!-- numpy&#45;&gt;pm_torch_model_variable_step_size -->
<g id="edge16" class="edge">
<title>numpy&#45;&gt;pm_torch_model_variable_step_size</title><style>.edge>path:hover{stroke-width:8}</style>
<path fill="none" stroke="black" d="M662,-367.13C606.26,-283.94 824.92,-397.1 881,-314.13"/>
<path fill="none" stroke="black" d="M881,-312.13C909.17,-270.46 822.02,-288.24 781,-259.13 754.28,-240.17 727.2,-214.63 707.97,-195.18"/>
<polygon fill="#06f932" stroke="black" points="710.52,-192.79 701.03,-188.07 705.51,-197.68 710.52,-192.79"/>
</g>
<!-- numpy&#45;&gt;pm_torch_walk_forward -->
<g id="edge17" class="edge">
<title>numpy&#45;&gt;pm_torch_walk_forward</title><style>.edge>path:hover{stroke-width:8}</style>
<path fill="none" stroke="black" d="M985,-240.13C995.51,-220.24 1013.9,-203.65 1031.25,-191.29"/>
<polygon fill="#06f932" stroke="black" points="1033.16,-194.23 1039.48,-185.72 1029.24,-188.43 1033.16,-194.23"/>
</g>
<!-- pm_utils -->
<g id="node16" class="node">
<title>pm_utils</title><style>.edge>path:hover{stroke-width:8}</style>
<ellipse fill="#409dc0" stroke="black" cx="140" cy="-241.13" rx="29.88" ry="18"/>
<text text-anchor="middle" x="140" y="-237.26" font-family="Helvetica,sans-Serif" font-size="10.00" fill="#000000">pm.utils</text>
</g>
<!-- numpy&#45;&gt;pm_utils -->
<g id="edge18" class="edge">
<title>numpy&#45;&gt;pm_utils</title><style>.edge>path:hover{stroke-width:8}</style>
<path fill="none" stroke="black" d="M82,-312.13C70.29,-292.91 89.64,-273.37 109.07,-259.84"/>
<polygon fill="#06f932" stroke="black" points="110.75,-262.93 117.21,-254.54 106.92,-257.06 110.75,-262.93"/>
</g>
<!-- sklearn -->
<g id="node18" class="node">
<title>sklearn</title><style>.edge>path:hover{stroke-width:8}</style>
<polygon fill="#6631c4" stroke="black" points="380,-331.13 377,-335.13 356,-335.13 353,-331.13 326,-331.13 326,-295.13 380,-295.13 380,-331.13"/>
<text text-anchor="middle" x="353" y="-309.26" font-family="Helvetica,sans-Serif" font-size="10.00" fill="#ffffff">sklearn</text>
</g>
<!-- numpy&#45;&gt;sklearn -->
<g id="edge19" class="edge">
<title>numpy&#45;&gt;sklearn</title><style>.edge>path:hover{stroke-width:8}</style>
<path fill="none" stroke="black" d="M662,-367.13C629.67,-318.88 465.63,-345.36 391.3,-330.75"/>
<polygon fill="#06f932" stroke="black" points="392.19,-327.36 381.64,-328.39 390.53,-334.16 392.19,-327.36"/>
</g>
<!-- pandas -->
<g id="node6" class="node">
<title>pandas</title><style>.edge>path:hover{stroke-width:8}</style>
<polygon fill="#06f9b7" stroke="black" points="634,-331.13 631,-335.13 610,-335.13 607,-331.13 580,-331.13 580,-295.13 634,-295.13 634,-331.13"/>
<text text-anchor="middle" x="607" y="-309.26" font-family="Helvetica,sans-Serif" font-size="10.00" fill="#000000">pandas</text>
</g>
<!-- pandas&#45;&gt;pm_cvxpylayers -->
<g id="edge20" class="edge">
<title>pandas&#45;&gt;pm_cvxpylayers</title><style>.edge>path:hover{stroke-width:8}</style>
<path fill="none" stroke="black" d="M442,-240.13C429.8,-235.45 429.4,-229.54 418,-223.13 390.41,-207.63 357.73,-193.51 331.92,-183.26"/>
<polygon fill="#06f9b7" stroke="black" points="333.31,-180.04 322.72,-179.66 330.76,-186.56 333.31,-180.04"/>
</g>
<!-- pandas&#45;&gt;pm_main -->
<g id="edge21" class="edge">
<title>pandas&#45;&gt;pm_main</title><style>.edge>path:hover{stroke-width:8}</style>
<path fill="none" stroke="black" d="M442,-240.13C438.94,-238.96 264.44,-196.1 183.92,-176.35"/>
<polygon fill="#06f9b7" stroke="black" points="184.77,-172.96 174.23,-173.98 183.1,-179.76 184.77,-172.96"/>
<path fill="none" stroke="black" d="M579.62,-298.82C576.73,-297.53 573.82,-296.28 571,-295.13 525.29,-276.57 509.91,-281.62 466,-259.13 454.37,-253.18 454.2,-246.82 442,-242.13"/>
</g>
<!-- pandas&#45;&gt;pm_pca_risk_parity -->
<g id="edge22" class="edge">
<title>pandas&#45;&gt;pm_pca_risk_parity</title><style>.edge>path:hover{stroke-width:8}</style>
<path fill="none" stroke="black" d="M598.08,-294.67C590.44,-280.21 578.83,-259.31 567,-242.13"/>
</g>
<!-- pandas&#45;&gt;pm_risk_parity_walk_forward -->
<g id="edge23" class="edge">
<title>pandas&#45;&gt;pm_risk_parity_walk_forward</title><style>.edge>path:hover{stroke-width:8}</style>
<path fill="none" stroke="black" d="M633.32,-294.8C655.77,-280.22 689.08,-259.1 719,-242.13"/>
</g>
<!-- pandas&#45;&gt;pm_torch -->
<g id="edge24" class="edge">
<title>pandas&#45;&gt;pm_torch</title><style>.edge>path:hover{stroke-width:8}</style>
<path fill="none" stroke="black" d="M579.51,-298.83C543.91,-281.33 485.7,-251.67 480,-242.13"/>
</g>
<!-- pandas&#45;&gt;pm_torch_model_variable_step_size -->
<g id="edge25" class="edge">
<title>pandas&#45;&gt;pm_torch_model_variable_step_size</title><style>.edge>path:hover{stroke-width:8}</style>
<path fill="none" stroke="black" d="M614.1,-294.91C620.56,-280.21 630.92,-258.86 643,-242.13"/>
</g>
<!-- pandas&#45;&gt;pm_torch_walk_forward -->
<g id="edge26" class="edge">
<title>pandas&#45;&gt;pm_torch_walk_forward</title><style>.edge>path:hover{stroke-width:8}</style>
<path fill="none" stroke="black" d="M634.22,-301.44C670.63,-287.26 737.3,-261.75 795,-242.13"/>
</g>
<!-- pm___main__ -->
<g id="node7" class="node">
<title>pm___main__</title><style>.edge>path:hover{stroke-width:8}</style>
<ellipse fill="#4991ac" stroke="black" cx="144" cy="-18" rx="44.08" ry="18"/>
<text text-anchor="middle" x="144" y="-14.12" font-family="Helvetica,sans-Serif" font-size="10.00" fill="#ffffff">pm.__main__</text>
</g>
<!-- pm_cli&#45;&gt;pm___main__ -->
<g id="edge27" class="edge">
<title>pm_cli&#45;&gt;pm___main__</title><style>.edge>path:hover{stroke-width:8}</style>
<path fill="none" stroke="black" d="M144,-71.7C144,-64.41 144,-55.73 144,-47.54"/>
<polygon fill="#3583a1" stroke="black" points="147.5,-47.62 144,-37.62 140.5,-47.62 147.5,-47.62"/>
</g>
<!-- pm_main&#45;&gt;pm_cli -->
<g id="edge28" class="edge">
<title>pm_main&#45;&gt;pm_cli</title><style>.edge>path:hover{stroke-width:8}</style>
<path fill="none" stroke="black" d="M144,-147.13C144,-138.89 144,-128.83 144,-119.51"/>
<polygon fill="#265e73" stroke="black" points="147.5,-119.82 144,-109.82 140.5,-119.82 147.5,-119.82"/>
</g>
<!-- pm_utils&#45;&gt;pm_main -->
<g id="edge29" class="edge">
<title>pm_utils&#45;&gt;pm_main</title><style>.edge>path:hover{stroke-width:8}</style>
<path fill="none" stroke="black" d="M140.95,-222.7C141.4,-214.45 141.94,-204.39 142.45,-195.08"/>
<polygon fill="#409dc0" stroke="black" points="145.93,-195.56 142.98,-185.39 138.94,-195.18 145.93,-195.56"/>
</g>
<!-- skfolio -->
<g id="node17" class="node">
<title>skfolio</title><style>.edge>path:hover{stroke-width:8}</style>
<polygon fill="#334fcc" stroke="black" points="164,-331.13 161,-335.13 140,-335.13 137,-331.13 110,-331.13 110,-295.13 164,-295.13 164,-331.13"/>
<text text-anchor="middle" x="137" y="-309.26" font-family="Helvetica,sans-Serif" font-size="10.00" fill="#ffffff">skfolio</text>
</g>
<!-- skfolio&#45;&gt;pm_main -->
<g id="edge30" class="edge">
<title>skfolio&#45;&gt;pm_main</title><style>.edge>path:hover{stroke-width:8}</style>
<path fill="none" stroke="black" d="M209,-240.13C192.79,-224.82 176.17,-205.94 163.79,-191.14"/>
<polygon fill="#334fcc" stroke="black" points="166.71,-189.17 157.64,-183.69 161.31,-193.63 166.71,-189.17"/>
<path fill="none" stroke="black" d="M163.15,-294.67C187.71,-277.29 219.26,-251.83 209,-242.13"/>
</g>
<!-- sklearn&#45;&gt;pm_main -->
<g id="edge31" class="edge">
<title>sklearn&#45;&gt;pm_main</title><style>.edge>path:hover{stroke-width:8}</style>
<path fill="none" stroke="black" d="M325.79,-299.16C284.7,-279.53 211.32,-244.33 209,-242.13"/>
</g>
<!-- sklearn&#45;&gt;pm_torch -->
<g id="edge32" class="edge">
<title>sklearn&#45;&gt;pm_torch</title><style>.edge>path:hover{stroke-width:8}</style>
<path fill="none" stroke="black" d="M480,-240.13C465.66,-216.14 440.37,-196.9 419.78,-184.12"/>
<polygon fill="#6631c4" stroke="black" points="421.8,-181.26 411.42,-179.15 418.22,-187.27 421.8,-181.26"/>
<path fill="none" stroke="black" d="M380.38,-298.73C418.58,-279.81 482.91,-247.01 480,-242.13"/>
</g>
<!-- tqdm -->
<g id="node19" class="node">
<title>tqdm</title><style>.edge>path:hover{stroke-width:8}</style>
<polygon fill="#e306f9" stroke="black" points="562,-331.13 559,-335.13 538,-335.13 535,-331.13 508,-331.13 508,-295.13 562,-295.13 562,-331.13"/>
<text text-anchor="middle" x="535" y="-309.26" font-family="Helvetica,sans-Serif" font-size="10.00" fill="#ffffff">tqdm</text>
</g>
<!-- tqdm&#45;&gt;pm_cvxpylayers -->
<g id="edge33" class="edge">
<title>tqdm&#45;&gt;pm_cvxpylayers</title><style>.edge>path:hover{stroke-width:8}</style>
<path fill="none" stroke="black" d="M507.56,-299.98C485.56,-289.91 454.17,-274.75 428,-259.13 416.78,-252.43 414.28,-250.21 404,-242.13"/>
</g>
<!-- tqdm&#45;&gt;pm_main -->
<g id="edge34" class="edge">
<title>tqdm&#45;&gt;pm_main</title><style>.edge>path:hover{stroke-width:8}</style>
<path fill="none" stroke="black" d="M507.94,-299.98C503.35,-298.19 498.58,-296.49 494,-295.13 370.48,-258.48 302.65,-330.62 209,-242.13"/>
</g>
<!-- tqdm&#45;&gt;pm_pca_risk_parity -->
<g id="edge35" class="edge">
<title>tqdm&#45;&gt;pm_pca_risk_parity</title><style>.edge>path:hover{stroke-width:8}</style>
<path fill="none" stroke="black" d="M552.51,-294.85C565.25,-280.12 578.44,-258.75 567,-242.13"/>
<path fill="none" stroke="black" d="M567,-240.13C555.33,-223.19 539.6,-206.61 525.82,-193.49"/>
<polygon fill="#e306f9" stroke="black" points="528.36,-191.08 518.65,-186.83 523.59,-196.2 528.36,-191.08"/>
</g>
<!-- tqdm&#45;&gt;pm_risk_parity_walk_forward -->
<g id="edge36" class="edge">
<title>tqdm&#45;&gt;pm_risk_parity_walk_forward</title><style>.edge>path:hover{stroke-width:8}</style>
<path fill="none" stroke="black" d="M719,-240.13C756.3,-218.98 800.89,-200.56 836.12,-187.44"/>
<polygon fill="#e306f9" stroke="black" points="837.13,-190.8 845.31,-184.07 834.71,-184.23 837.13,-190.8"/>
<path fill="none" stroke="black" d="M562.39,-298.86C565.28,-297.56 568.19,-296.3 571,-295.13 635.55,-268.41 658.23,-276.6 719,-242.13"/>
</g>
<!-- tqdm&#45;&gt;pm_torch -->
<g id="edge37" class="edge">
<title>tqdm&#45;&gt;pm_torch</title><style>.edge>path:hover{stroke-width:8}</style>
<path fill="none" stroke="black" d="M519.43,-294.92C507.61,-281.27 491.49,-261.37 480,-242.13"/>
</g>
<!-- tqdm&#45;&gt;pm_torch_model_variable_step_size -->
<g id="edge38" class="edge">
<title>tqdm&#45;&gt;pm_torch_model_variable_step_size</title><style>.edge>path:hover{stroke-width:8}</style>
<path fill="none" stroke="black" d="M562.4,-297.41C590.71,-281.69 632.24,-257.03 643,-242.13"/>
<path fill="none" stroke="black" d="M643,-240.13C652.43,-227.08 660.89,-211.36 667.41,-197.81"/>
<polygon fill="#e306f9" stroke="black" points="670.53,-199.41 671.58,-188.87 664.18,-196.46 670.53,-199.41"/>
</g>
<!-- tqdm&#45;&gt;pm_torch_walk_forward -->
<g id="edge39" class="edge">
<title>tqdm&#45;&gt;pm_torch_walk_forward</title><style>.edge>path:hover{stroke-width:8}</style>
<path fill="none" stroke="black" d="M795,-240.13C805.33,-236.62 930.93,-203.79 1010.05,-183.19"/>
<polygon fill="#e306f9" stroke="black" points="1010.63,-186.65 1019.42,-180.75 1008.86,-179.88 1010.63,-186.65"/>
<path fill="none" stroke="black" d="M562.26,-298.49C565.17,-297.27 568.12,-296.12 571,-295.13 667.79,-261.99 698.14,-275.07 795,-242.13"/>
</g>
<!-- utils -->
<g id="node20" class="node">
<title>utils</title><style>.edge>path:hover{stroke-width:8}</style>
<polygon fill="blue" stroke="black" points="308,-331.13 305,-335.13 284,-335.13 281,-331.13 254,-331.13 254,-295.13 308,-295.13 308,-331.13"/>
<text text-anchor="middle" x="281" y="-309.26" font-family="Helvetica,sans-Serif" font-size="10.00" fill="#fbf8ef">utils</text>
</g>
<!-- utils&#45;&gt;pm_cli -->
<g id="edge40" class="edge">
<title>utils&#45;&gt;pm_cli</title><style>.edge>path:hover{stroke-width:8}</style>
<path fill="none" stroke="black" d="M272.22,-294.96C256.16,-264 220.46,-197.12 185,-144 178.55,-134.34 170.89,-124.15 163.95,-115.31"/>
<polygon fill="blue" stroke="black" points="166.71,-113.16 157.73,-107.53 161.24,-117.53 166.71,-113.16"/>
</g>
<!-- utils&#45;&gt;pm_main -->
<g id="edge41" class="edge">
<title>utils&#45;&gt;pm_main</title><style>.edge>path:hover{stroke-width:8}</style>
<path fill="none" stroke="black" d="M263.38,-294.73C248.89,-280.48 227.75,-259.85 209,-242.13"/>
</g>
</g>
</svg>
