<?xml version="1.0" encoding="UTF-8" standalone="no"?>
<!DOCTYPE svg PUBLIC "-//W3C//DTD SVG 1.1//EN"
 "http://www.w3.org/Graphics/SVG/1.1/DTD/svg11.dtd">
<!-- Generated by graphviz version 12.2.1 (20241206.2353)
 -->
<!-- Title: G Pages: 1 -->
<svg width="1351pt" height="736pt"
 viewBox="0.00 0.00 1351.00 736.13" xmlns="http://www.w3.org/2000/svg" xmlns:xlink="http://www.w3.org/1999/xlink">
<g id="graph0" class="graph" transform="scale(1 1) rotate(0) translate(4 732.13)">
<title>G</title><style>.edge>path:hover{stroke-width:8}</style>
<polygon fill="#fbf8ef" stroke="none" points="-4,4 -4,-732.13 1347,-732.13 1347,4 -4,4"/>
<!-- click -->
<g id="node1" class="node">
<title>click</title><style>.edge>path:hover{stroke-width:8}</style>
<polygon fill="#b65353" stroke="black" points="54,-252 51,-256 30,-256 27,-252 0,-252 0,-216 54,-216 54,-252"/>
<text text-anchor="middle" x="27" y="-230.12" font-family="Helvetica,sans-Serif" font-size="10.00" fill="#ffffff">click</text>
</g>
<!-- pm_cli -->
<g id="node8" class="node">
<title>pm_cli</title><style>.edge>path:hover{stroke-width:8}</style>
<ellipse fill="#3583a1" stroke="black" cx="956" cy="-90" rx="27" ry="18"/>
<text text-anchor="middle" x="956" y="-86.12" font-family="Helvetica,sans-Serif" font-size="10.00" fill="#ffffff">pm.cli</text>
</g>
<!-- click&#45;&gt;pm_cli -->
<g id="edge1" class="edge">
<title>click&#45;&gt;pm_cli</title><style>.edge>path:hover{stroke-width:8}</style>
<path fill="none" stroke="black" d="M54.46,-220.5C58.92,-218.8 63.54,-217.22 68,-216 389.19,-128.33 793.43,-99.91 917.83,-92.92"/>
<polygon fill="#b65353" stroke="black" points="917.68,-96.43 927.47,-92.39 917.3,-89.44 917.68,-96.43"/>
</g>
<!-- cvxpy -->
<g id="node2" class="node">
<title>cvxpy</title><style>.edge>path:hover{stroke-width:8}</style>
<polygon fill="#c08540" stroke="black" points="704,-619.13 701,-623.13 680,-623.13 677,-619.13 650,-619.13 650,-583.13 704,-583.13 704,-619.13"/>
<text text-anchor="middle" x="677" y="-597.26" font-family="Helvetica,sans-Serif" font-size="10.00" fill="#000000">cvxpy</text>
</g>
<!-- pm_cvxpylayers -->
<g id="node9" class="node">
<title>pm_cvxpylayers</title><style>.edge>path:hover{stroke-width:8}</style>
<ellipse fill="#3a7288" stroke="black" cx="713" cy="-453.57" rx="50.29" ry="18"/>
<text text-anchor="middle" x="713" y="-449.69" font-family="Helvetica,sans-Serif" font-size="10.00" fill="#ffffff">pm.cvxpylayers</text>
</g>
<!-- cvxpy&#45;&gt;pm_cvxpylayers -->
<g id="edge2" class="edge">
<title>cvxpy&#45;&gt;pm_cvxpylayers</title><style>.edge>path:hover{stroke-width:8}</style>
<path fill="none" stroke="black" d="M681.27,-582.86C687.39,-558.13 698.71,-512.34 706.05,-482.69"/>
<polygon fill="#c08540" stroke="black" points="709.37,-483.83 708.37,-473.28 702.57,-482.15 709.37,-483.83"/>
</g>
<!-- ff -->
<g id="node3" class="node">
<title>ff</title><style>.edge>path:hover{stroke-width:8}</style>
<polygon fill="#b4c040" stroke="black" points="408,-471.57 405,-475.57 384,-475.57 381,-471.57 354,-471.57 354,-435.57 408,-435.57 408,-471.57"/>
<text text-anchor="middle" x="381" y="-449.69" font-family="Helvetica,sans-Serif" font-size="10.00" fill="#000000">ff</text>
</g>
<!-- pm_pipelines -->
<g id="node12" class="node">
<title>pm_pipelines</title><style>.edge>path:hover{stroke-width:8}</style>
<ellipse fill="#28647a" stroke="black" cx="152" cy="-306" rx="41.86" ry="18"/>
<text text-anchor="middle" x="152" y="-302.12" font-family="Helvetica,sans-Serif" font-size="10.00" fill="#ffffff">pm.pipelines</text>
</g>
<!-- ff&#45;&gt;pm_pipelines -->
<g id="edge3" class="edge">
<title>ff&#45;&gt;pm_pipelines</title><style>.edge>path:hover{stroke-width:8}</style>
<path fill="none" stroke="black" d="M353.56,-437.84C349.09,-435.72 344.47,-433.69 340,-432 254,-399.43 178.41,-462.55 140,-379"/>
</g>
<!-- matplotlib -->
<g id="node4" class="node">
<title>matplotlib</title><style>.edge>path:hover{stroke-width:8}</style>
<polygon fill="blue" stroke="black" points="543,-619.13 540,-623.13 519,-623.13 516,-619.13 485,-619.13 485,-583.13 543,-583.13 543,-619.13"/>
<text text-anchor="middle" x="514" y="-597.26" font-family="Helvetica,sans-Serif" font-size="10.00" fill="#fbf8ef">matplotlib</text>
</g>
<!-- matplotlib&#45;&gt;pm_cvxpylayers -->
<g id="edge4" class="edge">
<title>matplotlib&#45;&gt;pm_cvxpylayers</title><style>.edge>path:hover{stroke-width:8}</style>
<path fill="none" stroke="black" d="M601,-528.13C621.62,-505.53 650.62,-486.73 673.94,-473.79"/>
<polygon fill="blue" stroke="black" points="675.4,-476.99 682.55,-469.16 672.08,-470.82 675.4,-476.99"/>
<path fill="none" stroke="black" d="M539.74,-582.67C558.06,-569.51 582.58,-550.33 601,-530.13"/>
</g>
<!-- pm_pca_risk_parity -->
<g id="node11" class="node">
<title>pm_pca_risk_parity</title><style>.edge>path:hover{stroke-width:8}</style>
<ellipse fill="#407f96" stroke="black" cx="168" cy="-453.57" rx="57.98" ry="21.57"/>
<text text-anchor="middle" x="168" y="-455.32" font-family="Helvetica,sans-Serif" font-size="10.00" fill="#ffffff">pm.</text>
<text text-anchor="middle" x="168" y="-444.07" font-family="Helvetica,sans-Serif" font-size="10.00" fill="#ffffff">pca_risk_parity</text>
</g>
<!-- matplotlib&#45;&gt;pm_pca_risk_parity -->
<g id="edge5" class="edge">
<title>matplotlib&#45;&gt;pm_pca_risk_parity</title><style>.edge>path:hover{stroke-width:8}</style>
<path fill="none" stroke="black" d="M484.52,-591.45C457.02,-582.63 415.48,-567.37 383,-547.13 373.38,-541.14 374.65,-534.01 364,-530.13"/>
</g>
<!-- pm_risk_parity_walk_forward -->
<g id="node14" class="node">
<title>pm_risk_parity_walk_forward</title><style>.edge>path:hover{stroke-width:8}</style>
<ellipse fill="#407f96" stroke="black" cx="1145" cy="-453.57" rx="87.68" ry="21.57"/>
<text text-anchor="middle" x="1145" y="-455.32" font-family="Helvetica,sans-Serif" font-size="10.00" fill="#ffffff">pm.</text>
<text text-anchor="middle" x="1145" y="-444.07" font-family="Helvetica,sans-Serif" font-size="10.00" fill="#ffffff">risk_parity_walk_forward</text>
</g>
<!-- matplotlib&#45;&gt;pm_risk_parity_walk_forward -->
<g id="edge6" class="edge">
<title>matplotlib&#45;&gt;pm_risk_parity_walk_forward</title><style>.edge>path:hover{stroke-width:8}</style>
<path fill="none" stroke="black" d="M543.14,-595.5C599.29,-586.18 726.05,-563.17 829,-530.13"/>
<path fill="none" stroke="black" d="M829,-528.13C872.99,-514.02 990.35,-487.79 1068.99,-470.76"/>
<polygon fill="blue" stroke="black" points="1069.3,-474.28 1078.34,-468.74 1067.82,-467.43 1069.3,-474.28"/>
</g>
<!-- pm_torch -->
<g id="node15" class="node">
<title>pm_torch</title><style>.edge>path:hover{stroke-width:8}</style>
<ellipse fill="#3a7288" stroke="black" cx="496" cy="-378" rx="32.1" ry="18"/>
<text text-anchor="middle" x="496" y="-374.12" font-family="Helvetica,sans-Serif" font-size="10.00" fill="#ffffff">pm.torch</text>
</g>
<!-- matplotlib&#45;&gt;pm_torch -->
<g id="edge7" class="edge">
<title>matplotlib&#45;&gt;pm_torch</title><style>.edge>path:hover{stroke-width:8}</style>
<path fill="none" stroke="black" d="M495.45,-582.78C483.38,-569.37 470.49,-549.84 474,-530.13"/>
</g>
<!-- pm_torch_model_variable_step_size -->
<g id="node16" class="node">
<title>pm_torch_model_variable_step_size</title><style>.edge>path:hover{stroke-width:8}</style>
<ellipse fill="#3d798f" stroke="black" cx="929" cy="-453.57" rx="109.96" ry="21.57"/>
<text text-anchor="middle" x="929" y="-455.32" font-family="Helvetica,sans-Serif" font-size="10.00" fill="#ffffff">pm.</text>
<text text-anchor="middle" x="929" y="-444.07" font-family="Helvetica,sans-Serif" font-size="10.00" fill="#ffffff">torch_model_variable_step_size</text>
</g>
<!-- matplotlib&#45;&gt;pm_torch_model_variable_step_size -->
<g id="edge8" class="edge">
<title>matplotlib&#45;&gt;pm_torch_model_variable_step_size</title><style>.edge>path:hover{stroke-width:8}</style>
<path fill="none" stroke="black" d="M543.18,-589.9C609.93,-566.48 774.99,-508.59 866.1,-476.63"/>
<polygon fill="blue" stroke="black" points="867.13,-479.98 875.4,-473.37 864.81,-473.37 867.13,-479.98"/>
</g>
<!-- pm_torch_walk_forward -->
<g id="node17" class="node">
<title>pm_torch_walk_forward</title><style>.edge>path:hover{stroke-width:8}</style>
<ellipse fill="#407f96" stroke="black" cx="573" cy="-453.57" rx="71.24" ry="21.57"/>
<text text-anchor="middle" x="573" y="-455.32" font-family="Helvetica,sans-Serif" font-size="10.00" fill="#ffffff">pm.</text>
<text text-anchor="middle" x="573" y="-444.07" font-family="Helvetica,sans-Serif" font-size="10.00" fill="#ffffff">torch_walk_forward</text>
</g>
<!-- matplotlib&#45;&gt;pm_torch_walk_forward -->
<g id="edge9" class="edge">
<title>matplotlib&#45;&gt;pm_torch_walk_forward</title><style>.edge>path:hover{stroke-width:8}</style>
<path fill="none" stroke="black" d="M519.83,-582.75C524.69,-568.5 531.94,-547.88 539,-530.13"/>
</g>
<!-- numpy -->
<g id="node5" class="node">
<title>numpy</title><style>.edge>path:hover{stroke-width:8}</style>
<polygon fill="#06f932" stroke="black" points="636,-728.13 633,-732.13 612,-732.13 609,-728.13 582,-728.13 582,-692.13 636,-692.13 636,-728.13"/>
<text text-anchor="middle" x="609" y="-706.26" font-family="Helvetica,sans-Serif" font-size="10.00" fill="#000000">numpy</text>
</g>
<!-- numpy&#45;&gt;matplotlib -->
<g id="edge10" class="edge">
<title>numpy&#45;&gt;matplotlib</title><style>.edge>path:hover{stroke-width:8}</style>
<path fill="none" stroke="black" d="M457,-655.13C446.84,-642.34 458.99,-629.81 474.65,-620.15"/>
<polygon fill="#06f932" stroke="black" points="476.34,-623.21 483.36,-615.26 472.92,-617.1 476.34,-623.21"/>
</g>
<!-- numpy&#45;&gt;pm_cvxpylayers -->
<g id="edge11" class="edge">
<title>numpy&#45;&gt;pm_cvxpylayers</title><style>.edge>path:hover{stroke-width:8}</style>
<path fill="none" stroke="black" d="M601.12,-691.67C586.43,-656.17 559.91,-575.18 601,-530.13"/>
</g>
<!-- pm_main -->
<g id="node10" class="node">
<title>pm_main</title><style>.edge>path:hover{stroke-width:8}</style>
<ellipse fill="#2b6a82" stroke="black" cx="956" cy="-162" rx="31.66" ry="18"/>
<text text-anchor="middle" x="956" y="-158.12" font-family="Helvetica,sans-Serif" font-size="10.00" fill="#ffffff">pm.main</text>
</g>
<!-- numpy&#45;&gt;pm_main -->
<g id="edge12" class="edge">
<title>numpy&#45;&gt;pm_main</title><style>.edge>path:hover{stroke-width:8}</style>
<path fill="none" stroke="black" d="M457,-655.13C432.12,-622.32 406.11,-634.77 381,-602.13"/>
<path fill="none" stroke="black" d="M82,-452.57C69.41,-424.75 52.08,-425.16 43,-396 38.24,-380.72 38.01,-375.2 43,-360 52.12,-332.21 76.44,-335.71 82,-307"/>
<path fill="none" stroke="black" d="M381,-600.13C320.24,-521.15 244.87,-593.54 168,-530.13"/>
<path fill="none" stroke="black" d="M168,-528.13C129.2,-496.13 100.99,-501.14 82,-454.57"/>
<path fill="none" stroke="black" d="M581.55,-708.25C546.38,-705.5 486.46,-694.99 457,-656.13"/>
<path fill="none" stroke="black" d="M82,-305C93.72,-220.72 738.95,-176 913.09,-165.46"/>
<polygon fill="#06f932" stroke="black" points="913.05,-168.97 922.82,-164.88 912.63,-161.98 913.05,-168.97"/>
</g>
<!-- numpy&#45;&gt;pm_pca_risk_parity -->
<g id="edge13" class="edge">
<title>numpy&#45;&gt;pm_pca_risk_parity</title><style>.edge>path:hover{stroke-width:8}</style>
<path fill="none" stroke="black" d="M168,-528.13C156.14,-518.35 155.43,-501.52 158.01,-486.41"/>
<polygon fill="#06f932" stroke="black" points="161.39,-487.35 160.16,-476.83 154.56,-485.82 161.39,-487.35"/>
</g>
<!-- numpy&#45;&gt;pm_pipelines -->
<g id="edge14" class="edge">
<title>numpy&#45;&gt;pm_pipelines</title><style>.edge>path:hover{stroke-width:8}</style>
<path fill="none" stroke="black" d="M140,-377C133.98,-363.92 135.96,-348.2 139.88,-334.98"/>
<polygon fill="#06f932" stroke="black" points="143.17,-336.15 143.17,-325.56 136.57,-333.84 143.17,-336.15"/>
<path fill="none" stroke="black" d="M82,-452.57C64.83,-414.63 157.39,-416.83 140,-379"/>
</g>
<!-- numpy&#45;&gt;pm_risk_parity_walk_forward -->
<g id="edge15" class="edge">
<title>numpy&#45;&gt;pm_risk_parity_walk_forward</title><style>.edge>path:hover{stroke-width:8}</style>
<path fill="none" stroke="black" d="M1223,-600.13C1230.53,-559.86 1219.1,-546.83 1199,-511.13 1193.25,-500.93 1185.25,-491.18 1177.16,-482.74"/>
<polygon fill="#06f932" stroke="black" points="1179.77,-480.39 1170.2,-475.83 1174.83,-485.36 1179.77,-480.39"/>
</g>
<!-- numpy&#45;&gt;pm_torch -->
<g id="edge16" class="edge">
<title>numpy&#45;&gt;pm_torch</title><style>.edge>path:hover{stroke-width:8}</style>
<path fill="none" stroke="black" d="M474,-528.13C481.46,-486.24 488.32,-437.4 492.33,-407.34"/>
<polygon fill="#06f932" stroke="black" points="495.79,-407.92 493.62,-397.55 488.85,-407.01 495.79,-407.92"/>
<path fill="none" stroke="black" d="M381,-600.13C349.46,-559.13 461.01,-580.21 474,-530.13"/>
</g>
<!-- numpy&#45;&gt;pm_torch_model_variable_step_size -->
<g id="edge17" class="edge">
<title>numpy&#45;&gt;pm_torch_model_variable_step_size</title><style>.edge>path:hover{stroke-width:8}</style>
<path fill="none" stroke="black" d="M636.24,-703.79C653.85,-700.37 677.26,-695.89 698,-692.13 814.47,-671.03 1238.23,-719.52 1223,-602.13"/>
<path fill="none" stroke="black" d="M1185,-528.13C1156.76,-509.06 1076.17,-487.56 1012.88,-472.75"/>
<polygon fill="#06f932" stroke="black" points="1013.68,-469.35 1003.15,-470.5 1012.1,-476.17 1013.68,-469.35"/>
<path fill="none" stroke="black" d="M1223,-600.13C1229.51,-565.34 1214.33,-549.95 1185,-530.13"/>
</g>
<!-- numpy&#45;&gt;pm_torch_walk_forward -->
<g id="edge18" class="edge">
<title>numpy&#45;&gt;pm_torch_walk_forward</title><style>.edge>path:hover{stroke-width:8}</style>
<path fill="none" stroke="black" d="M457,-655.13C436.42,-629.22 458.29,-611.09 476,-583.13 495.58,-552.22 525.48,-564.13 539,-530.13"/>
<path fill="none" stroke="black" d="M539,-528.13C544.43,-513.85 551.37,-498.45 557.56,-485.44"/>
<polygon fill="#06f932" stroke="black" points="560.67,-487.05 561.88,-476.53 554.37,-484 560.67,-487.05"/>
</g>
<!-- pm_utils -->
<g id="node18" class="node">
<title>pm_utils</title><style>.edge>path:hover{stroke-width:8}</style>
<ellipse fill="#33a2cc" stroke="black" cx="82" cy="-378" rx="29.88" ry="18"/>
<text text-anchor="middle" x="82" y="-374.12" font-family="Helvetica,sans-Serif" font-size="10.00" fill="#000000">pm.utils</text>
</g>
<!-- numpy&#45;&gt;pm_utils -->
<g id="edge19" class="edge">
<title>numpy&#45;&gt;pm_utils</title><style>.edge>path:hover{stroke-width:8}</style>
<path fill="none" stroke="black" d="M82,-452.57C75.66,-438.57 75.28,-421.48 76.66,-407.29"/>
<polygon fill="#06f932" stroke="black" points="80.09,-408.07 77.94,-397.7 73.15,-407.15 80.09,-408.07"/>
</g>
<!-- sklearn -->
<g id="node20" class="node">
<title>sklearn</title><style>.edge>path:hover{stroke-width:8}</style>
<polygon fill="blue" stroke="black" points="446,-547.13 443,-551.13 422,-551.13 419,-547.13 392,-547.13 392,-511.13 446,-511.13 446,-547.13"/>
<text text-anchor="middle" x="419" y="-525.26" font-family="Helvetica,sans-Serif" font-size="10.00" fill="#fbf8ef">sklearn</text>
</g>
<!-- numpy&#45;&gt;sklearn -->
<g id="edge20" class="edge">
<title>numpy&#45;&gt;sklearn</title><style>.edge>path:hover{stroke-width:8}</style>
<path fill="none" stroke="black" d="M381,-600.13C370.46,-586.43 379.28,-569.41 391.07,-555.59"/>
<polygon fill="#06f932" stroke="black" points="393.36,-558.26 397.61,-548.56 388.23,-553.49 393.36,-558.26"/>
</g>
<!-- pandas -->
<g id="node6" class="node">
<title>pandas</title><style>.edge>path:hover{stroke-width:8}</style>
<polygon fill="#06f9b7" stroke="black" points="761,-728.13 758,-732.13 737,-732.13 734,-728.13 707,-728.13 707,-692.13 761,-692.13 761,-728.13"/>
<text text-anchor="middle" x="734" y="-706.26" font-family="Helvetica,sans-Serif" font-size="10.00" fill="#000000">pandas</text>
</g>
<!-- pandas&#45;&gt;pm_cvxpylayers -->
<g id="edge21" class="edge">
<title>pandas&#45;&gt;pm_cvxpylayers</title><style>.edge>path:hover{stroke-width:8}</style>
<path fill="none" stroke="black" d="M734,-655.13C718.48,-626.09 714.43,-531.42 713.37,-483.26"/>
<polygon fill="#06f9b7" stroke="black" points="716.87,-483.26 713.19,-473.33 709.88,-483.4 716.87,-483.26"/>
</g>
<!-- pandas&#45;&gt;pm_main -->
<g id="edge22" class="edge">
<title>pandas&#45;&gt;pm_main</title><style>.edge>path:hover{stroke-width:8}</style>
<path fill="none" stroke="black" d="M1261,-452.57C1240.24,-427.31 1241.74,-405.42 1261,-379"/>
</g>
<!-- pandas&#45;&gt;pm_pca_risk_parity -->
<g id="edge23" class="edge">
<title>pandas&#45;&gt;pm_pca_risk_parity</title><style>.edge>path:hover{stroke-width:8}</style>
<path fill="none" stroke="black" d="M706.55,-703.82C636.72,-689.72 455.28,-649.19 419,-602.13"/>
<path fill="none" stroke="black" d="M364,-528.13C314.36,-510.08 257.91,-488.81 218.38,-473.8"/>
<polygon fill="#06f9b7" stroke="black" points="219.71,-470.56 209.12,-470.28 217.22,-477.1 219.71,-470.56"/>
<path fill="none" stroke="black" d="M419,-600.13C405.97,-585.25 382.59,-536.9 364,-530.13"/>
</g>
<!-- pandas&#45;&gt;pm_risk_parity_walk_forward -->
<g id="edge24" class="edge">
<title>pandas&#45;&gt;pm_risk_parity_walk_forward</title><style>.edge>path:hover{stroke-width:8}</style>
<path fill="none" stroke="black" d="M1261,-528.13C1252.82,-504.05 1231.32,-487.26 1209.02,-475.87"/>
<polygon fill="#06f9b7" stroke="black" points="1210.66,-472.78 1200.13,-471.66 1207.67,-479.11 1210.66,-472.78"/>
<path fill="none" stroke="black" d="M1261,-600.13C1259.75,-569.05 1271,-559.59 1261,-530.13"/>
</g>
<!-- pandas&#45;&gt;pm_torch -->
<g id="edge25" class="edge">
<title>pandas&#45;&gt;pm_torch</title><style>.edge>path:hover{stroke-width:8}</style>
<path fill="none" stroke="black" d="M1261,-452.57C1253.1,-442.95 1253.22,-437.39 1242,-432 1178.69,-401.58 689.4,-384.72 539.5,-380.23"/>
<polygon fill="#06f9b7" stroke="black" points="539.7,-376.73 529.6,-379.94 539.49,-383.73 539.7,-376.73"/>
<path fill="none" stroke="black" d="M1261,-528.13C1250.49,-497.17 1281.76,-479.83 1261,-454.57"/>
</g>
<!-- pandas&#45;&gt;pm_torch_model_variable_step_size -->
<g id="edge26" class="edge">
<title>pandas&#45;&gt;pm_torch_model_variable_step_size</title><style>.edge>path:hover{stroke-width:8}</style>
<path fill="none" stroke="black" d="M761.4,-707.84C860.76,-702.92 1198.3,-684.28 1237,-656.13 1258.24,-640.69 1267.31,-627.63 1261,-602.13"/>
<path fill="none" stroke="black" d="M1261,-600.13C1259.15,-554.25 1223.05,-555.84 1185,-530.13"/>
</g>
<!-- pandas&#45;&gt;pm_torch_walk_forward -->
<g id="edge27" class="edge">
<title>pandas&#45;&gt;pm_torch_walk_forward</title><style>.edge>path:hover{stroke-width:8}</style>
<path fill="none" stroke="black" d="M734,-655.13C712.46,-616.4 678.94,-642.05 641,-619.13 589.5,-588.03 517.63,-586.38 539,-530.13"/>
<path fill="none" stroke="black" d="M737.75,-692.01C739.24,-681.17 739.5,-667.17 734,-656.13"/>
</g>
<!-- pandas&#45;&gt;sklearn -->
<g id="edge28" class="edge">
<title>pandas&#45;&gt;sklearn</title><style>.edge>path:hover{stroke-width:8}</style>
<path fill="none" stroke="black" d="M419,-600.13C410.07,-588.55 409.54,-572.4 411.48,-558.52"/>
<polygon fill="#06f9b7" stroke="black" points="414.85,-559.52 413.28,-549.04 407.97,-558.22 414.85,-559.52"/>
</g>
<!-- pm___main__ -->
<g id="node7" class="node">
<title>pm___main__</title><style>.edge>path:hover{stroke-width:8}</style>
<ellipse fill="#4991ac" stroke="black" cx="956" cy="-18" rx="44.08" ry="18"/>
<text text-anchor="middle" x="956" y="-14.12" font-family="Helvetica,sans-Serif" font-size="10.00" fill="#ffffff">pm.__main__</text>
</g>
<!-- pm_cli&#45;&gt;pm___main__ -->
<g id="edge29" class="edge">
<title>pm_cli&#45;&gt;pm___main__</title><style>.edge>path:hover{stroke-width:8}</style>
<path fill="none" stroke="black" d="M956,-71.7C956,-64.41 956,-55.73 956,-47.54"/>
<polygon fill="#3583a1" stroke="black" points="959.5,-47.62 956,-37.62 952.5,-47.62 959.5,-47.62"/>
</g>
<!-- pm_main&#45;&gt;pm_cli -->
<g id="edge30" class="edge">
<title>pm_main&#45;&gt;pm_cli</title><style>.edge>path:hover{stroke-width:8}</style>
<path fill="none" stroke="black" d="M956,-143.7C956,-136.41 956,-127.73 956,-119.54"/>
<polygon fill="#2b6a82" stroke="black" points="959.5,-119.62 956,-109.62 952.5,-119.62 959.5,-119.62"/>
</g>
<!-- pm_registry -->
<g id="node13" class="node">
<title>pm_registry</title><style>.edge>path:hover{stroke-width:8}</style>
<ellipse fill="#3d96b8" stroke="black" cx="673" cy="-234" rx="38.31" ry="18"/>
<text text-anchor="middle" x="673" y="-230.12" font-family="Helvetica,sans-Serif" font-size="10.00" fill="#ffffff">pm.registry</text>
</g>
<!-- pm_pipelines&#45;&gt;pm_registry -->
<g id="edge31" class="edge">
<title>pm_pipelines&#45;&gt;pm_registry</title><style>.edge>path:hover{stroke-width:8}</style>
<path fill="none" stroke="black" d="M191.59,-299.68C285.79,-287.02 523.03,-255.15 625.09,-241.44"/>
<polygon fill="#28647a" stroke="black" points="625.33,-244.94 634.78,-240.14 624.4,-238 625.33,-244.94"/>
</g>
<!-- pm_registry&#45;&gt;pm_main -->
<g id="edge32" class="edge">
<title>pm_registry&#45;&gt;pm_main</title><style>.edge>path:hover{stroke-width:8}</style>
<path fill="none" stroke="black" d="M706.3,-224.76C758.79,-211.78 860.55,-186.61 916.6,-172.75"/>
<polygon fill="#3d96b8" stroke="black" points="917.17,-176.21 926.03,-170.41 915.49,-169.42 917.17,-176.21"/>
</g>
<!-- pm_utils&#45;&gt;pm_main -->
<g id="edge33" class="edge">
<title>pm_utils&#45;&gt;pm_main</title><style>.edge>path:hover{stroke-width:8}</style>
<path fill="none" stroke="black" d="M80.17,-359.56C79.11,-345.29 78.58,-324.66 82,-307"/>
</g>
<!-- pm_utils&#45;&gt;pm_pipelines -->
<g id="edge34" class="edge">
<title>pm_utils&#45;&gt;pm_pipelines</title><style>.edge>path:hover{stroke-width:8}</style>
<path fill="none" stroke="black" d="M96.85,-362.15C105.97,-353.03 117.86,-341.14 128.26,-330.74"/>
<polygon fill="#33a2cc" stroke="black" points="130.54,-333.41 135.13,-323.87 125.59,-328.46 130.54,-333.41"/>
</g>
<!-- skfolio -->
<g id="node19" class="node">
<title>skfolio</title><style>.edge>path:hover{stroke-width:8}</style>
<polygon fill="#334fcc" stroke="black" points="298,-471.57 295,-475.57 274,-475.57 271,-471.57 244,-471.57 244,-435.57 298,-435.57 298,-471.57"/>
<text text-anchor="middle" x="271" y="-449.69" font-family="Helvetica,sans-Serif" font-size="10.00" fill="#ffffff">skfolio</text>
</g>
<!-- skfolio&#45;&gt;pm_pipelines -->
<g id="edge35" class="edge">
<title>skfolio&#45;&gt;pm_pipelines</title><style>.edge>path:hover{stroke-width:8}</style>
<path fill="none" stroke="black" d="M243.89,-437.04C240.89,-435.33 237.88,-433.63 235,-432 192.9,-408.23 160.2,-422.93 140,-379"/>
</g>
<!-- sklearn&#45;&gt;pm_main -->
<g id="edge36" class="edge">
<title>sklearn&#45;&gt;pm_main</title><style>.edge>path:hover{stroke-width:8}</style>
<path fill="none" stroke="black" d="M1261,-305C1337.55,-213.93 1099.21,-177.89 998.6,-166.96"/>
<polygon fill="blue" stroke="black" points="999.14,-163.49 988.83,-165.93 998.41,-170.46 999.14,-163.49"/>
<path fill="none" stroke="black" d="M436,-452.57C448.4,-412.44 423.34,-387.6 455,-360 522.65,-301.02 1210.65,-381.29 1261,-307"/>
<path fill="none" stroke="black" d="M421.95,-510.91C424.78,-495.82 429.56,-473.42 436,-454.57"/>
</g>
<!-- sklearn&#45;&gt;pm_pipelines -->
<g id="edge37" class="edge">
<title>sklearn&#45;&gt;pm_pipelines</title><style>.edge>path:hover{stroke-width:8}</style>
<path fill="none" stroke="black" d="M391.51,-510.64C377.06,-500.91 359.42,-488.17 345,-475.13 326.05,-458 328.4,-445.96 307,-432 241.78,-389.46 172.53,-449.75 140,-379"/>
</g>
<!-- sklearn&#45;&gt;pm_torch -->
<g id="edge38" class="edge">
<title>sklearn&#45;&gt;pm_torch</title><style>.edge>path:hover{stroke-width:8}</style>
<path fill="none" stroke="black" d="M436,-452.57C442.16,-432.61 456.92,-414.39 470.26,-401.07"/>
<polygon fill="blue" stroke="black" points="472.36,-403.91 477.19,-394.49 467.53,-398.84 472.36,-403.91"/>
</g>
<!-- tqdm -->
<g id="node21" class="node">
<title>tqdm</title><style>.edge>path:hover{stroke-width:8}</style>
<polygon fill="#e306f9" stroke="black" points="817,-619.13 814,-623.13 793,-623.13 790,-619.13 763,-619.13 763,-583.13 817,-583.13 817,-619.13"/>
<text text-anchor="middle" x="790" y="-597.26" font-family="Helvetica,sans-Serif" font-size="10.00" fill="#ffffff">tqdm</text>
</g>
<!-- tqdm&#45;&gt;pm_cvxpylayers -->
<g id="edge39" class="edge">
<title>tqdm&#45;&gt;pm_cvxpylayers</title><style>.edge>path:hover{stroke-width:8}</style>
<path fill="none" stroke="black" d="M791,-528.13C794.24,-504.52 774.72,-486.12 754.41,-473.63"/>
<polygon fill="#e306f9" stroke="black" points="756.2,-470.63 745.78,-468.73 752.74,-476.71 756.2,-470.63"/>
<path fill="none" stroke="black" d="M789.08,-582.79C788.6,-568.57 788.56,-547.95 791,-530.13"/>
</g>
<!-- tqdm&#45;&gt;pm_main -->
<g id="edge40" class="edge">
<title>tqdm&#45;&gt;pm_main</title><style>.edge>path:hover{stroke-width:8}</style>
<path fill="none" stroke="black" d="M791,-452.57C835,-356.44 1198.73,-464.43 1261,-379"/>
<path fill="none" stroke="black" d="M1261,-377C1279.32,-351.86 1243.57,-332.77 1261,-307"/>
</g>
<!-- tqdm&#45;&gt;pm_pca_risk_parity -->
<g id="edge41" class="edge">
<title>tqdm&#45;&gt;pm_pca_risk_parity</title><style>.edge>path:hover{stroke-width:8}</style>
<path fill="none" stroke="black" d="M762.7,-593.35C748.04,-589.9 729.62,-585.87 713,-583.13 567.42,-559.19 517.76,-607.2 383,-547.13 372.65,-542.52 374.65,-534.01 364,-530.13"/>
</g>
<!-- tqdm&#45;&gt;pm_risk_parity_walk_forward -->
<g id="edge42" class="edge">
<title>tqdm&#45;&gt;pm_risk_parity_walk_forward</title><style>.edge>path:hover{stroke-width:8}</style>
<path fill="none" stroke="black" d="M792.92,-582.88C797.14,-564.53 807.01,-537.19 829,-530.13"/>
</g>
<!-- tqdm&#45;&gt;pm_torch -->
<g id="edge43" class="edge">
<title>tqdm&#45;&gt;pm_torch</title><style>.edge>path:hover{stroke-width:8}</style>
<path fill="none" stroke="black" d="M791,-452.57C812.61,-405.36 626.83,-387.26 539.62,-381.41"/>
<polygon fill="#e306f9" stroke="black" points="539.96,-377.93 529.76,-380.78 539.51,-384.91 539.96,-377.93"/>
<path fill="none" stroke="black" d="M791,-528.13C795.44,-495.74 777.39,-484.3 791,-454.57"/>
</g>
<!-- tqdm&#45;&gt;pm_torch_model_variable_step_size -->
<g id="edge44" class="edge">
<title>tqdm&#45;&gt;pm_torch_model_variable_step_size</title><style>.edge>path:hover{stroke-width:8}</style>
<path fill="none" stroke="black" d="M791,-528.13C794.66,-501.42 816.26,-484.36 841.31,-473.49"/>
<polygon fill="#e306f9" stroke="black" points="842.41,-476.82 850.42,-469.89 839.83,-470.31 842.41,-476.82"/>
</g>
<!-- tqdm&#45;&gt;pm_torch_walk_forward -->
<g id="edge45" class="edge">
<title>tqdm&#45;&gt;pm_torch_walk_forward</title><style>.edge>path:hover{stroke-width:8}</style>
<path fill="none" stroke="black" d="M764.26,-582.86C726.26,-557.38 654.94,-509.53 610.95,-480.02"/>
<polygon fill="#e306f9" stroke="black" points="612.97,-477.17 602.72,-474.5 609.07,-482.98 612.97,-477.17"/>
</g>
<!-- utils -->
<g id="node22" class="node">
<title>utils</title><style>.edge>path:hover{stroke-width:8}</style>
<polygon fill="blue" stroke="black" points="1343,-324 1340,-328 1319,-328 1316,-324 1289,-324 1289,-288 1343,-288 1343,-324"/>
<text text-anchor="middle" x="1316" y="-302.12" font-family="Helvetica,sans-Serif" font-size="10.00" fill="#fbf8ef">utils</text>
</g>
<!-- utils&#45;&gt;pm_cli -->
<g id="edge46" class="edge">
<title>utils&#45;&gt;pm_cli</title><style>.edge>path:hover{stroke-width:8}</style>
<path fill="none" stroke="black" d="M1299,-233C1218.72,-138.18 1064.86,-105.65 993.75,-95.36"/>
<polygon fill="blue" stroke="black" points="994.55,-91.93 984.17,-94.04 993.6,-98.87 994.55,-91.93"/>
</g>
<!-- utils&#45;&gt;pm_main -->
<g id="edge47" class="edge">
<title>utils&#45;&gt;pm_main</title><style>.edge>path:hover{stroke-width:8}</style>
<path fill="none" stroke="black" d="M1299,-233C1260.78,-187.86 1082.4,-170.9 999.09,-165.36"/>
<polygon fill="blue" stroke="black" points="999.46,-161.87 989.26,-164.73 999.02,-168.86 999.46,-161.87"/>
<path fill="none" stroke="black" d="M1315.98,-287.52C1315.07,-272.04 1311.45,-249.7 1299,-235"/>
</g>
</g>
</svg>
