<?xml version="1.0" encoding="UTF-8" standalone="no"?>
<!DOCTYPE svg PUBLIC "-//W3C//DTD SVG 1.1//EN"
 "http://www.w3.org/Graphics/SVG/1.1/DTD/svg11.dtd">
<!-- Generated by graphviz version 12.2.1 (20241206.2353)
 -->
<!-- Title: G Pages: 1 -->
<svg width="1116pt" height="1143pt"
 viewBox="0.00 0.00 1115.97 1143.25" xmlns="http://www.w3.org/2000/svg" xmlns:xlink="http://www.w3.org/1999/xlink">
<g id="graph0" class="graph" transform="scale(1 1) rotate(0) translate(4 1139.25)">
<title>G</title><style>.edge>path:hover{stroke-width:8}</style>
<polygon fill="#fbf8ef" stroke="none" points="-4,4 -4,-1139.25 1111.97,-1139.25 1111.97,4 -4,4"/>
<!-- click -->
<g id="node1" class="node">
<title>click</title><style>.edge>path:hover{stroke-width:8}</style>
<polygon fill="#b65353" stroke="black" points="627,-252 624,-256 603,-256 600,-252 573,-252 573,-216 627,-216 627,-252"/>
<text text-anchor="middle" x="600" y="-230.12" font-family="Helvetica,sans-Serif" font-size="10.00" fill="#ffffff">click</text>
</g>
<!-- qa_cli -->
<g id="node13" class="node">
<title>qa_cli</title><style>.edge>path:hover{stroke-width:8}</style>
<ellipse fill="#357da1" stroke="black" cx="863" cy="-90" rx="27" ry="18"/>
<text text-anchor="middle" x="863" y="-86.12" font-family="Helvetica,sans-Serif" font-size="10.00" fill="#ffffff">qa.cli</text>
</g>
<!-- click&#45;&gt;qa_cli -->
<g id="edge1" class="edge">
<title>click&#45;&gt;qa_cli</title><style>.edge>path:hover{stroke-width:8}</style>
<path fill="none" stroke="black" d="M627.16,-218.34C676.51,-191.69 780.61,-135.48 832.4,-107.52"/>
<polygon fill="#b65353" stroke="black" points="833.86,-110.71 840.99,-102.88 830.53,-104.55 833.86,-110.71"/>
</g>
<!-- cycler -->
<g id="node2" class="node">
<title>cycler</title><style>.edge>path:hover{stroke-width:8}</style>
<polygon fill="#c27047" stroke="black" points="418,-1135.25 415,-1139.25 394,-1139.25 391,-1135.25 364,-1135.25 364,-1099.25 418,-1099.25 418,-1135.25"/>
<text text-anchor="middle" x="391" y="-1113.38" font-family="Helvetica,sans-Serif" font-size="10.00" fill="#000000">cycler</text>
</g>
<!-- matplotlib -->
<g id="node7" class="node">
<title>matplotlib</title><style>.edge>path:hover{stroke-width:8}</style>
<polygon fill="blue" stroke="black" points="515,-1026.25 512,-1030.25 491,-1030.25 488,-1026.25 457,-1026.25 457,-990.25 515,-990.25 515,-1026.25"/>
<text text-anchor="middle" x="486" y="-1004.38" font-family="Helvetica,sans-Serif" font-size="10.00" fill="#fbf8ef">matplotlib</text>
</g>
<!-- cycler&#45;&gt;matplotlib -->
<g id="edge2" class="edge">
<title>cycler&#45;&gt;matplotlib</title><style>.edge>path:hover{stroke-width:8}</style>
<path fill="none" stroke="black" d="M406.26,-1099.06C421.64,-1081.74 445.54,-1054.82 463.17,-1034.96"/>
<polygon fill="#c27047" stroke="black" points="465.75,-1037.33 469.77,-1027.53 460.51,-1032.68 465.75,-1037.33"/>
</g>
<!-- qa -->
<g id="node11" class="node">
<title>qa</title><style>.edge>path:hover{stroke-width:8}</style>
<polygon fill="blue" stroke="black" points="737,-252 683,-252 683,-216 737,-216 737,-252"/>
<text text-anchor="middle" x="710" y="-230.12" font-family="Helvetica,sans-Serif" font-size="10.00" fill="#fbf8ef">qa</text>
</g>
<!-- cycler&#45;&gt;qa -->
<g id="edge3" class="edge">
<title>cycler&#45;&gt;qa</title><style>.edge>path:hover{stroke-width:8}</style>
<path fill="none" stroke="black" d="M418.25,-1103.19C501.68,-1063.09 749.82,-942.91 781,-917.25 843.81,-865.55 867.43,-850.14 894,-773.25 940.07,-639.91 904.89,-587.36 845,-459.62"/>
</g>
<!-- dateutil -->
<g id="node3" class="node">
<title>dateutil</title><style>.edge>path:hover{stroke-width:8}</style>
<polygon fill="#c29947" stroke="black" points="54,-1135.25 51,-1139.25 30,-1139.25 27,-1135.25 0,-1135.25 0,-1099.25 54,-1099.25 54,-1135.25"/>
<text text-anchor="middle" x="27" y="-1113.38" font-family="Helvetica,sans-Serif" font-size="10.00" fill="#000000">dateutil</text>
</g>
<!-- dateutil&#45;&gt;matplotlib -->
<g id="edge4" class="edge">
<title>dateutil&#45;&gt;matplotlib</title><style>.edge>path:hover{stroke-width:8}</style>
<path fill="none" stroke="black" d="M27,-1062.25C52.77,-1029.64 337.59,-1015.1 445.18,-1010.74"/>
<polygon fill="#c29947" stroke="black" points="445.14,-1014.24 455,-1010.35 444.87,-1007.25 445.14,-1014.24"/>
</g>
<!-- qa_plotting_reports -->
<g id="node18" class="node">
<title>qa_plotting_reports</title><style>.edge>path:hover{stroke-width:8}</style>
<polygon fill="blue" stroke="black" points="495,-401.75 441,-401.75 441,-360 495,-360 495,-401.75"/>
<text text-anchor="middle" x="468" y="-388.25" font-family="Helvetica,sans-Serif" font-size="10.00" fill="#fbf8ef">qa.</text>
<text text-anchor="middle" x="468" y="-377" font-family="Helvetica,sans-Serif" font-size="10.00" fill="#fbf8ef">plotting.</text>
<text text-anchor="middle" x="468" y="-365.75" font-family="Helvetica,sans-Serif" font-size="10.00" fill="#fbf8ef">reports</text>
</g>
<!-- dateutil&#45;&gt;qa_plotting_reports -->
<g id="edge5" class="edge">
<title>dateutil&#45;&gt;qa_plotting_reports</title><style>.edge>path:hover{stroke-width:8}</style>
<path fill="none" stroke="black" d="M21.98,-1099.2C19.74,-1087.84 19.13,-1073.21 27,-1063.25"/>
<path fill="none" stroke="black" d="M27,-1062.25C56.76,-1024.59 27,-1002.25 27,-954.25 27,-954.25 27,-954.25 27,-826.25 27,-730.8 45,-707.7 45,-612.25 45,-612.25 45,-612.25 45,-535.38 45,-454.04 324.85,-403.46 429.3,-387.42"/>
<polygon fill="#c29947" stroke="black" points="429.71,-390.9 439.08,-385.94 428.66,-383.98 429.71,-390.9"/>
</g>
<!-- dotenv -->
<g id="node4" class="node">
<title>dotenv</title><style>.edge>path:hover{stroke-width:8}</style>
<polygon fill="#b6b653" stroke="black" points="589,-773.25 586,-777.25 565,-777.25 562,-773.25 535,-773.25 535,-737.25 589,-737.25 589,-773.25"/>
<text text-anchor="middle" x="562" y="-751.38" font-family="Helvetica,sans-Serif" font-size="10.00" fill="#000000">dotenv</text>
</g>
<!-- qa_plotting_core -->
<g id="node17" class="node">
<title>qa_plotting_core</title><style>.edge>path:hover{stroke-width:8}</style>
<polygon fill="blue" stroke="black" points="606,-557.25 552,-557.25 552,-515.5 606,-515.5 606,-557.25"/>
<text text-anchor="middle" x="579" y="-543.75" font-family="Helvetica,sans-Serif" font-size="10.00" fill="#fbf8ef">qa.</text>
<text text-anchor="middle" x="579" y="-532.5" font-family="Helvetica,sans-Serif" font-size="10.00" fill="#fbf8ef">plotting.</text>
<text text-anchor="middle" x="579" y="-521.25" font-family="Helvetica,sans-Serif" font-size="10.00" fill="#fbf8ef">core</text>
</g>
<!-- dotenv&#45;&gt;qa_plotting_core -->
<g id="edge6" class="edge">
<title>dotenv&#45;&gt;qa_plotting_core</title><style>.edge>path:hover{stroke-width:8}</style>
<path fill="none" stroke="black" d="M583.52,-736.99C597.22,-724.2 613.1,-705.38 617,-684.25"/>
<path fill="none" stroke="black" d="M617,-610.25C609.7,-596.15 601.57,-580.54 594.71,-567.4"/>
<polygon fill="#b6b653" stroke="black" points="597.95,-566.05 590.22,-558.81 591.75,-569.29 597.95,-566.05"/>
<path fill="none" stroke="black" d="M617,-682.25C622.64,-651.66 631.3,-639.88 617,-612.25"/>
</g>
<!-- ff -->
<g id="node5" class="node">
<title>ff</title><style>.edge>path:hover{stroke-width:8}</style>
<polygon fill="blue" stroke="black" points="1024,-476.62 1021,-480.62 1000,-480.62 997,-476.62 970,-476.62 970,-440.62 1024,-440.62 1024,-476.62"/>
<text text-anchor="middle" x="997" y="-454.75" font-family="Helvetica,sans-Serif" font-size="10.00" fill="#fbf8ef">ff</text>
</g>
<!-- qa_main -->
<g id="node15" class="node">
<title>qa_main</title><style>.edge>path:hover{stroke-width:8}</style>
<ellipse fill="#265973" stroke="black" cx="863" cy="-162" rx="29.88" ry="18"/>
<text text-anchor="middle" x="863" y="-158.12" font-family="Helvetica,sans-Serif" font-size="10.00" fill="#ffffff">qa.main</text>
</g>
<!-- ff&#45;&gt;qa_main -->
<g id="edge7" class="edge">
<title>ff&#45;&gt;qa_main</title><style>.edge>path:hover{stroke-width:8}</style>
<path fill="none" stroke="black" d="M986.66,-440.27C965.07,-403.48 914.59,-314.5 883,-235"/>
</g>
<!-- lighthouseweb3 -->
<g id="node6" class="node">
<title>lighthouseweb3</title><style>.edge>path:hover{stroke-width:8}</style>
<polygon fill="#74b653" stroke="black" points="328.75,-845.25 325.75,-849.25 304.75,-849.25 301.75,-845.25 245.25,-845.25 245.25,-809.25 328.75,-809.25 328.75,-845.25"/>
<text text-anchor="middle" x="287" y="-823.38" font-family="Helvetica,sans-Serif" font-size="10.00" fill="#000000">lighthouseweb3</text>
</g>
<!-- qa_utils -->
<g id="node21" class="node">
<title>qa_utils</title><style>.edge>path:hover{stroke-width:8}</style>
<polygon fill="blue" stroke="black" points="317,-701.25 263,-701.25 263,-665.25 317,-665.25 317,-701.25"/>
<text text-anchor="middle" x="290" y="-679.38" font-family="Helvetica,sans-Serif" font-size="10.00" fill="#fbf8ef">qa.utils</text>
</g>
<!-- lighthouseweb3&#45;&gt;qa_utils -->
<g id="edge8" class="edge">
<title>lighthouseweb3&#45;&gt;qa_utils</title><style>.edge>path:hover{stroke-width:8}</style>
<path fill="none" stroke="black" d="M287,-754.25C281.73,-741.31 281.8,-725.89 283.47,-712.83"/>
<polygon fill="#74b653" stroke="black" points="286.89,-713.56 285.1,-703.12 279.99,-712.4 286.89,-713.56"/>
<path fill="none" stroke="black" d="M290.53,-808.87C292.69,-794.27 293.87,-773.13 287,-756.25"/>
</g>
<!-- matplotlib&#45;&gt;qa -->
<g id="edge9" class="edge">
<title>matplotlib&#45;&gt;qa</title><style>.edge>path:hover{stroke-width:8}</style>
<path fill="none" stroke="black" d="M845,-457.62C816.33,-372.42 713.17,-396.84 710,-307"/>
<path fill="none" stroke="black" d="M619,-826.25C666.44,-787.65 704.73,-818.39 746,-773.25 752.16,-766.51 848.57,-468.04 845,-459.62"/>
</g>
<!-- matplotlib&#45;&gt;qa_main -->
<g id="edge10" class="edge">
<title>matplotlib&#45;&gt;qa_main</title><style>.edge>path:hover{stroke-width:8}</style>
<path fill="none" stroke="black" d="M179,-898.25C139.2,-755.36 7,-760.58 7,-612.25 7,-612.25 7,-612.25 7,-535.38 7,-459.25 20.78,-425.74 83,-381.88"/>
<path fill="none" stroke="black" d="M456.73,-1003.21C381.74,-992.06 187.93,-957.77 179,-900.25"/>
<path fill="none" stroke="black" d="M83,-379.88C285.52,-229.46 412.08,-368.17 636,-252 646.06,-246.78 644.63,-239.56 655,-235"/>
<path fill="none" stroke="black" d="M655,-233C665.24,-228.16 664.06,-221.45 674,-216 721.49,-189.95 782.86,-175.82 822.57,-168.85"/>
<polygon fill="blue" stroke="black" points="823.14,-172.3 832.42,-167.2 821.98,-165.4 823.14,-172.3"/>
</g>
<!-- matplotlib&#45;&gt;qa_plotting_core -->
<g id="edge11" class="edge">
<title>matplotlib&#45;&gt;qa_plotting_core</title><style>.edge>path:hover{stroke-width:8}</style>
<path fill="none" stroke="black" d="M495,-953.25C527.72,-882.16 568.98,-888.43 619,-828.25"/>
<path fill="none" stroke="black" d="M619,-826.25C667.36,-785.69 605.55,-746.32 617,-684.25"/>
</g>
<!-- qa_plotting_wrappers -->
<g id="node19" class="node">
<title>qa_plotting_wrappers</title><style>.edge>path:hover{stroke-width:8}</style>
<polygon fill="blue" stroke="black" points="495.88,-479.5 440.12,-479.5 440.12,-437.75 495.88,-437.75 495.88,-479.5"/>
<text text-anchor="middle" x="468" y="-466" font-family="Helvetica,sans-Serif" font-size="10.00" fill="#fbf8ef">qa.</text>
<text text-anchor="middle" x="468" y="-454.75" font-family="Helvetica,sans-Serif" font-size="10.00" fill="#fbf8ef">plotting.</text>
<text text-anchor="middle" x="468" y="-443.5" font-family="Helvetica,sans-Serif" font-size="10.00" fill="#fbf8ef">wrappers</text>
</g>
<!-- matplotlib&#45;&gt;qa_plotting_wrappers -->
<g id="edge12" class="edge">
<title>matplotlib&#45;&gt;qa_plotting_wrappers</title><style>.edge>path:hover{stroke-width:8}</style>
<path fill="none" stroke="black" d="M448,-535.38C452.57,-520.77 456.99,-504.37 460.5,-490.58"/>
<polygon fill="blue" stroke="black" points="463.82,-491.72 462.86,-481.17 457.03,-490.02 463.82,-491.72"/>
<path fill="none" stroke="black" d="M179,-898.25C153.47,-795.16 168.49,-750.37 232,-665.25 248.68,-642.9 439.67,-563.99 448,-537.38"/>
</g>
<!-- scipy -->
<g id="node22" class="node">
<title>scipy</title><style>.edge>path:hover{stroke-width:8}</style>
<polygon fill="#0653ef" stroke="black" points="739,-845.25 736,-849.25 715,-849.25 712,-845.25 685,-845.25 685,-809.25 739,-809.25 739,-845.25"/>
<text text-anchor="middle" x="712" y="-823.38" font-family="Helvetica,sans-Serif" font-size="10.00" fill="#ffffff">scipy</text>
</g>
<!-- matplotlib&#45;&gt;scipy -->
<g id="edge13" class="edge">
<title>matplotlib&#45;&gt;scipy</title><style>.edge>path:hover{stroke-width:8}</style>
<path fill="none" stroke="black" d="M508.08,-989.76C548.61,-957.66 634.93,-889.29 681.2,-852.65"/>
<polygon fill="blue" stroke="black" points="683.31,-855.44 688.98,-846.49 678.96,-849.95 683.31,-855.44"/>
</g>
<!-- seaborn -->
<g id="node23" class="node">
<title>seaborn</title><style>.edge>path:hover{stroke-width:8}</style>
<polygon fill="#3131c4" stroke="black" points="369,-773.25 366,-777.25 345,-777.25 342,-773.25 315,-773.25 315,-737.25 369,-737.25 369,-773.25"/>
<text text-anchor="middle" x="342" y="-751.38" font-family="Helvetica,sans-Serif" font-size="10.00" fill="#ffffff">seaborn</text>
</g>
<!-- matplotlib&#45;&gt;seaborn -->
<g id="edge14" class="edge">
<title>matplotlib&#45;&gt;seaborn</title><style>.edge>path:hover{stroke-width:8}</style>
<path fill="none" stroke="black" d="M487.12,-990.06C488.25,-979.45 490.5,-965.72 495,-954.25"/>
<path fill="none" stroke="black" d="M495,-953.25C519.84,-889.9 487.72,-860.54 443,-809.25 426.27,-790.06 400.86,-776.77 379.72,-768.3"/>
<polygon fill="blue" stroke="black" points="381.13,-765.1 370.53,-764.84 378.66,-771.65 381.13,-765.1"/>
</g>
<!-- numpy -->
<g id="node8" class="node">
<title>numpy</title><style>.edge>path:hover{stroke-width:8}</style>
<polygon fill="#06f957" stroke="black" points="490,-1135.25 487,-1139.25 466,-1139.25 463,-1135.25 436,-1135.25 436,-1099.25 490,-1099.25 490,-1135.25"/>
<text text-anchor="middle" x="463" y="-1113.38" font-family="Helvetica,sans-Serif" font-size="10.00" fill="#000000">numpy</text>
</g>
<!-- numpy&#45;&gt;ff -->
<g id="edge15" class="edge">
<title>numpy&#45;&gt;ff</title><style>.edge>path:hover{stroke-width:8}</style>
<path fill="none" stroke="black" d="M1107,-682.25C1109.41,-605.97 1108.01,-579.21 1066,-515.5 1057.63,-502.81 1045.47,-491.6 1033.68,-482.62"/>
<polygon fill="#06f957" stroke="black" points="1035.76,-479.81 1025.61,-476.79 1031.67,-485.49 1035.76,-479.81"/>
</g>
<!-- numpy&#45;&gt;matplotlib -->
<g id="edge16" class="edge">
<title>numpy&#45;&gt;matplotlib</title><style>.edge>path:hover{stroke-width:8}</style>
<path fill="none" stroke="black" d="M490.38,-1115.55C581.1,-1112.87 866.35,-1101.42 870,-1063.25"/>
<path fill="none" stroke="black" d="M870,-1062.25C873.28,-1028.01 626.42,-1014.66 526.86,-1010.67"/>
<polygon fill="#06f957" stroke="black" points="527.11,-1007.17 516.98,-1010.28 526.84,-1014.17 527.11,-1007.17"/>
</g>
<!-- numpy&#45;&gt;qa_main -->
<g id="edge17" class="edge">
<title>numpy&#45;&gt;qa_main</title><style>.edge>path:hover{stroke-width:8}</style>
<path fill="none" stroke="black" d="M870,-1062.25C882.12,-935.57 981.98,-943.94 1035,-828.25"/>
<path fill="none" stroke="black" d="M1035,-826.25C1048.27,-755.91 959,-755.83 959,-684.25 959,-684.25 959,-684.25 959,-610.25 959,-535.27 891.94,-534.07 883,-459.62"/>
</g>
<!-- numpy&#45;&gt;qa_plotting_core -->
<g id="edge18" class="edge">
<title>numpy&#45;&gt;qa_plotting_core</title><style>.edge>path:hover{stroke-width:8}</style>
<path fill="none" stroke="black" d="M767,-898.25C753.91,-827.29 777.88,-801.99 746,-737.25 731.28,-707.36 710.69,-712.48 693,-684.25"/>
</g>
<!-- numpy&#45;&gt;qa_plotting_reports -->
<g id="edge19" class="edge">
<title>numpy&#45;&gt;qa_plotting_reports</title><style>.edge>path:hover{stroke-width:8}</style>
<path fill="none" stroke="black" d="M435.72,-1102.68C432.81,-1101.44 429.86,-1100.27 427,-1099.25 270.84,-1043.58 65,-1175.04 65,-1009.25 65,-1009.25 65,-1009.25 65,-826.25 65,-732.01 132.73,-728.06 203,-665.25 224.23,-646.27 234.46,-647.87 256,-629.25 272.42,-615.06 270.89,-605.22 289,-593.25 329.1,-566.74 363.23,-596.49 391,-557.25 401.72,-542.1 397.79,-532.77 391,-515.5 378.58,-483.93 322.32,-489.16 339,-459.62"/>
</g>
<!-- numpy&#45;&gt;qa_plotting_wrappers -->
<g id="edge20" class="edge">
<title>numpy&#45;&gt;qa_plotting_wrappers</title><style>.edge>path:hover{stroke-width:8}</style>
<path fill="none" stroke="black" d="M767,-1007.25C617.98,-918.03 553.74,-915.45 454,-773.25 430.26,-739.41 416.95,-724.35 427,-684.25"/>
<path fill="none" stroke="black" d="M870,-1062.25C874.9,-1011 807.44,-1041.11 767,-1009.25"/>
</g>
<!-- qa_stats -->
<g id="node20" class="node">
<title>qa_stats</title><style>.edge>path:hover{stroke-width:8}</style>
<polygon fill="blue" stroke="black" points="517,-773.25 463,-773.25 463,-737.25 517,-737.25 517,-773.25"/>
<text text-anchor="middle" x="490" y="-751.38" font-family="Helvetica,sans-Serif" font-size="10.00" fill="#fbf8ef">qa.stats</text>
</g>
<!-- numpy&#45;&gt;qa_stats -->
<g id="edge21" class="edge">
<title>numpy&#45;&gt;qa_stats</title><style>.edge>path:hover{stroke-width:8}</style>
<path fill="none" stroke="black" d="M767,-1007.25C746.79,-995.15 775.81,-976.1 767,-954.25"/>
<path fill="none" stroke="black" d="M767,-953.25C758.83,-932.98 651.37,-821.1 633,-809.25 593.64,-783.86 575.08,-790.84 527.89,-773.64"/>
<polygon fill="#06f957" stroke="black" points="529.37,-770.46 518.78,-770.12 526.85,-776.99 529.37,-770.46"/>
</g>
<!-- numpy&#45;&gt;qa_utils -->
<g id="edge22" class="edge">
<title>numpy&#45;&gt;qa_utils</title><style>.edge>path:hover{stroke-width:8}</style>
<path fill="none" stroke="black" d="M453.89,-1098.99C443.82,-1078.27 429,-1042.19 429,-1009.25 429,-1009.25 429,-1009.25 429,-898.25 429,-857.8 436.79,-839.55 410,-809.25 370.57,-764.65 309.44,-811.39 287,-756.25"/>
</g>
<!-- numpy&#45;&gt;scipy -->
<g id="edge23" class="edge">
<title>numpy&#45;&gt;scipy</title><style>.edge>path:hover{stroke-width:8}</style>
<path fill="none" stroke="black" d="M767,-898.25C763.83,-881.08 752.76,-865.44 741.37,-853.32"/>
<polygon fill="#06f957" stroke="black" points="744.15,-851.15 734.59,-846.58 739.21,-856.11 744.15,-851.15"/>
<path fill="none" stroke="black" d="M767,-953.25C758.19,-931.4 771.27,-923.41 767,-900.25"/>
</g>
<!-- skfolio -->
<g id="node24" class="node">
<title>skfolio</title><style>.edge>path:hover{stroke-width:8}</style>
<polygon fill="#6226d9" stroke="black" points="1079,-629.25 1076,-633.25 1055,-633.25 1052,-629.25 1025,-629.25 1025,-593.25 1079,-593.25 1079,-629.25"/>
<text text-anchor="middle" x="1052" y="-607.38" font-family="Helvetica,sans-Serif" font-size="10.00" fill="#ffffff">skfolio</text>
</g>
<!-- numpy&#45;&gt;skfolio -->
<g id="edge24" class="edge">
<title>numpy&#45;&gt;skfolio</title><style>.edge>path:hover{stroke-width:8}</style>
<path fill="none" stroke="black" d="M1035,-826.25C1056.73,-758.91 1092.23,-753.45 1107,-684.25"/>
<path fill="none" stroke="black" d="M1107,-682.25C1107.55,-664.93 1097.06,-649.35 1085.11,-637.32"/>
<polygon fill="#06f957" stroke="black" points="1087.55,-634.8 1077.83,-630.6 1082.8,-639.95 1087.55,-634.8"/>
</g>
<!-- pandas -->
<g id="node9" class="node">
<title>pandas</title><style>.edge>path:hover{stroke-width:8}</style>
<polygon fill="#06f9a8" stroke="black" points="331,-917.25 328,-921.25 307,-921.25 304,-917.25 277,-917.25 277,-881.25 331,-881.25 331,-917.25"/>
<text text-anchor="middle" x="304" y="-895.38" font-family="Helvetica,sans-Serif" font-size="10.00" fill="#000000">pandas</text>
</g>
<!-- pandas&#45;&gt;qa_main -->
<g id="edge25" class="edge">
<title>pandas&#45;&gt;qa_main</title><style>.edge>path:hover{stroke-width:8}</style>
<path fill="none" stroke="black" d="M83,-610.25C35.99,-520.29 6.43,-448.5 83,-381.88"/>
<path fill="none" stroke="black" d="M276.61,-884.46C259.76,-875.03 238.5,-861.35 223,-845.25 139.23,-758.2 160.22,-705.16 83,-612.25"/>
</g>
<!-- pandas&#45;&gt;qa_plotting_core -->
<g id="edge26" class="edge">
<title>pandas&#45;&gt;qa_plotting_core</title><style>.edge>path:hover{stroke-width:8}</style>
<path fill="none" stroke="black" d="M331.28,-890.63C354.93,-882.77 388.61,-868.35 410,-845.25 445.22,-807.22 428.07,-782.13 454,-737.25 464.14,-719.7 470.17,-717.71 482,-701.25 509.7,-662.71 519.55,-654.58 541,-612.25"/>
</g>
<!-- pandas&#45;&gt;qa_plotting_reports -->
<g id="edge27" class="edge">
<title>pandas&#45;&gt;qa_plotting_reports</title><style>.edge>path:hover{stroke-width:8}</style>
<path fill="none" stroke="black" d="M276.73,-884.83C261.77,-875.87 244.57,-862.55 236,-845.25 218.44,-809.8 231.17,-795.62 235,-756.25"/>
<path fill="none" stroke="black" d="M235,-754.25C234.97,-730.66 232.67,-724.83 232,-701.25 231.55,-685.26 227.36,-680.56 232,-665.25 237.57,-646.85 249.24,-647.25 256,-629.25 270.47,-590.69 248.41,-573.6 268,-537.38"/>
</g>
<!-- pandas&#45;&gt;qa_plotting_wrappers -->
<g id="edge28" class="edge">
<title>pandas&#45;&gt;qa_plotting_wrappers</title><style>.edge>path:hover{stroke-width:8}</style>
<path fill="none" stroke="black" d="M427,-610.25C446.9,-583.05 437.93,-569.54 448,-537.38"/>
<path fill="none" stroke="black" d="M235,-754.25C237.99,-713.91 226.67,-695.07 254,-665.25 308.34,-605.97 379.52,-677.15 427,-612.25"/>
</g>
<!-- pandas&#45;&gt;qa_stats -->
<g id="edge29" class="edge">
<title>pandas&#45;&gt;qa_stats</title><style>.edge>path:hover{stroke-width:8}</style>
<path fill="none" stroke="black" d="M331.27,-895.64C383.81,-889.98 495.94,-874.68 519,-845.25 533.17,-827.17 522.85,-801.92 510.76,-782.93"/>
<polygon fill="#06f9a8" stroke="black" points="513.79,-781.16 505.26,-774.89 508.02,-785.12 513.79,-781.16"/>
</g>
<!-- pandas&#45;&gt;qa_utils -->
<g id="edge30" class="edge">
<title>pandas&#45;&gt;qa_utils</title><style>.edge>path:hover{stroke-width:8}</style>
<path fill="none" stroke="black" d="M235,-754.25C236.28,-736.97 246.99,-721.4 258.62,-709.35"/>
<polygon fill="#06f9a8" stroke="black" points="260.83,-712.09 265.63,-702.65 255.98,-707.03 260.83,-712.09"/>
</g>
<!-- pypdf -->
<g id="node10" class="node">
<title>pypdf</title><style>.edge>path:hover{stroke-width:8}</style>
<polygon fill="#53b6b6" stroke="black" points="401,-845.25 398,-849.25 377,-849.25 374,-845.25 347,-845.25 347,-809.25 401,-809.25 401,-845.25"/>
<text text-anchor="middle" x="374" y="-823.38" font-family="Helvetica,sans-Serif" font-size="10.00" fill="#000000">pypdf</text>
</g>
<!-- pypdf&#45;&gt;qa_utils -->
<g id="edge31" class="edge">
<title>pypdf&#45;&gt;qa_utils</title><style>.edge>path:hover{stroke-width:8}</style>
<path fill="none" stroke="black" d="M346.82,-813.81C325.57,-802.33 297.89,-783 287,-756.25"/>
</g>
<!-- qa___main__ -->
<g id="node12" class="node">
<title>qa___main__</title><style>.edge>path:hover{stroke-width:8}</style>
<ellipse fill="#498bac" stroke="black" cx="863" cy="-18" rx="42.31" ry="18"/>
<text text-anchor="middle" x="863" y="-14.12" font-family="Helvetica,sans-Serif" font-size="10.00" fill="#ffffff">qa.__main__</text>
</g>
<!-- qa_cli&#45;&gt;qa___main__ -->
<g id="edge32" class="edge">
<title>qa_cli&#45;&gt;qa___main__</title><style>.edge>path:hover{stroke-width:8}</style>
<path fill="none" stroke="black" d="M863,-71.7C863,-64.41 863,-55.73 863,-47.54"/>
<polygon fill="#357da1" stroke="black" points="866.5,-47.62 863,-37.62 859.5,-47.62 866.5,-47.62"/>
</g>
<!-- qa_constants -->
<g id="node14" class="node">
<title>qa_constants</title><style>.edge>path:hover{stroke-width:8}</style>
<ellipse fill="#4799c2" stroke="black" cx="339" cy="-536.38" rx="42.75" ry="18"/>
<text text-anchor="middle" x="339" y="-532.5" font-family="Helvetica,sans-Serif" font-size="10.00" fill="#000000">qa.constants</text>
</g>
<!-- qa_constants&#45;&gt;qa_plotting_reports -->
<g id="edge33" class="edge">
<title>qa_constants&#45;&gt;qa_plotting_reports</title><style>.edge>path:hover{stroke-width:8}</style>
<path fill="none" stroke="black" d="M334.44,-518.22C331.15,-502.02 328.85,-477.6 339,-459.62"/>
</g>
<!-- qa_main&#45;&gt;qa_cli -->
<g id="edge34" class="edge">
<title>qa_main&#45;&gt;qa_cli</title><style>.edge>path:hover{stroke-width:8}</style>
<path fill="none" stroke="black" d="M863,-143.7C863,-136.41 863,-127.73 863,-119.54"/>
<polygon fill="#265973" stroke="black" points="866.5,-119.62 863,-109.62 859.5,-119.62 866.5,-119.62"/>
</g>
<!-- qa_plotting -->
<g id="node16" class="node">
<title>qa_plotting</title><style>.edge>path:hover{stroke-width:8}</style>
<polygon fill="blue" stroke="black" points="628.5,-324 567.5,-324 567.5,-288 628.5,-288 628.5,-324"/>
<text text-anchor="middle" x="598" y="-302.12" font-family="Helvetica,sans-Serif" font-size="10.00" fill="#fbf8ef">qa.plotting</text>
</g>
<!-- qa_plotting&#45;&gt;qa -->
<g id="edge35" class="edge">
<title>qa_plotting&#45;&gt;qa</title><style>.edge>path:hover{stroke-width:8}</style>
<path fill="none" stroke="black" d="M625.97,-287.52C640.22,-278.61 657.72,-267.67 673.06,-258.09"/>
<polygon fill="blue" stroke="black" points="674.86,-261.09 681.49,-252.82 671.15,-255.15 674.86,-261.09"/>
</g>
<!-- qa_plotting&#45;&gt;qa_main -->
<g id="edge36" class="edge">
<title>qa_plotting&#45;&gt;qa_main</title><style>.edge>path:hover{stroke-width:8}</style>
<path fill="none" stroke="black" d="M609.31,-287.75C622.17,-268.8 642.95,-240.31 655,-235"/>
</g>
<!-- qa_plotting_core&#45;&gt;qa_plotting -->
<g id="edge37" class="edge">
<title>qa_plotting_core&#45;&gt;qa_plotting</title><style>.edge>path:hover{stroke-width:8}</style>
<path fill="none" stroke="black" d="M580.69,-515.11C584.07,-474.42 591.7,-382.7 595.6,-335.8"/>
<polygon fill="blue" stroke="black" points="599.09,-336.13 596.43,-325.88 592.11,-335.55 599.09,-336.13"/>
</g>
<!-- qa_plotting_core&#45;&gt;qa_plotting_wrappers -->
<g id="edge38" class="edge">
<title>qa_plotting_core&#45;&gt;qa_plotting_wrappers</title><style>.edge>path:hover{stroke-width:8}</style>
<path fill="none" stroke="black" d="M551.56,-516.65C537.63,-507.14 520.5,-495.45 505.39,-485.14"/>
<polygon fill="blue" stroke="black" points="507.76,-482.52 497.53,-479.78 503.82,-488.31 507.76,-482.52"/>
</g>
<!-- qa_plotting_reports&#45;&gt;qa_plotting -->
<g id="edge39" class="edge">
<title>qa_plotting_reports&#45;&gt;qa_plotting</title><style>.edge>path:hover{stroke-width:8}</style>
<path fill="none" stroke="black" d="M495.25,-364.6C513.21,-354.53 537.06,-341.16 557.26,-329.84"/>
<polygon fill="blue" stroke="black" points="558.8,-332.98 565.82,-325.04 555.38,-326.88 558.8,-332.98"/>
</g>
<!-- qa_plotting_wrappers&#45;&gt;qa_plotting -->
<g id="edge40" class="edge">
<title>qa_plotting_wrappers&#45;&gt;qa_plotting</title><style>.edge>path:hover{stroke-width:8}</style>
<path fill="none" stroke="black" d="M483.84,-437.47C499.7,-417.49 524.99,-386.16 548,-360 556.02,-350.88 565.06,-341.15 573.22,-332.54"/>
<polygon fill="blue" stroke="black" points="575.6,-335.12 579.97,-325.48 570.54,-330.29 575.6,-335.12"/>
</g>
<!-- qa_plotting_wrappers&#45;&gt;qa_plotting_reports -->
<g id="edge41" class="edge">
<title>qa_plotting_wrappers&#45;&gt;qa_plotting_reports</title><style>.edge>path:hover{stroke-width:8}</style>
<path fill="none" stroke="black" d="M468,-437.33C468,-430.02 468,-421.6 468,-413.56"/>
<polygon fill="blue" stroke="black" points="471.5,-413.74 468,-403.74 464.5,-413.74 471.5,-413.74"/>
</g>
<!-- qa_stats&#45;&gt;qa -->
<g id="edge42" class="edge">
<title>qa_stats&#45;&gt;qa</title><style>.edge>path:hover{stroke-width:8}</style>
<path fill="none" stroke="black" d="M517.38,-740.94C520.27,-739.65 523.18,-738.39 526,-737.25 571.71,-718.69 598.5,-738.37 631,-701.25 689.86,-634.02 713.46,-396.29 710,-307"/>
</g>
<!-- qa_stats&#45;&gt;qa_plotting_core -->
<g id="edge43" class="edge">
<title>qa_stats&#45;&gt;qa_plotting_core</title><style>.edge>path:hover{stroke-width:8}</style>
<path fill="none" stroke="black" d="M579,-610.25C576.61,-596.8 576.23,-581.74 576.6,-568.81"/>
<polygon fill="blue" stroke="black" points="580.08,-569.31 577.04,-559.16 573.09,-568.99 580.08,-569.31"/>
</g>
<!-- qa_stats&#45;&gt;qa_plotting_reports -->
<g id="edge44" class="edge">
<title>qa_stats&#45;&gt;qa_plotting_reports</title><style>.edge>path:hover{stroke-width:8}</style>
<path fill="none" stroke="black" d="M579,-610.25C574.01,-582.21 555.44,-582.86 543,-557.25 518.64,-507.12 529.06,-488.02 505,-437.75 500.7,-428.77 495.15,-419.56 489.65,-411.27"/>
<polygon fill="blue" stroke="black" points="492.71,-409.54 484.17,-403.27 486.94,-413.5 492.71,-409.54"/>
<path fill="none" stroke="black" d="M517.5,-737.68C530.62,-728.47 545.5,-715.91 555,-701.25 577.28,-666.87 584.78,-652.81 579,-612.25"/>
</g>
<!-- qa_stats&#45;&gt;qa_plotting_wrappers -->
<g id="edge45" class="edge">
<title>qa_stats&#45;&gt;qa_plotting_wrappers</title><style>.edge>path:hover{stroke-width:8}</style>
<path fill="none" stroke="black" d="M491.24,-736.9C492.86,-706.91 493.93,-643.76 479,-593.25 470.95,-566.02 440.63,-564.8 448,-537.38"/>
</g>
<!-- qa_stats&#45;&gt;qa_utils -->
<g id="edge46" class="edge">
<title>qa_stats&#45;&gt;qa_utils</title><style>.edge>path:hover{stroke-width:8}</style>
<path fill="none" stroke="black" d="M451.87,-740.9C416.24,-728.43 363.34,-709.92 327.81,-697.48"/>
<polygon fill="blue" stroke="black" points="450.59,-744.16 461.18,-744.16 452.9,-737.56 450.59,-744.16"/>
<polygon fill="blue" stroke="black" points="329.4,-694.33 318.81,-694.33 327.09,-700.94 329.4,-694.33"/>
</g>
<!-- qa_utils&#45;&gt;qa -->
<g id="edge47" class="edge">
<title>qa_utils&#45;&gt;qa</title><style>.edge>path:hover{stroke-width:8}</style>
<path fill="none" stroke="black" d="M710,-305C712.11,-291.53 712.37,-276.43 711.99,-263.71"/>
<polygon fill="blue" stroke="black" points="715.5,-263.72 711.55,-253.89 708.51,-264.03 715.5,-263.72"/>
<path fill="none" stroke="black" d="M317.39,-675.13C348.39,-666.52 399.9,-650.49 441,-629.25 452.61,-623.25 454.31,-619.78 465,-612.25"/>
<path fill="none" stroke="black" d="M465,-610.25C467.21,-608.69 709.58,-309.67 710,-307"/>
</g>
<!-- qa_utils&#45;&gt;qa_main -->
<g id="edge48" class="edge">
<title>qa_utils&#45;&gt;qa_main</title><style>.edge>path:hover{stroke-width:8}</style>
<path fill="none" stroke="black" d="M262.86,-677.73C210.7,-668.37 100.09,-644.95 83,-612.25"/>
</g>
<!-- qa_utils&#45;&gt;qa_plotting_core -->
<g id="edge49" class="edge">
<title>qa_utils&#45;&gt;qa_plotting_core</title><style>.edge>path:hover{stroke-width:8}</style>
<path fill="none" stroke="black" d="M465,-610.25C490.26,-592.46 519.66,-573.71 542.27,-559.68"/>
<polygon fill="blue" stroke="black" points="543.87,-562.81 550.54,-554.58 540.2,-556.85 543.87,-562.81"/>
</g>
<!-- qa_utils&#45;&gt;qa_plotting_reports -->
<g id="edge50" class="edge">
<title>qa_utils&#45;&gt;qa_plotting_reports</title><style>.edge>path:hover{stroke-width:8}</style>
<path fill="none" stroke="black" d="M306.04,-665.1C314.01,-655.37 322.83,-642.52 327,-629.25 331.8,-613.99 333.51,-607.87 327,-593.25 312.31,-560.26 253.99,-570.66 268,-537.38"/>
</g>
<!-- qa_utils&#45;&gt;qa_plotting_wrappers -->
<g id="edge51" class="edge">
<title>qa_utils&#45;&gt;qa_plotting_wrappers</title><style>.edge>path:hover{stroke-width:8}</style>
<path fill="none" stroke="black" d="M317.48,-676.11C349.18,-667.52 400.35,-648.68 427,-612.25"/>
</g>
<!-- scipy&#45;&gt;ff -->
<g id="edge53" class="edge">
<title>scipy&#45;&gt;ff</title><style>.edge>path:hover{stroke-width:8}</style>
<path fill="none" stroke="black" d="M997,-682.25C1009.67,-613.58 1004.46,-530.96 1000.29,-488.27"/>
<polygon fill="#0653ef" stroke="black" points="1003.78,-487.95 999.26,-478.36 996.81,-488.67 1003.78,-487.95"/>
<path fill="none" stroke="black" d="M739.18,-824.76C805.92,-819.41 974.1,-794.95 997,-684.25"/>
</g>
<!-- scipy&#45;&gt;qa_plotting_core -->
<g id="edge54" class="edge">
<title>scipy&#45;&gt;qa_plotting_core</title><style>.edge>path:hover{stroke-width:8}</style>
<path fill="none" stroke="black" d="M693,-682.25C670.1,-642.45 638.11,-653.03 617,-612.25"/>
<path fill="none" stroke="black" d="M695.54,-809.17C687.35,-799.47 678.3,-786.62 674,-773.25 669.1,-758.02 671.26,-753.01 674,-737.25 678.29,-712.6 705.48,-705.94 693,-684.25"/>
</g>
<!-- scipy&#45;&gt;qa_stats -->
<g id="edge55" class="edge">
<title>scipy&#45;&gt;qa_stats</title><style>.edge>path:hover{stroke-width:8}</style>
<path fill="none" stroke="black" d="M684.87,-814.33C680.28,-812.51 675.54,-810.74 671,-809.25 611.26,-789.57 590.72,-794.87 528.14,-773.62"/>
<polygon fill="#0653ef" stroke="black" points="529.3,-770.32 518.71,-770.32 526.99,-776.93 529.3,-770.32"/>
</g>
<!-- scipy&#45;&gt;skfolio -->
<g id="edge56" class="edge">
<title>scipy&#45;&gt;skfolio</title><style>.edge>path:hover{stroke-width:8}</style>
<path fill="none" stroke="black" d="M997,-682.25C1000.17,-665.08 1011.24,-649.44 1022.63,-637.32"/>
<polygon fill="#0653ef" stroke="black" points="1024.79,-640.11 1029.41,-630.58 1019.85,-635.15 1024.79,-640.11"/>
</g>
<!-- seaborn&#45;&gt;qa_plotting_core -->
<g id="edge57" class="edge">
<title>seaborn&#45;&gt;qa_plotting_core</title><style>.edge>path:hover{stroke-width:8}</style>
<path fill="none" stroke="black" d="M541,-610.25C548.3,-596.15 556.43,-580.54 563.29,-567.4"/>
<polygon fill="#3131c4" stroke="black" points="566.25,-569.29 567.78,-558.81 560.05,-566.05 566.25,-569.29"/>
<path fill="none" stroke="black" d="M369.48,-741.71C389.93,-731.87 418.14,-717.21 441,-701.25 489.79,-667.2 513.65,-665.09 541,-612.25"/>
</g>
<!-- seaborn&#45;&gt;qa_plotting_wrappers -->
<g id="edge58" class="edge">
<title>seaborn&#45;&gt;qa_plotting_wrappers</title><style>.edge>path:hover{stroke-width:8}</style>
<path fill="none" stroke="black" d="M427,-682.25C434.56,-652.07 408.63,-637.36 427,-612.25"/>
<path fill="none" stroke="black" d="M369.19,-742.93C391.3,-731.83 419.94,-712.44 427,-684.25"/>
</g>
<!-- skfolio&#45;&gt;ff -->
<g id="edge59" class="edge">
<title>skfolio&#45;&gt;ff</title><style>.edge>path:hover{stroke-width:8}</style>
<path fill="none" stroke="black" d="M1052,-535.38C1048.73,-516.32 1036.63,-498.62 1024.6,-485.13"/>
<polygon fill="#6226d9" stroke="black" points="1027.26,-482.85 1017.85,-478 1022.18,-487.67 1027.26,-482.85"/>
<path fill="none" stroke="black" d="M1053.63,-593.03C1054.65,-578.18 1055.23,-556.2 1052,-537.38"/>
</g>
<!-- skfolio&#45;&gt;qa_main -->
<g id="edge60" class="edge">
<title>skfolio&#45;&gt;qa_main</title><style>.edge>path:hover{stroke-width:8}</style>
<path fill="none" stroke="black" d="M1052,-535.38C1040.46,-468.14 1052,-450.1 1052,-381.88 1052,-381.88 1052,-381.88 1052,-305 1052,-230.32 956.51,-190.06 901.28,-173.02"/>
<polygon fill="#6226d9" stroke="black" points="902.52,-169.74 891.93,-170.26 900.53,-176.45 902.52,-169.74"/>
</g>
<!-- tabulate -->
<g id="node25" class="node">
<title>tabulate</title><style>.edge>path:hover{stroke-width:8}</style>
<polygon fill="#9553b6" stroke="black" points="165,-629.25 162,-633.25 141,-633.25 138,-629.25 111,-629.25 111,-593.25 165,-593.25 165,-629.25"/>
<text text-anchor="middle" x="138" y="-607.38" font-family="Helvetica,sans-Serif" font-size="10.00" fill="#ffffff">tabulate</text>
</g>
<!-- tabulate&#45;&gt;qa_plotting_reports -->
<g id="edge61" class="edge">
<title>tabulate&#45;&gt;qa_plotting_reports</title><style>.edge>path:hover{stroke-width:8}</style>
<path fill="none" stroke="black" d="M165.3,-597.18C202.08,-579.25 263.52,-548.02 268,-537.38"/>
<path fill="none" stroke="black" d="M268,-535.38C285.9,-492.85 316.31,-499.8 339,-459.62"/>
<path fill="none" stroke="black" d="M339,-457.62C358.17,-423.69 399.19,-403.51 429.86,-392.62"/>
<polygon fill="#9553b6" stroke="black" points="430.82,-395.99 439.2,-389.5 428.6,-389.35 430.82,-395.99"/>
</g>
<!-- tqdm -->
<g id="node26" class="node">
<title>tqdm</title><style>.edge>path:hover{stroke-width:8}</style>
<polygon fill="#c247c2" stroke="black" points="737,-773.25 734,-777.25 713,-777.25 710,-773.25 683,-773.25 683,-737.25 737,-737.25 737,-773.25"/>
<text text-anchor="middle" x="710" y="-751.38" font-family="Helvetica,sans-Serif" font-size="10.00" fill="#ffffff">tqdm</text>
</g>
<!-- tqdm&#45;&gt;qa_main -->
<g id="edge62" class="edge">
<title>tqdm&#45;&gt;qa_main</title><style>.edge>path:hover{stroke-width:8}</style>
<path fill="none" stroke="black" d="M710.44,-736.82C711.25,-697.32 712.2,-598.02 704,-515.5 700.87,-484.02 626.05,-247.76 655,-235"/>
</g>
<!-- tqdm&#45;&gt;qa_plotting_core -->
<g id="edge63" class="edge">
<title>tqdm&#45;&gt;qa_plotting_core</title><style>.edge>path:hover{stroke-width:8}</style>
<path fill="none" stroke="black" d="M708.52,-736.84C706.64,-722.03 702.42,-700.62 693,-684.25"/>
</g>
<!-- utils -->
<g id="node27" class="node">
<title>utils</title><style>.edge>path:hover{stroke-width:8}</style>
<polygon fill="blue" stroke="black" points="885,-773.25 882,-777.25 861,-777.25 858,-773.25 831,-773.25 831,-737.25 885,-737.25 885,-773.25"/>
<text text-anchor="middle" x="858" y="-751.38" font-family="Helvetica,sans-Serif" font-size="10.00" fill="#fbf8ef">utils</text>
</g>
<!-- utils&#45;&gt;qa -->
<g id="edge64" class="edge">
<title>utils&#45;&gt;qa</title><style>.edge>path:hover{stroke-width:8}</style>
<path fill="none" stroke="black" d="M845,-535.38C849.02,-501.95 855.74,-491.53 845,-459.62"/>
<path fill="none" stroke="black" d="M845,-610.25C839.52,-578.33 841.13,-569.53 845,-537.38"/>
</g>
<!-- utils&#45;&gt;qa_cli -->
<g id="edge65" class="edge">
<title>utils&#45;&gt;qa_cli</title><style>.edge>path:hover{stroke-width:8}</style>
<path fill="none" stroke="black" d="M845,-682.25C840.06,-609.71 921,-610.09 921,-537.38 921,-537.38 921,-537.38 921,-233 921,-192.55 918.58,-180.89 902,-144 897.32,-133.59 890.36,-123.24 883.6,-114.48"/>
<polygon fill="blue" stroke="black" points="886.44,-112.42 877.43,-106.85 881,-116.83 886.44,-112.42"/>
</g>
<!-- utils&#45;&gt;qa_main -->
<g id="edge66" class="edge">
<title>utils&#45;&gt;qa_main</title><style>.edge>path:hover{stroke-width:8}</style>
<path fill="none" stroke="black" d="M845,-535.38C849.5,-497.98 887.5,-497.02 883,-459.62"/>
<path fill="none" stroke="black" d="M883,-233C879.58,-219.09 875.27,-203.78 871.53,-191.04"/>
<polygon fill="blue" stroke="black" points="874.93,-190.2 868.72,-181.62 868.22,-192.2 874.93,-190.2"/>
<path fill="none" stroke="black" d="M883,-457.62C871.17,-359.39 906.63,-331.08 883,-235"/>
</g>
<!-- utils&#45;&gt;qa_plotting_core -->
<g id="edge67" class="edge">
<title>utils&#45;&gt;qa_plotting_core</title><style>.edge>path:hover{stroke-width:8}</style>
<path fill="none" stroke="black" d="M835.64,-736.87C787.16,-699.18 672.05,-609.71 613.9,-564.51"/>
<polygon fill="blue" stroke="black" points="616.32,-561.95 606.27,-558.58 612.02,-567.48 616.32,-561.95"/>
</g>
<!-- utils&#45;&gt;qa_plotting_reports -->
<g id="edge68" class="edge">
<title>utils&#45;&gt;qa_plotting_reports</title><style>.edge>path:hover{stroke-width:8}</style>
<path fill="none" stroke="black" d="M845,-610.25C781.73,-471.79 589.14,-410.62 506.42,-390.22"/>
<polygon fill="blue" stroke="black" points="507.28,-386.83 496.74,-387.91 505.66,-393.64 507.28,-386.83"/>
<path fill="none" stroke="black" d="M845,-682.25C842.88,-651.21 850.27,-642.91 845,-612.25"/>
</g>
<!-- utils&#45;&gt;qa_plotting_wrappers -->
<g id="edge69" class="edge">
<title>utils&#45;&gt;qa_plotting_wrappers</title><style>.edge>path:hover{stroke-width:8}</style>
<path fill="none" stroke="black" d="M845,-682.25C836.08,-582.68 735.74,-620.11 658,-557.25 637.29,-540.5 637.47,-529.81 615,-515.5 581.16,-493.95 537.73,-478.73 506.87,-469.67"/>
<polygon fill="blue" stroke="black" points="508.15,-466.4 497.57,-467.03 506.23,-473.13 508.15,-466.4"/>
<path fill="none" stroke="black" d="M853.61,-736.84C850.34,-722.77 846.24,-702.38 845,-684.25"/>
</g>
<!-- weasyprint -->
<g id="node28" class="node">
<title>weasyprint</title><style>.edge>path:hover{stroke-width:8}</style>
<polygon fill="#ce3b6c" stroke="black" points="246.62,-629.25 243.62,-633.25 222.62,-633.25 219.62,-629.25 183.38,-629.25 183.38,-593.25 246.62,-593.25 246.62,-629.25"/>
<text text-anchor="middle" x="215" y="-607.38" font-family="Helvetica,sans-Serif" font-size="10.00" fill="#ffffff">weasyprint</text>
</g>
<!-- weasyprint&#45;&gt;qa_plotting_reports -->
<g id="edge70" class="edge">
<title>weasyprint&#45;&gt;qa_plotting_reports</title><style>.edge>path:hover{stroke-width:8}</style>
<path fill="none" stroke="black" d="M231.29,-592.82C243.37,-578.89 259.2,-558.28 268,-537.38"/>
</g>
</g>
</svg>
