<?xml version="1.0" encoding="UTF-8" standalone="no"?>
<!DOCTYPE svg PUBLIC "-//W3C//DTD SVG 1.1//EN"
 "http://www.w3.org/Graphics/SVG/1.1/DTD/svg11.dtd">
<!-- Generated by graphviz version 12.2.1 (20241206.2353)
 -->
<!-- Title: G Pages: 1 -->
<svg width="1961pt" height="535pt"
 viewBox="0.00 0.00 1961.33 535.00" xmlns="http://www.w3.org/2000/svg" xmlns:xlink="http://www.w3.org/1999/xlink">
<g id="graph0" class="graph" transform="scale(1 1) rotate(0) translate(4 531)">
<title>G</title><style>.edge>path:hover{stroke-width:8}</style>
<polygon fill="#fbf8ef" stroke="none" points="-4,4 -4,-531 1957.33,-531 1957.33,4 -4,4"/>
<!-- utils -->
<g id="node1" class="node">
<title>utils</title><style>.edge>path:hover{stroke-width:8}</style>
<polygon fill="blue" stroke="black" points="1416.66,-36 1362.66,-36 1362.66,0 1416.66,0 1416.66,-36"/>
<text text-anchor="middle" x="1389.66" y="-14.12" font-family="Helvetica,sans-Serif" font-size="10.00" fill="#fbf8ef">utils</text>
</g>
<!-- utils_constants -->
<g id="node2" class="node">
<title>utils_constants</title><style>.edge>path:hover{stroke-width:8}</style>
<polygon fill="blue" stroke="black" points="1389.04,-180 1330.29,-180 1330.29,-144 1389.04,-144 1389.04,-180"/>
<text text-anchor="middle" x="1359.66" y="-163.75" font-family="Helvetica,sans-Serif" font-size="10.00" fill="#fbf8ef">utils.</text>
<text text-anchor="middle" x="1359.66" y="-152.5" font-family="Helvetica,sans-Serif" font-size="10.00" fill="#fbf8ef">constants</text>
</g>
<!-- utils_constants&#45;&gt;utils -->
<g id="edge1" class="edge">
<title>utils_constants&#45;&gt;utils</title><style>.edge>path:hover{stroke-width:8}</style>
<path fill="none" stroke="black" d="M1363.34,-143.59C1368.43,-119.5 1377.67,-75.75 1383.74,-47.03"/>
<polygon fill="blue" stroke="black" points="1387.09,-48.1 1385.74,-37.59 1380.24,-46.65 1387.09,-48.1"/>
</g>
<!-- utils_logger -->
<g id="node28" class="node">
<title>utils_logger</title><style>.edge>path:hover{stroke-width:8}</style>
<polygon fill="blue" stroke="black" points="1451.29,-108 1388.04,-108 1388.04,-72 1451.29,-72 1451.29,-108"/>
<text text-anchor="middle" x="1419.66" y="-86.12" font-family="Helvetica,sans-Serif" font-size="10.00" fill="#fbf8ef">utils.logger</text>
</g>
<!-- utils_constants&#45;&gt;utils_logger -->
<g id="edge2" class="edge">
<title>utils_constants&#45;&gt;utils_logger</title><style>.edge>path:hover{stroke-width:8}</style>
<path fill="none" stroke="black" d="M1381.88,-135.08C1387.07,-129.03 1392.58,-122.59 1397.75,-116.56"/>
<polygon fill="blue" stroke="black" points="1379.33,-132.68 1375.48,-142.55 1384.65,-137.23 1379.33,-132.68"/>
<polygon fill="blue" stroke="black" points="1400.17,-119.12 1404.02,-109.25 1394.85,-114.57 1400.17,-119.12"/>
</g>
<!-- utils_constants_metadata -->
<g id="node3" class="node">
<title>utils_constants_metadata</title><style>.edge>path:hover{stroke-width:8}</style>
<ellipse fill="#c24747" stroke="black" cx="1254.66" cy="-245.52" rx="43.66" ry="29.52"/>
<text text-anchor="middle" x="1254.66" y="-252.9" font-family="Helvetica,sans-Serif" font-size="10.00" fill="#ffffff">utils.</text>
<text text-anchor="middle" x="1254.66" y="-241.65" font-family="Helvetica,sans-Serif" font-size="10.00" fill="#ffffff">constants.</text>
<text text-anchor="middle" x="1254.66" y="-230.4" font-family="Helvetica,sans-Serif" font-size="10.00" fill="#ffffff">metadata</text>
</g>
<!-- utils_constants_metadata&#45;&gt;utils_constants -->
<g id="edge3" class="edge">
<title>utils_constants_metadata&#45;&gt;utils_constants</title><style>.edge>path:hover{stroke-width:8}</style>
<path fill="none" stroke="black" d="M1282.8,-222.68C1296.85,-211.77 1313.9,-198.53 1328.36,-187.3"/>
<polygon fill="#c24747" stroke="black" points="1330.49,-190.08 1336.24,-181.18 1326.2,-184.55 1330.49,-190.08"/>
</g>
<!-- utils_constants_miscellaneous -->
<g id="node4" class="node">
<title>utils_constants_miscellaneous</title><style>.edge>path:hover{stroke-width:8}</style>
<ellipse fill="#ce3b3b" stroke="black" cx="1556.66" cy="-245.52" rx="55.33" ry="29.52"/>
<text text-anchor="middle" x="1556.66" y="-252.9" font-family="Helvetica,sans-Serif" font-size="10.00" fill="#ffffff">utils.</text>
<text text-anchor="middle" x="1556.66" y="-241.65" font-family="Helvetica,sans-Serif" font-size="10.00" fill="#ffffff">constants.</text>
<text text-anchor="middle" x="1556.66" y="-230.4" font-family="Helvetica,sans-Serif" font-size="10.00" fill="#ffffff">miscellaneous</text>
</g>
<!-- utils_constants_miscellaneous&#45;&gt;utils_constants -->
<g id="edge4" class="edge">
<title>utils_constants_miscellaneous&#45;&gt;utils_constants</title><style>.edge>path:hover{stroke-width:8}</style>
<path fill="none" stroke="black" d="M1515.11,-225.72C1507.66,-222.42 1499.95,-219.07 1492.66,-216 1461.67,-202.92 1426.27,-188.86 1399.79,-178.51"/>
<polygon fill="#ce3b3b" stroke="black" points="1401.38,-175.37 1390.79,-175 1398.84,-181.89 1401.38,-175.37"/>
</g>
<!-- utils_constants_miscellaneous&#45;&gt;utils_logger -->
<g id="edge5" class="edge">
<title>utils_constants_miscellaneous&#45;&gt;utils_logger</title><style>.edge>path:hover{stroke-width:8}</style>
<path fill="none" stroke="black" d="M1533.42,-218.48C1508.07,-190.07 1467.75,-144.89 1442.55,-116.64"/>
<polygon fill="#ce3b3b" stroke="black" points="1445.21,-114.37 1435.94,-109.24 1439.99,-119.03 1445.21,-114.37"/>
</g>
<!-- utils_constants_paths -->
<g id="node5" class="node">
<title>utils_constants_paths</title><style>.edge>path:hover{stroke-width:8}</style>
<ellipse fill="#c24747" stroke="black" cx="1359.66" cy="-245.52" rx="43.66" ry="29.52"/>
<text text-anchor="middle" x="1359.66" y="-252.9" font-family="Helvetica,sans-Serif" font-size="10.00" fill="#ffffff">utils.</text>
<text text-anchor="middle" x="1359.66" y="-241.65" font-family="Helvetica,sans-Serif" font-size="10.00" fill="#ffffff">constants.</text>
<text text-anchor="middle" x="1359.66" y="-230.4" font-family="Helvetica,sans-Serif" font-size="10.00" fill="#ffffff">paths</text>
</g>
<!-- utils_constants_paths&#45;&gt;utils_constants -->
<g id="edge6" class="edge">
<title>utils_constants_paths&#45;&gt;utils_constants</title><style>.edge>path:hover{stroke-width:8}</style>
<path fill="none" stroke="black" d="M1359.66,-215.55C1359.66,-207.86 1359.66,-199.56 1359.66,-191.88"/>
<polygon fill="#c24747" stroke="black" points="1363.16,-192 1359.66,-182 1356.16,-192 1363.16,-192"/>
</g>
<!-- utils_constants_universe -->
<g id="node6" class="node">
<title>utils_constants_universe</title><style>.edge>path:hover{stroke-width:8}</style>
<polygon fill="blue" stroke="black" points="1483.54,-266.4 1421.79,-266.4 1421.79,-224.65 1483.54,-224.65 1483.54,-266.4"/>
<text text-anchor="middle" x="1452.66" y="-252.9" font-family="Helvetica,sans-Serif" font-size="10.00" fill="#fbf8ef">utils.</text>
<text text-anchor="middle" x="1452.66" y="-241.65" font-family="Helvetica,sans-Serif" font-size="10.00" fill="#fbf8ef">constants.</text>
<text text-anchor="middle" x="1452.66" y="-230.4" font-family="Helvetica,sans-Serif" font-size="10.00" fill="#fbf8ef">universe</text>
</g>
<!-- utils_constants_universe&#45;&gt;utils_constants -->
<g id="edge7" class="edge">
<title>utils_constants_universe&#45;&gt;utils_constants</title><style>.edge>path:hover{stroke-width:8}</style>
<path fill="none" stroke="black" d="M1429.68,-224.37C1417.06,-213.31 1401.3,-199.5 1387.93,-187.78"/>
<polygon fill="blue" stroke="black" points="1390.52,-185.39 1380.69,-181.43 1385.9,-190.66 1390.52,-185.39"/>
</g>
<!-- utils_constants_universe_chains -->
<g id="node7" class="node">
<title>utils_constants_universe_chains</title><style>.edge>path:hover{stroke-width:8}</style>
<polygon fill="blue" stroke="black" points="1847.54,-471.98 1785.79,-471.98 1785.79,-418.98 1847.54,-418.98 1847.54,-471.98"/>
<text text-anchor="middle" x="1816.66" y="-458.48" font-family="Helvetica,sans-Serif" font-size="10.00" fill="#fbf8ef">utils.</text>
<text text-anchor="middle" x="1816.66" y="-447.23" font-family="Helvetica,sans-Serif" font-size="10.00" fill="#fbf8ef">constants.</text>
<text text-anchor="middle" x="1816.66" y="-435.98" font-family="Helvetica,sans-Serif" font-size="10.00" fill="#fbf8ef">universe.</text>
<text text-anchor="middle" x="1816.66" y="-424.73" font-family="Helvetica,sans-Serif" font-size="10.00" fill="#fbf8ef">chains</text>
</g>
<!-- utils_constants_universe_chains&#45;&gt;utils_constants_universe -->
<g id="edge8" class="edge">
<title>utils_constants_universe_chains&#45;&gt;utils_constants_universe</title><style>.edge>path:hover{stroke-width:8}</style>
<path fill="none" stroke="black" d="M1862.66,-336.54C1758.19,-206.64 1646.72,-338.74 1492.66,-275.04 1490.88,-274.3 1489.09,-273.47 1487.32,-272.57"/>
<polygon fill="blue" stroke="black" points="1489.16,-269.59 1478.77,-267.55 1485.62,-275.63 1489.16,-269.59"/>
<path fill="none" stroke="black" d="M1841.97,-418.88C1861.44,-396.05 1882.01,-362.6 1862.66,-338.54"/>
</g>
<!-- utils_constants_universe_main -->
<g id="node25" class="node">
<title>utils_constants_universe_main</title><style>.edge>path:hover{stroke-width:8}</style>
<polygon fill="blue" stroke="black" points="1072.54,-364.04 1010.79,-364.04 1010.79,-311.04 1072.54,-311.04 1072.54,-364.04"/>
<text text-anchor="middle" x="1041.66" y="-350.54" font-family="Helvetica,sans-Serif" font-size="10.00" fill="#fbf8ef">utils.</text>
<text text-anchor="middle" x="1041.66" y="-339.29" font-family="Helvetica,sans-Serif" font-size="10.00" fill="#fbf8ef">constants.</text>
<text text-anchor="middle" x="1041.66" y="-328.04" font-family="Helvetica,sans-Serif" font-size="10.00" fill="#fbf8ef">universe.</text>
<text text-anchor="middle" x="1041.66" y="-316.79" font-family="Helvetica,sans-Serif" font-size="10.00" fill="#fbf8ef">main</text>
</g>
<!-- utils_constants_universe_chains&#45;&gt;utils_constants_universe_main -->
<g id="edge9" class="edge">
<title>utils_constants_universe_chains&#45;&gt;utils_constants_universe_main</title><style>.edge>path:hover{stroke-width:8}</style>
<path fill="none" stroke="black" d="M1799.38,-418.83C1793.12,-411.52 1785.4,-404.38 1776.66,-400.04 1653.79,-339.06 1221.75,-337.08 1084.12,-338.05"/>
<polygon fill="blue" stroke="black" points="1084.34,-334.55 1074.36,-338.13 1084.39,-341.55 1084.34,-334.55"/>
</g>
<!-- utils_constants_universe_chains_arbitrum -->
<g id="node8" class="node">
<title>utils_constants_universe_chains_arbitrum</title><style>.edge>path:hover{stroke-width:8}</style>
<ellipse fill="#ce3b3b" stroke="black" cx="1198.66" cy="-445.48" rx="43.66" ry="45.43"/>
<text text-anchor="middle" x="1198.66" y="-464.1" font-family="Helvetica,sans-Serif" font-size="10.00" fill="#ffffff">utils.</text>
<text text-anchor="middle" x="1198.66" y="-452.85" font-family="Helvetica,sans-Serif" font-size="10.00" fill="#ffffff">constants.</text>
<text text-anchor="middle" x="1198.66" y="-441.6" font-family="Helvetica,sans-Serif" font-size="10.00" fill="#ffffff">universe.</text>
<text text-anchor="middle" x="1198.66" y="-430.35" font-family="Helvetica,sans-Serif" font-size="10.00" fill="#ffffff">chains.</text>
<text text-anchor="middle" x="1198.66" y="-419.1" font-family="Helvetica,sans-Serif" font-size="10.00" fill="#ffffff">arbitrum</text>
</g>
<!-- utils_constants_universe_chains_arbitrum&#45;&gt;utils_constants_universe_chains -->
<g id="edge10" class="edge">
<title>utils_constants_universe_chains_arbitrum&#45;&gt;utils_constants_universe_chains</title><style>.edge>path:hover{stroke-width:8}</style>
<path fill="none" stroke="black" d="M1224.85,-482.44C1234.47,-493.02 1246.31,-503.22 1259.66,-508.91 1311.6,-531.02 1717,-533.79 1767.66,-508.91 1779.74,-502.98 1789.68,-492.48 1797.38,-481.71"/>
<polygon fill="#ce3b3b" stroke="black" points="1800.18,-483.83 1802.74,-473.55 1794.32,-479.99 1800.18,-483.83"/>
</g>
<!-- utils_constants_universe_chains_arbitrum&#45;&gt;utils_constants_universe_main -->
<g id="edge11" class="edge">
<title>utils_constants_universe_chains_arbitrum&#45;&gt;utils_constants_universe_main</title><style>.edge>path:hover{stroke-width:8}</style>
<path fill="none" stroke="black" d="M1165.8,-414.89C1159.6,-409.74 1153.05,-404.59 1146.66,-400.04 1126.44,-385.65 1102.65,-371.51 1082.84,-360.43"/>
<polygon fill="#ce3b3b" stroke="black" points="1084.65,-357.43 1074.21,-355.66 1081.27,-363.56 1084.65,-357.43"/>
</g>
<!-- utils_constants_universe_chains_aurora -->
<g id="node9" class="node">
<title>utils_constants_universe_chains_aurora</title><style>.edge>path:hover{stroke-width:8}</style>
<ellipse fill="#ce3b3b" stroke="black" cx="1303.66" cy="-445.48" rx="43.66" ry="45.43"/>
<text text-anchor="middle" x="1303.66" y="-464.1" font-family="Helvetica,sans-Serif" font-size="10.00" fill="#ffffff">utils.</text>
<text text-anchor="middle" x="1303.66" y="-452.85" font-family="Helvetica,sans-Serif" font-size="10.00" fill="#ffffff">constants.</text>
<text text-anchor="middle" x="1303.66" y="-441.6" font-family="Helvetica,sans-Serif" font-size="10.00" fill="#ffffff">universe.</text>
<text text-anchor="middle" x="1303.66" y="-430.35" font-family="Helvetica,sans-Serif" font-size="10.00" fill="#ffffff">chains.</text>
<text text-anchor="middle" x="1303.66" y="-419.1" font-family="Helvetica,sans-Serif" font-size="10.00" fill="#ffffff">aurora</text>
</g>
<!-- utils_constants_universe_chains_aurora&#45;&gt;utils_constants_universe_chains -->
<g id="edge12" class="edge">
<title>utils_constants_universe_chains_aurora&#45;&gt;utils_constants_universe_chains</title><style>.edge>path:hover{stroke-width:8}</style>
<path fill="none" stroke="black" d="M1329.85,-482.44C1339.47,-493.02 1351.31,-503.22 1364.66,-508.91 1405.86,-526.45 1727.47,-528.65 1767.66,-508.91 1779.74,-502.98 1789.68,-492.48 1797.38,-481.71"/>
<polygon fill="#ce3b3b" stroke="black" points="1800.18,-483.83 1802.74,-473.55 1794.32,-479.99 1800.18,-483.83"/>
</g>
<!-- utils_constants_universe_chains_aurora&#45;&gt;utils_constants_universe_main -->
<g id="edge13" class="edge">
<title>utils_constants_universe_chains_aurora&#45;&gt;utils_constants_universe_main</title><style>.edge>path:hover{stroke-width:8}</style>
<path fill="none" stroke="black" d="M1271.93,-413.77C1265.56,-408.68 1258.66,-403.83 1251.66,-400.04 1197.53,-370.75 1127.8,-353.9 1083.9,-345.48"/>
<polygon fill="#ce3b3b" stroke="black" points="1084.74,-342.08 1074.27,-343.7 1083.46,-348.96 1084.74,-342.08"/>
</g>
<!-- utils_constants_universe_chains_avax -->
<g id="node10" class="node">
<title>utils_constants_universe_chains_avax</title><style>.edge>path:hover{stroke-width:8}</style>
<ellipse fill="#ce3b3b" stroke="black" cx="1408.66" cy="-445.48" rx="43.66" ry="45.43"/>
<text text-anchor="middle" x="1408.66" y="-464.1" font-family="Helvetica,sans-Serif" font-size="10.00" fill="#ffffff">utils.</text>
<text text-anchor="middle" x="1408.66" y="-452.85" font-family="Helvetica,sans-Serif" font-size="10.00" fill="#ffffff">constants.</text>
<text text-anchor="middle" x="1408.66" y="-441.6" font-family="Helvetica,sans-Serif" font-size="10.00" fill="#ffffff">universe.</text>
<text text-anchor="middle" x="1408.66" y="-430.35" font-family="Helvetica,sans-Serif" font-size="10.00" fill="#ffffff">chains.</text>
<text text-anchor="middle" x="1408.66" y="-419.1" font-family="Helvetica,sans-Serif" font-size="10.00" fill="#ffffff">avax</text>
</g>
<!-- utils_constants_universe_chains_avax&#45;&gt;utils_constants_universe_chains -->
<g id="edge14" class="edge">
<title>utils_constants_universe_chains_avax&#45;&gt;utils_constants_universe_chains</title><style>.edge>path:hover{stroke-width:8}</style>
<path fill="none" stroke="black" d="M1434.85,-482.44C1444.47,-493.02 1456.31,-503.22 1469.66,-508.91 1500.13,-521.88 1737.94,-523.5 1767.66,-508.91 1779.74,-502.98 1789.68,-492.48 1797.38,-481.71"/>
<polygon fill="#ce3b3b" stroke="black" points="1800.18,-483.83 1802.74,-473.55 1794.32,-479.99 1800.18,-483.83"/>
</g>
<!-- utils_constants_universe_chains_avax&#45;&gt;utils_constants_universe_main -->
<g id="edge15" class="edge">
<title>utils_constants_universe_chains_avax&#45;&gt;utils_constants_universe_main</title><style>.edge>path:hover{stroke-width:8}</style>
<path fill="none" stroke="black" d="M1377.49,-413.46C1371.01,-408.34 1363.93,-403.56 1356.66,-400.04 1266.16,-356.33 1146.81,-343.69 1084.2,-340.03"/>
<polygon fill="#ce3b3b" stroke="black" points="1084.5,-336.54 1074.33,-339.51 1084.13,-343.53 1084.5,-336.54"/>
</g>
<!-- utils_constants_universe_chains_base -->
<g id="node11" class="node">
<title>utils_constants_universe_chains_base</title><style>.edge>path:hover{stroke-width:8}</style>
<ellipse fill="#ce3b3b" stroke="black" cx="1513.66" cy="-445.48" rx="43.66" ry="45.43"/>
<text text-anchor="middle" x="1513.66" y="-464.1" font-family="Helvetica,sans-Serif" font-size="10.00" fill="#ffffff">utils.</text>
<text text-anchor="middle" x="1513.66" y="-452.85" font-family="Helvetica,sans-Serif" font-size="10.00" fill="#ffffff">constants.</text>
<text text-anchor="middle" x="1513.66" y="-441.6" font-family="Helvetica,sans-Serif" font-size="10.00" fill="#ffffff">universe.</text>
<text text-anchor="middle" x="1513.66" y="-430.35" font-family="Helvetica,sans-Serif" font-size="10.00" fill="#ffffff">chains.</text>
<text text-anchor="middle" x="1513.66" y="-419.1" font-family="Helvetica,sans-Serif" font-size="10.00" fill="#ffffff">base</text>
</g>
<!-- utils_constants_universe_chains_base&#45;&gt;utils_constants_universe_chains -->
<g id="edge16" class="edge">
<title>utils_constants_universe_chains_base&#45;&gt;utils_constants_universe_chains</title><style>.edge>path:hover{stroke-width:8}</style>
<path fill="none" stroke="black" d="M1539.85,-482.44C1549.47,-493.02 1561.31,-503.22 1574.66,-508.91 1614.13,-525.71 1729.17,-527.81 1767.66,-508.91 1779.74,-502.98 1789.68,-492.48 1797.38,-481.71"/>
<polygon fill="#ce3b3b" stroke="black" points="1800.18,-483.83 1802.74,-473.55 1794.32,-479.99 1800.18,-483.83"/>
</g>
<!-- utils_constants_universe_chains_base&#45;&gt;utils_constants_universe_main -->
<g id="edge17" class="edge">
<title>utils_constants_universe_chains_base&#45;&gt;utils_constants_universe_main</title><style>.edge>path:hover{stroke-width:8}</style>
<path fill="none" stroke="black" d="M1482.62,-413.18C1476.13,-408.08 1469.02,-403.38 1461.66,-400.04 1394.73,-369.65 1177.04,-349.28 1084.22,-341.77"/>
<polygon fill="#ce3b3b" stroke="black" points="1084.51,-338.28 1074.27,-340.97 1083.96,-345.26 1084.51,-338.28"/>
</g>
<!-- utils_constants_universe_chains_berachain -->
<g id="node12" class="node">
<title>utils_constants_universe_chains_berachain</title><style>.edge>path:hover{stroke-width:8}</style>
<ellipse fill="#ce3b3b" stroke="black" cx="1618.66" cy="-445.48" rx="43.66" ry="45.43"/>
<text text-anchor="middle" x="1618.66" y="-464.1" font-family="Helvetica,sans-Serif" font-size="10.00" fill="#ffffff">utils.</text>
<text text-anchor="middle" x="1618.66" y="-452.85" font-family="Helvetica,sans-Serif" font-size="10.00" fill="#ffffff">constants.</text>
<text text-anchor="middle" x="1618.66" y="-441.6" font-family="Helvetica,sans-Serif" font-size="10.00" fill="#ffffff">universe.</text>
<text text-anchor="middle" x="1618.66" y="-430.35" font-family="Helvetica,sans-Serif" font-size="10.00" fill="#ffffff">chains.</text>
<text text-anchor="middle" x="1618.66" y="-419.1" font-family="Helvetica,sans-Serif" font-size="10.00" fill="#ffffff">berachain</text>
</g>
<!-- utils_constants_universe_chains_berachain&#45;&gt;utils_constants_universe_chains -->
<g id="edge18" class="edge">
<title>utils_constants_universe_chains_berachain&#45;&gt;utils_constants_universe_chains</title><style>.edge>path:hover{stroke-width:8}</style>
<path fill="none" stroke="black" d="M1644.85,-482.44C1654.47,-493.02 1666.31,-503.22 1679.66,-508.91 1715.65,-524.23 1732.56,-526.15 1767.66,-508.91 1779.74,-502.98 1789.68,-492.48 1797.38,-481.71"/>
<polygon fill="#ce3b3b" stroke="black" points="1800.18,-483.83 1802.74,-473.55 1794.32,-479.99 1800.18,-483.83"/>
</g>
<!-- utils_constants_universe_chains_berachain&#45;&gt;utils_constants_universe_main -->
<g id="edge19" class="edge">
<title>utils_constants_universe_chains_berachain&#45;&gt;utils_constants_universe_main</title><style>.edge>path:hover{stroke-width:8}</style>
<path fill="none" stroke="black" d="M1587.69,-413.01C1581.2,-407.93 1574.06,-403.28 1566.66,-400.04 1480.05,-362.21 1192.9,-345.44 1084.02,-340.34"/>
<polygon fill="#ce3b3b" stroke="black" points="1084.51,-336.85 1074.36,-339.89 1084.19,-343.85 1084.51,-336.85"/>
</g>
<!-- utils_constants_universe_chains_bsc -->
<g id="node13" class="node">
<title>utils_constants_universe_chains_bsc</title><style>.edge>path:hover{stroke-width:8}</style>
<ellipse fill="#ce3b3b" stroke="black" cx="1723.66" cy="-445.48" rx="43.66" ry="45.43"/>
<text text-anchor="middle" x="1723.66" y="-464.1" font-family="Helvetica,sans-Serif" font-size="10.00" fill="#ffffff">utils.</text>
<text text-anchor="middle" x="1723.66" y="-452.85" font-family="Helvetica,sans-Serif" font-size="10.00" fill="#ffffff">constants.</text>
<text text-anchor="middle" x="1723.66" y="-441.6" font-family="Helvetica,sans-Serif" font-size="10.00" fill="#ffffff">universe.</text>
<text text-anchor="middle" x="1723.66" y="-430.35" font-family="Helvetica,sans-Serif" font-size="10.00" fill="#ffffff">chains.</text>
<text text-anchor="middle" x="1723.66" y="-419.1" font-family="Helvetica,sans-Serif" font-size="10.00" fill="#ffffff">bsc</text>
</g>
<!-- utils_constants_universe_chains_bsc&#45;&gt;utils_constants_universe_chains -->
<g id="edge20" class="edge">
<title>utils_constants_universe_chains_bsc&#45;&gt;utils_constants_universe_chains</title><style>.edge>path:hover{stroke-width:8}</style>
<path fill="none" stroke="black" d="M1767.62,-445.48C1769.87,-445.48 1772.12,-445.48 1774.37,-445.48"/>
<polygon fill="#ce3b3b" stroke="black" points="1774.12,-448.98 1784.12,-445.48 1774.12,-441.98 1774.12,-448.98"/>
</g>
<!-- utils_constants_universe_chains_bsc&#45;&gt;utils_constants_universe_main -->
<g id="edge21" class="edge">
<title>utils_constants_universe_chains_bsc&#45;&gt;utils_constants_universe_main</title><style>.edge>path:hover{stroke-width:8}</style>
<path fill="none" stroke="black" d="M1692.74,-412.9C1686.25,-407.82 1679.09,-403.2 1671.66,-400.04 1565.13,-354.72 1207.18,-342.34 1083.85,-339.38"/>
<polygon fill="#ce3b3b" stroke="black" points="1084.25,-335.89 1074.18,-339.16 1084.09,-342.89 1084.25,-335.89"/>
</g>
<!-- utils_constants_universe_chains_celo -->
<g id="node14" class="node">
<title>utils_constants_universe_chains_celo</title><style>.edge>path:hover{stroke-width:8}</style>
<ellipse fill="#ce3b3b" stroke="black" cx="43.66" cy="-445.48" rx="43.66" ry="45.43"/>
<text text-anchor="middle" x="43.66" y="-464.1" font-family="Helvetica,sans-Serif" font-size="10.00" fill="#ffffff">utils.</text>
<text text-anchor="middle" x="43.66" y="-452.85" font-family="Helvetica,sans-Serif" font-size="10.00" fill="#ffffff">constants.</text>
<text text-anchor="middle" x="43.66" y="-441.6" font-family="Helvetica,sans-Serif" font-size="10.00" fill="#ffffff">universe.</text>
<text text-anchor="middle" x="43.66" y="-430.35" font-family="Helvetica,sans-Serif" font-size="10.00" fill="#ffffff">chains.</text>
<text text-anchor="middle" x="43.66" y="-419.1" font-family="Helvetica,sans-Serif" font-size="10.00" fill="#ffffff">celo</text>
</g>
<!-- utils_constants_universe_chains_celo&#45;&gt;utils_constants_universe_chains -->
<g id="edge22" class="edge">
<title>utils_constants_universe_chains_celo&#45;&gt;utils_constants_universe_chains</title><style>.edge>path:hover{stroke-width:8}</style>
<path fill="none" stroke="black" d="M69.85,-482.44C79.47,-493.02 91.31,-503.22 104.66,-508.91 147.17,-527 1726.2,-529.27 1767.66,-508.91 1779.74,-502.98 1789.68,-492.48 1797.38,-481.71"/>
<polygon fill="#ce3b3b" stroke="black" points="1800.18,-483.83 1802.74,-473.55 1794.32,-479.99 1800.18,-483.83"/>
</g>
<!-- utils_constants_universe_chains_celo&#45;&gt;utils_constants_universe_main -->
<g id="edge23" class="edge">
<title>utils_constants_universe_chains_celo&#45;&gt;utils_constants_universe_main</title><style>.edge>path:hover{stroke-width:8}</style>
<path fill="none" stroke="black" d="M74.5,-412.7C81.01,-407.64 88.18,-403.08 95.66,-400.04 180.02,-365.76 825.47,-344.79 998.89,-339.74"/>
<polygon fill="#ce3b3b" stroke="black" points="998.9,-343.24 1008.8,-339.45 998.7,-336.24 998.9,-343.24"/>
</g>
<!-- utils_constants_universe_chains_cronos -->
<g id="node15" class="node">
<title>utils_constants_universe_chains_cronos</title><style>.edge>path:hover{stroke-width:8}</style>
<ellipse fill="#ce3b3b" stroke="black" cx="148.66" cy="-445.48" rx="43.66" ry="45.43"/>
<text text-anchor="middle" x="148.66" y="-464.1" font-family="Helvetica,sans-Serif" font-size="10.00" fill="#ffffff">utils.</text>
<text text-anchor="middle" x="148.66" y="-452.85" font-family="Helvetica,sans-Serif" font-size="10.00" fill="#ffffff">constants.</text>
<text text-anchor="middle" x="148.66" y="-441.6" font-family="Helvetica,sans-Serif" font-size="10.00" fill="#ffffff">universe.</text>
<text text-anchor="middle" x="148.66" y="-430.35" font-family="Helvetica,sans-Serif" font-size="10.00" fill="#ffffff">chains.</text>
<text text-anchor="middle" x="148.66" y="-419.1" font-family="Helvetica,sans-Serif" font-size="10.00" fill="#ffffff">cronos</text>
</g>
<!-- utils_constants_universe_chains_cronos&#45;&gt;utils_constants_universe_chains -->
<g id="edge24" class="edge">
<title>utils_constants_universe_chains_cronos&#45;&gt;utils_constants_universe_chains</title><style>.edge>path:hover{stroke-width:8}</style>
<path fill="none" stroke="black" d="M174.85,-482.44C184.47,-493.02 196.31,-503.22 209.66,-508.91 249.48,-525.86 1728.82,-527.99 1767.66,-508.91 1779.74,-502.98 1789.68,-492.48 1797.38,-481.71"/>
<polygon fill="#ce3b3b" stroke="black" points="1800.18,-483.83 1802.74,-473.55 1794.32,-479.99 1800.18,-483.83"/>
</g>
<!-- utils_constants_universe_chains_cronos&#45;&gt;utils_constants_universe_main -->
<g id="edge25" class="edge">
<title>utils_constants_universe_chains_cronos&#45;&gt;utils_constants_universe_main</title><style>.edge>path:hover{stroke-width:8}</style>
<path fill="none" stroke="black" d="M179.52,-412.75C186.03,-407.69 193.2,-403.11 200.66,-400.04 347.49,-339.68 849.13,-337.46 999.03,-338.18"/>
<polygon fill="#ce3b3b" stroke="black" points="998.89,-341.68 1008.91,-338.24 998.93,-334.68 998.89,-341.68"/>
</g>
<!-- utils_constants_universe_chains_ethereum -->
<g id="node16" class="node">
<title>utils_constants_universe_chains_ethereum</title><style>.edge>path:hover{stroke-width:8}</style>
<ellipse fill="#ce3b3b" stroke="black" cx="253.66" cy="-445.48" rx="43.66" ry="45.43"/>
<text text-anchor="middle" x="253.66" y="-464.1" font-family="Helvetica,sans-Serif" font-size="10.00" fill="#ffffff">utils.</text>
<text text-anchor="middle" x="253.66" y="-452.85" font-family="Helvetica,sans-Serif" font-size="10.00" fill="#ffffff">constants.</text>
<text text-anchor="middle" x="253.66" y="-441.6" font-family="Helvetica,sans-Serif" font-size="10.00" fill="#ffffff">universe.</text>
<text text-anchor="middle" x="253.66" y="-430.35" font-family="Helvetica,sans-Serif" font-size="10.00" fill="#ffffff">chains.</text>
<text text-anchor="middle" x="253.66" y="-419.1" font-family="Helvetica,sans-Serif" font-size="10.00" fill="#ffffff">ethereum</text>
</g>
<!-- utils_constants_universe_chains_ethereum&#45;&gt;utils_constants_universe_chains -->
<g id="edge26" class="edge">
<title>utils_constants_universe_chains_ethereum&#45;&gt;utils_constants_universe_chains</title><style>.edge>path:hover{stroke-width:8}</style>
<path fill="none" stroke="black" d="M279.85,-482.44C289.47,-493.02 301.31,-503.22 314.66,-508.91 351.8,-524.72 1731.44,-526.7 1767.66,-508.91 1779.74,-502.98 1789.68,-492.48 1797.38,-481.71"/>
<polygon fill="#ce3b3b" stroke="black" points="1800.18,-483.83 1802.74,-473.55 1794.32,-479.99 1800.18,-483.83"/>
</g>
<!-- utils_constants_universe_chains_ethereum&#45;&gt;utils_constants_universe_main -->
<g id="edge27" class="edge">
<title>utils_constants_universe_chains_ethereum&#45;&gt;utils_constants_universe_main</title><style>.edge>path:hover{stroke-width:8}</style>
<path fill="none" stroke="black" d="M284.55,-412.81C291.05,-407.74 298.21,-403.15 305.66,-400.04 432.44,-347.16 862.55,-339.72 999.45,-338.7"/>
<polygon fill="#ce3b3b" stroke="black" points="999.17,-342.2 1009.14,-338.63 999.12,-335.2 999.17,-342.2"/>
</g>
<!-- utils_constants_universe_chains_fantom -->
<g id="node17" class="node">
<title>utils_constants_universe_chains_fantom</title><style>.edge>path:hover{stroke-width:8}</style>
<ellipse fill="#ce3b3b" stroke="black" cx="358.66" cy="-445.48" rx="43.66" ry="45.43"/>
<text text-anchor="middle" x="358.66" y="-464.1" font-family="Helvetica,sans-Serif" font-size="10.00" fill="#ffffff">utils.</text>
<text text-anchor="middle" x="358.66" y="-452.85" font-family="Helvetica,sans-Serif" font-size="10.00" fill="#ffffff">constants.</text>
<text text-anchor="middle" x="358.66" y="-441.6" font-family="Helvetica,sans-Serif" font-size="10.00" fill="#ffffff">universe.</text>
<text text-anchor="middle" x="358.66" y="-430.35" font-family="Helvetica,sans-Serif" font-size="10.00" fill="#ffffff">chains.</text>
<text text-anchor="middle" x="358.66" y="-419.1" font-family="Helvetica,sans-Serif" font-size="10.00" fill="#ffffff">fantom</text>
</g>
<!-- utils_constants_universe_chains_fantom&#45;&gt;utils_constants_universe_chains -->
<g id="edge28" class="edge">
<title>utils_constants_universe_chains_fantom&#45;&gt;utils_constants_universe_chains</title><style>.edge>path:hover{stroke-width:8}</style>
<path fill="none" stroke="black" d="M384.85,-482.44C394.47,-493.02 406.31,-503.22 419.66,-508.91 454.12,-523.57 1734.05,-525.41 1767.66,-508.91 1779.74,-502.98 1789.68,-492.48 1797.38,-481.71"/>
<polygon fill="#ce3b3b" stroke="black" points="1800.18,-483.83 1802.74,-473.55 1794.32,-479.99 1800.18,-483.83"/>
</g>
<!-- utils_constants_universe_chains_fantom&#45;&gt;utils_constants_universe_main -->
<g id="edge29" class="edge">
<title>utils_constants_universe_chains_fantom&#45;&gt;utils_constants_universe_main</title><style>.edge>path:hover{stroke-width:8}</style>
<path fill="none" stroke="black" d="M389.58,-412.9C396.08,-407.82 403.23,-403.2 410.66,-400.04 517.37,-354.66 875.88,-342.32 999.41,-339.38"/>
<polygon fill="#ce3b3b" stroke="black" points="999.19,-342.88 1009.1,-339.15 999.03,-335.88 999.19,-342.88"/>
</g>
<!-- utils_constants_universe_chains_heco -->
<g id="node18" class="node">
<title>utils_constants_universe_chains_heco</title><style>.edge>path:hover{stroke-width:8}</style>
<ellipse fill="#ce3b3b" stroke="black" cx="463.66" cy="-445.48" rx="43.66" ry="45.43"/>
<text text-anchor="middle" x="463.66" y="-464.1" font-family="Helvetica,sans-Serif" font-size="10.00" fill="#ffffff">utils.</text>
<text text-anchor="middle" x="463.66" y="-452.85" font-family="Helvetica,sans-Serif" font-size="10.00" fill="#ffffff">constants.</text>
<text text-anchor="middle" x="463.66" y="-441.6" font-family="Helvetica,sans-Serif" font-size="10.00" fill="#ffffff">universe.</text>
<text text-anchor="middle" x="463.66" y="-430.35" font-family="Helvetica,sans-Serif" font-size="10.00" fill="#ffffff">chains.</text>
<text text-anchor="middle" x="463.66" y="-419.1" font-family="Helvetica,sans-Serif" font-size="10.00" fill="#ffffff">heco</text>
</g>
<!-- utils_constants_universe_chains_heco&#45;&gt;utils_constants_universe_chains -->
<g id="edge30" class="edge">
<title>utils_constants_universe_chains_heco&#45;&gt;utils_constants_universe_chains</title><style>.edge>path:hover{stroke-width:8}</style>
<path fill="none" stroke="black" d="M489.85,-482.44C499.47,-493.02 511.31,-503.22 524.66,-508.91 556.43,-522.43 1736.67,-524.13 1767.66,-508.91 1779.74,-502.98 1789.68,-492.48 1797.38,-481.71"/>
<polygon fill="#ce3b3b" stroke="black" points="1800.18,-483.83 1802.74,-473.55 1794.32,-479.99 1800.18,-483.83"/>
</g>
<!-- utils_constants_universe_chains_heco&#45;&gt;utils_constants_universe_main -->
<g id="edge31" class="edge">
<title>utils_constants_universe_chains_heco&#45;&gt;utils_constants_universe_main</title><style>.edge>path:hover{stroke-width:8}</style>
<path fill="none" stroke="black" d="M494.63,-413.01C501.13,-407.92 508.26,-403.27 515.66,-400.04 602.45,-362.15 890.14,-345.42 999.23,-340.33"/>
<polygon fill="#ce3b3b" stroke="black" points="999.08,-343.84 1008.91,-339.89 998.76,-336.85 999.08,-343.84"/>
</g>
<!-- utils_constants_universe_chains_linea -->
<g id="node19" class="node">
<title>utils_constants_universe_chains_linea</title><style>.edge>path:hover{stroke-width:8}</style>
<ellipse fill="#ce3b3b" stroke="black" cx="568.66" cy="-445.48" rx="43.66" ry="45.43"/>
<text text-anchor="middle" x="568.66" y="-464.1" font-family="Helvetica,sans-Serif" font-size="10.00" fill="#ffffff">utils.</text>
<text text-anchor="middle" x="568.66" y="-452.85" font-family="Helvetica,sans-Serif" font-size="10.00" fill="#ffffff">constants.</text>
<text text-anchor="middle" x="568.66" y="-441.6" font-family="Helvetica,sans-Serif" font-size="10.00" fill="#ffffff">universe.</text>
<text text-anchor="middle" x="568.66" y="-430.35" font-family="Helvetica,sans-Serif" font-size="10.00" fill="#ffffff">chains.</text>
<text text-anchor="middle" x="568.66" y="-419.1" font-family="Helvetica,sans-Serif" font-size="10.00" fill="#ffffff">linea</text>
</g>
<!-- utils_constants_universe_chains_linea&#45;&gt;utils_constants_universe_chains -->
<g id="edge32" class="edge">
<title>utils_constants_universe_chains_linea&#45;&gt;utils_constants_universe_chains</title><style>.edge>path:hover{stroke-width:8}</style>
<path fill="none" stroke="black" d="M594.85,-482.44C604.47,-493.02 616.31,-503.22 629.66,-508.91 658.75,-521.29 1739.29,-522.84 1767.66,-508.91 1779.74,-502.98 1789.68,-492.48 1797.38,-481.71"/>
<polygon fill="#ce3b3b" stroke="black" points="1800.18,-483.83 1802.74,-473.55 1794.32,-479.99 1800.18,-483.83"/>
</g>
<!-- utils_constants_universe_chains_linea&#45;&gt;utils_constants_universe_main -->
<g id="edge33" class="edge">
<title>utils_constants_universe_chains_linea&#45;&gt;utils_constants_universe_main</title><style>.edge>path:hover{stroke-width:8}</style>
<path fill="none" stroke="black" d="M599.71,-413.18C606.2,-408.08 613.31,-403.38 620.66,-400.04 687.83,-369.56 906.41,-349.21 999.29,-341.73"/>
<polygon fill="#ce3b3b" stroke="black" points="999.3,-345.25 1008.99,-340.97 998.74,-338.27 999.3,-345.25"/>
</g>
<!-- utils_constants_universe_chains_one -->
<g id="node20" class="node">
<title>utils_constants_universe_chains_one</title><style>.edge>path:hover{stroke-width:8}</style>
<ellipse fill="#ce3b3b" stroke="black" cx="673.66" cy="-445.48" rx="43.66" ry="45.43"/>
<text text-anchor="middle" x="673.66" y="-464.1" font-family="Helvetica,sans-Serif" font-size="10.00" fill="#ffffff">utils.</text>
<text text-anchor="middle" x="673.66" y="-452.85" font-family="Helvetica,sans-Serif" font-size="10.00" fill="#ffffff">constants.</text>
<text text-anchor="middle" x="673.66" y="-441.6" font-family="Helvetica,sans-Serif" font-size="10.00" fill="#ffffff">universe.</text>
<text text-anchor="middle" x="673.66" y="-430.35" font-family="Helvetica,sans-Serif" font-size="10.00" fill="#ffffff">chains.</text>
<text text-anchor="middle" x="673.66" y="-419.1" font-family="Helvetica,sans-Serif" font-size="10.00" fill="#ffffff">one</text>
</g>
<!-- utils_constants_universe_chains_one&#45;&gt;utils_constants_universe_chains -->
<g id="edge34" class="edge">
<title>utils_constants_universe_chains_one&#45;&gt;utils_constants_universe_chains</title><style>.edge>path:hover{stroke-width:8}</style>
<path fill="none" stroke="black" d="M699.85,-482.44C709.47,-493.02 721.31,-503.22 734.66,-508.91 787.47,-531.39 1716.15,-534.21 1767.66,-508.91 1779.74,-502.98 1789.68,-492.48 1797.38,-481.71"/>
<polygon fill="#ce3b3b" stroke="black" points="1800.18,-483.83 1802.74,-473.55 1794.32,-479.99 1800.18,-483.83"/>
</g>
<!-- utils_constants_universe_chains_one&#45;&gt;utils_constants_universe_main -->
<g id="edge35" class="edge">
<title>utils_constants_universe_chains_one&#45;&gt;utils_constants_universe_main</title><style>.edge>path:hover{stroke-width:8}</style>
<path fill="none" stroke="black" d="M704.84,-413.46C711.31,-408.33 718.39,-403.55 725.66,-400.04 816.46,-356.23 936.18,-343.62 999,-340"/>
<polygon fill="#ce3b3b" stroke="black" points="999.09,-343.5 1008.9,-339.49 998.73,-336.51 999.09,-343.5"/>
</g>
<!-- utils_constants_universe_chains_optimism -->
<g id="node21" class="node">
<title>utils_constants_universe_chains_optimism</title><style>.edge>path:hover{stroke-width:8}</style>
<ellipse fill="#ce3b3b" stroke="black" cx="778.66" cy="-445.48" rx="43.66" ry="45.43"/>
<text text-anchor="middle" x="778.66" y="-464.1" font-family="Helvetica,sans-Serif" font-size="10.00" fill="#ffffff">utils.</text>
<text text-anchor="middle" x="778.66" y="-452.85" font-family="Helvetica,sans-Serif" font-size="10.00" fill="#ffffff">constants.</text>
<text text-anchor="middle" x="778.66" y="-441.6" font-family="Helvetica,sans-Serif" font-size="10.00" fill="#ffffff">universe.</text>
<text text-anchor="middle" x="778.66" y="-430.35" font-family="Helvetica,sans-Serif" font-size="10.00" fill="#ffffff">chains.</text>
<text text-anchor="middle" x="778.66" y="-419.1" font-family="Helvetica,sans-Serif" font-size="10.00" fill="#ffffff">optimism</text>
</g>
<!-- utils_constants_universe_chains_optimism&#45;&gt;utils_constants_universe_chains -->
<g id="edge36" class="edge">
<title>utils_constants_universe_chains_optimism&#45;&gt;utils_constants_universe_chains</title><style>.edge>path:hover{stroke-width:8}</style>
<path fill="none" stroke="black" d="M804.85,-482.44C814.47,-493.02 826.31,-503.22 839.66,-508.91 887.1,-529.1 1721.39,-531.63 1767.66,-508.91 1779.74,-502.98 1789.68,-492.48 1797.38,-481.71"/>
<polygon fill="#ce3b3b" stroke="black" points="1800.18,-483.83 1802.74,-473.55 1794.32,-479.99 1800.18,-483.83"/>
</g>
<!-- utils_constants_universe_chains_optimism&#45;&gt;utils_constants_universe_main -->
<g id="edge37" class="edge">
<title>utils_constants_universe_chains_optimism&#45;&gt;utils_constants_universe_main</title><style>.edge>path:hover{stroke-width:8}</style>
<path fill="none" stroke="black" d="M810.4,-413.76C816.77,-408.67 823.66,-403.83 830.66,-400.04 885.05,-370.66 955.12,-353.83 999.22,-345.44"/>
<polygon fill="#ce3b3b" stroke="black" points="999.71,-348.91 1008.91,-343.66 998.44,-342.03 999.71,-348.91"/>
</g>
<!-- utils_constants_universe_chains_polygon -->
<g id="node22" class="node">
<title>utils_constants_universe_chains_polygon</title><style>.edge>path:hover{stroke-width:8}</style>
<ellipse fill="#ce3b3b" stroke="black" cx="883.66" cy="-445.48" rx="43.66" ry="45.43"/>
<text text-anchor="middle" x="883.66" y="-464.1" font-family="Helvetica,sans-Serif" font-size="10.00" fill="#ffffff">utils.</text>
<text text-anchor="middle" x="883.66" y="-452.85" font-family="Helvetica,sans-Serif" font-size="10.00" fill="#ffffff">constants.</text>
<text text-anchor="middle" x="883.66" y="-441.6" font-family="Helvetica,sans-Serif" font-size="10.00" fill="#ffffff">universe.</text>
<text text-anchor="middle" x="883.66" y="-430.35" font-family="Helvetica,sans-Serif" font-size="10.00" fill="#ffffff">chains.</text>
<text text-anchor="middle" x="883.66" y="-419.1" font-family="Helvetica,sans-Serif" font-size="10.00" fill="#ffffff">polygon</text>
</g>
<!-- utils_constants_universe_chains_polygon&#45;&gt;utils_constants_universe_chains -->
<g id="edge38" class="edge">
<title>utils_constants_universe_chains_polygon&#45;&gt;utils_constants_universe_chains</title><style>.edge>path:hover{stroke-width:8}</style>
<path fill="none" stroke="black" d="M909.85,-482.44C919.47,-493.02 931.31,-503.22 944.66,-508.91 986.73,-526.82 1726.62,-529.06 1767.66,-508.91 1779.74,-502.98 1789.68,-492.48 1797.38,-481.71"/>
<polygon fill="#ce3b3b" stroke="black" points="1800.18,-483.83 1802.74,-473.55 1794.32,-479.99 1800.18,-483.83"/>
</g>
<!-- utils_constants_universe_chains_polygon&#45;&gt;utils_constants_universe_main -->
<g id="edge39" class="edge">
<title>utils_constants_universe_chains_polygon&#45;&gt;utils_constants_universe_main</title><style>.edge>path:hover{stroke-width:8}</style>
<path fill="none" stroke="black" d="M916.51,-414.87C922.72,-409.72 929.27,-404.57 935.66,-400.04 956.21,-385.48 980.42,-371.24 1000.51,-360.13"/>
<polygon fill="#ce3b3b" stroke="black" points="1002.17,-363.21 1009.27,-355.35 998.82,-357.07 1002.17,-363.21"/>
</g>
<!-- utils_constants_universe_chains_scroll -->
<g id="node23" class="node">
<title>utils_constants_universe_chains_scroll</title><style>.edge>path:hover{stroke-width:8}</style>
<ellipse fill="#ce3b3b" stroke="black" cx="988.66" cy="-445.48" rx="43.66" ry="45.43"/>
<text text-anchor="middle" x="988.66" y="-464.1" font-family="Helvetica,sans-Serif" font-size="10.00" fill="#ffffff">utils.</text>
<text text-anchor="middle" x="988.66" y="-452.85" font-family="Helvetica,sans-Serif" font-size="10.00" fill="#ffffff">constants.</text>
<text text-anchor="middle" x="988.66" y="-441.6" font-family="Helvetica,sans-Serif" font-size="10.00" fill="#ffffff">universe.</text>
<text text-anchor="middle" x="988.66" y="-430.35" font-family="Helvetica,sans-Serif" font-size="10.00" fill="#ffffff">chains.</text>
<text text-anchor="middle" x="988.66" y="-419.1" font-family="Helvetica,sans-Serif" font-size="10.00" fill="#ffffff">scroll</text>
</g>
<!-- utils_constants_universe_chains_scroll&#45;&gt;utils_constants_universe_chains -->
<g id="edge40" class="edge">
<title>utils_constants_universe_chains_scroll&#45;&gt;utils_constants_universe_chains</title><style>.edge>path:hover{stroke-width:8}</style>
<path fill="none" stroke="black" d="M1014.85,-482.44C1024.47,-493.02 1036.31,-503.22 1049.66,-508.91 1086.37,-524.53 1731.86,-526.49 1767.66,-508.91 1779.74,-502.98 1789.68,-492.48 1797.38,-481.71"/>
<polygon fill="#ce3b3b" stroke="black" points="1800.18,-483.83 1802.74,-473.55 1794.32,-479.99 1800.18,-483.83"/>
</g>
<!-- utils_constants_universe_chains_scroll&#45;&gt;utils_constants_universe_main -->
<g id="edge41" class="edge">
<title>utils_constants_universe_chains_scroll&#45;&gt;utils_constants_universe_main</title><style>.edge>path:hover{stroke-width:8}</style>
<path fill="none" stroke="black" d="M1008.55,-404.73C1013.51,-394.81 1018.8,-384.24 1023.67,-374.51"/>
<polygon fill="#ce3b3b" stroke="black" points="1026.72,-376.23 1028.06,-365.73 1020.46,-373.1 1026.72,-376.23"/>
</g>
<!-- utils_constants_universe_chains_sonic -->
<g id="node24" class="node">
<title>utils_constants_universe_chains_sonic</title><style>.edge>path:hover{stroke-width:8}</style>
<ellipse fill="#c24747" stroke="black" cx="1093.66" cy="-445.48" rx="43.66" ry="45.43"/>
<text text-anchor="middle" x="1093.66" y="-464.1" font-family="Helvetica,sans-Serif" font-size="10.00" fill="#ffffff">utils.</text>
<text text-anchor="middle" x="1093.66" y="-452.85" font-family="Helvetica,sans-Serif" font-size="10.00" fill="#ffffff">constants.</text>
<text text-anchor="middle" x="1093.66" y="-441.6" font-family="Helvetica,sans-Serif" font-size="10.00" fill="#ffffff">universe.</text>
<text text-anchor="middle" x="1093.66" y="-430.35" font-family="Helvetica,sans-Serif" font-size="10.00" fill="#ffffff">chains.</text>
<text text-anchor="middle" x="1093.66" y="-419.1" font-family="Helvetica,sans-Serif" font-size="10.00" fill="#ffffff">sonic</text>
</g>
<!-- utils_constants_universe_chains_sonic&#45;&gt;utils_constants_universe_main -->
<g id="edge42" class="edge">
<title>utils_constants_universe_chains_sonic&#45;&gt;utils_constants_universe_main</title><style>.edge>path:hover{stroke-width:8}</style>
<path fill="none" stroke="black" d="M1074,-404.43C1069.19,-394.62 1064.06,-384.18 1059.35,-374.57"/>
<polygon fill="#c24747" stroke="black" points="1062.64,-373.33 1055.09,-365.9 1056.36,-376.42 1062.64,-373.33"/>
</g>
<!-- utils_constants_universe_main&#45;&gt;utils_constants_universe -->
<g id="edge43" class="edge">
<title>utils_constants_universe_main&#45;&gt;utils_constants_universe</title><style>.edge>path:hover{stroke-width:8}</style>
<path fill="none" stroke="black" d="M1072.76,-336.08C1138.17,-334.1 1293.79,-324.16 1412.66,-275.04 1414.45,-274.3 1416.24,-273.47 1418.01,-272.57"/>
<polygon fill="blue" stroke="black" points="1419.71,-275.63 1426.56,-267.55 1416.17,-269.59 1419.71,-275.63"/>
</g>
<!-- utils_constants_universe_utils -->
<g id="node26" class="node">
<title>utils_constants_universe_utils</title><style>.edge>path:hover{stroke-width:8}</style>
<ellipse fill="#ce3b3b" stroke="black" cx="1909.66" cy="-445.48" rx="43.66" ry="37.48"/>
<text text-anchor="middle" x="1909.66" y="-458.48" font-family="Helvetica,sans-Serif" font-size="10.00" fill="#ffffff">utils.</text>
<text text-anchor="middle" x="1909.66" y="-447.23" font-family="Helvetica,sans-Serif" font-size="10.00" fill="#ffffff">constants.</text>
<text text-anchor="middle" x="1909.66" y="-435.98" font-family="Helvetica,sans-Serif" font-size="10.00" fill="#ffffff">universe.</text>
<text text-anchor="middle" x="1909.66" y="-424.73" font-family="Helvetica,sans-Serif" font-size="10.00" fill="#ffffff">utils</text>
</g>
<!-- utils_constants_universe_utils&#45;&gt;utils_constants_universe -->
<g id="edge44" class="edge">
<title>utils_constants_universe_utils&#45;&gt;utils_constants_universe</title><style>.edge>path:hover{stroke-width:8}</style>
<path fill="none" stroke="black" d="M1899.15,-409.05C1891.46,-387.17 1879.43,-359.4 1862.66,-338.54"/>
</g>
<!-- utils_constants_universe_utils&#45;&gt;utils_constants_universe_main -->
<g id="edge45" class="edge">
<title>utils_constants_universe_utils&#45;&gt;utils_constants_universe_main</title><style>.edge>path:hover{stroke-width:8}</style>
<path fill="none" stroke="black" d="M1882.13,-415.94C1874.5,-409.65 1865.78,-403.75 1856.66,-400.04 1714.47,-342.17 1230.35,-338.19 1083.95,-338.35"/>
<polygon fill="#ce3b3b" stroke="black" points="1084.32,-334.85 1074.32,-338.37 1084.33,-341.85 1084.32,-334.85"/>
</g>
<!-- utils_constants_urls -->
<g id="node27" class="node">
<title>utils_constants_urls</title><style>.edge>path:hover{stroke-width:8}</style>
<ellipse fill="#c24747" stroke="black" cx="1149.66" cy="-245.52" rx="43.66" ry="29.52"/>
<text text-anchor="middle" x="1149.66" y="-252.9" font-family="Helvetica,sans-Serif" font-size="10.00" fill="#ffffff">utils.</text>
<text text-anchor="middle" x="1149.66" y="-241.65" font-family="Helvetica,sans-Serif" font-size="10.00" fill="#ffffff">constants.</text>
<text text-anchor="middle" x="1149.66" y="-230.4" font-family="Helvetica,sans-Serif" font-size="10.00" fill="#ffffff">urls</text>
</g>
<!-- utils_constants_urls&#45;&gt;utils_constants -->
<g id="edge46" class="edge">
<title>utils_constants_urls&#45;&gt;utils_constants</title><style>.edge>path:hover{stroke-width:8}</style>
<path fill="none" stroke="black" d="M1182.23,-225.51C1188.57,-222.14 1195.25,-218.81 1201.66,-216 1240.55,-198.98 1286.75,-184.06 1319.12,-174.42"/>
<polygon fill="#c24747" stroke="black" points="1319.89,-177.84 1328.5,-171.67 1317.92,-171.13 1319.89,-177.84"/>
</g>
<!-- utils_logger&#45;&gt;utils -->
<g id="edge47" class="edge">
<title>utils_logger&#45;&gt;utils</title><style>.edge>path:hover{stroke-width:8}</style>
<path fill="none" stroke="black" d="M1412.25,-71.7C1409.01,-64.15 1405.14,-55.12 1401.53,-46.68"/>
<polygon fill="blue" stroke="black" points="1404.75,-45.31 1397.59,-37.5 1398.31,-48.07 1404.75,-45.31"/>
</g>
</g>
</svg>
